{"glyphs":{"0":{"ha":833,"x_min":96,"x_max":738,"o":"m 419 1000 q 588 953 517 1000 q 699 819 660 906 q 738 618 738 733 l 738 354 q 697 149 738 235 q 585 18 657 64 q 415 -28 513 -28 q 283 -1 342 -28 q 182 77 224 26 q 118 198 140 128 q 96 354 96 268 l 96 618 q 136 823 96 738 q 249 954 176 908 q 419 1000 321 1000 m 417 881 q 313 853 357 881 q 246 769 269 826 q 222 618 222 711 l 222 354 q 226 284 222 317 q 238 226 231 251 q 257 181 246 200 q 320 115 281 138 q 414 92 360 92 q 518 120 474 92 q 587 206 563 149 q 611 354 611 264 l 611 621 q 603 711 611 671 q 582 781 596 751 q 549 832 568 811 q 491 869 525 857 q 417 881 457 881 m 619 778 l 638 649 l 554 649 l 599 683 q 566 615 585 646 q 526 556 547 583 q 478 500 504 528 q 389 399 433 449 q 300 301 344 350 q 208 201 256 253 l 175 335 l 272 335 l 233 301 q 264 363 249 336 q 302 419 279 390 q 361 488 325 449 q 490 633 426 561 q 619 778 554 706 z "},"1":{"ha":833,"x_min":119,"x_max":756,"o":"m 386 986 q 406 986 393 986 q 436 986 419 986 q 469 986 453 986 q 497 986 485 986 q 514 986 510 986 q 522 984 519 986 q 527 979 525 982 q 529 971 529 976 q 529 919 529 967 q 529 799 529 872 q 529 636 529 725 q 529 456 529 547 q 529 284 529 364 q 529 147 529 204 q 529 72 529 90 l 393 72 l 401 104 q 401 137 401 117 q 401 177 401 157 q 401 208 401 197 q 401 260 401 221 q 401 356 401 299 q 401 481 401 414 q 401 615 401 547 q 401 740 401 682 q 401 839 401 799 q 401 892 401 879 l 426 858 l 357 858 l 399 888 q 357 824 376 850 q 315 775 338 797 q 258 724 292 753 q 205 676 228 696 q 168 647 182 657 q 149 638 154 638 q 142 640 144 638 q 138 645 139 642 q 138 654 138 649 l 138 774 q 201 827 169 800 q 263 881 232 854 q 307 917 285 899 q 350 954 329 936 q 386 986 371 972 m 119 119 q 158 119 122 119 q 248 119 193 119 q 367 119 303 119 q 495 119 431 119 q 615 119 560 119 q 703 119 669 119 q 740 119 738 119 q 751 115 747 119 q 756 104 756 111 q 756 84 756 99 q 756 53 756 69 q 756 22 756 36 q 756 0 756 7 q 718 0 753 0 q 628 0 683 0 q 509 0 574 0 q 381 0 444 0 q 262 0 317 0 q 172 0 207 0 q 135 0 138 0 q 128 1 131 0 q 124 4 126 3 q 121 10 122 7 q 119 15 119 13 q 119 31 119 21 q 119 54 119 40 q 119 81 119 68 q 119 105 119 94 q 119 119 119 115 z "},"2":{"ha":833,"x_min":92,"x_max":747,"o":"m 414 1000 q 552 983 493 1000 q 650 935 611 967 q 708 861 689 904 q 726 765 726 818 l 726 735 q 715 644 726 685 q 674 569 703 604 q 594 494 644 533 q 467 407 544 456 q 337 317 386 356 q 261 242 288 278 q 226 167 235 207 q 217 72 217 126 l 178 100 l 274 100 l 197 88 q 258 106 229 99 q 325 116 288 113 q 418 119 363 119 l 732 119 q 743 115 739 119 q 747 104 747 111 q 747 90 747 100 q 747 66 747 79 q 747 39 747 53 q 747 15 747 25 q 747 0 747 6 q 708 0 744 0 q 616 0 672 0 q 493 0 560 0 q 360 0 426 0 q 238 0 293 0 q 146 0 182 0 q 107 0 110 0 q 99 2 103 0 q 94 7 96 4 q 92 15 92 10 l 92 94 q 122 248 92 182 q 217 374 151 314 q 392 503 283 435 q 502 578 461 547 q 565 635 543 610 q 592 684 586 660 q 599 736 599 708 l 599 749 q 591 798 599 776 q 567 836 583 819 q 510 867 549 857 q 404 878 472 878 q 263 853 326 878 q 139 778 199 829 l 118 778 q 118 794 118 783 q 118 820 118 806 q 118 848 118 835 q 118 872 118 861 q 118 886 118 882 q 120 899 118 894 q 126 908 122 903 q 239 972 165 944 q 414 1000 313 1000 z "},"3":{"ha":833,"x_min":93,"x_max":743,"o":"m 397 1000 q 579 969 506 1000 q 691 885 653 938 q 729 765 729 832 l 729 736 q 703 631 729 678 q 621 550 678 583 q 469 500 564 517 l 510 542 l 510 453 l 469 493 q 631 445 571 479 q 717 366 690 411 q 743 268 743 321 l 743 231 q 701 97 743 156 q 583 6 660 39 q 393 -28 506 -28 q 265 -18 324 -28 q 165 7 207 -8 q 103 39 124 22 q 95 48 97 43 q 93 60 93 53 q 93 73 93 63 q 93 98 93 83 q 93 128 93 113 q 93 156 93 144 q 93 174 93 168 l 114 174 q 197 128 157 146 q 282 104 236 111 q 390 97 328 97 q 510 115 461 97 q 586 167 560 133 q 613 250 613 201 l 613 267 q 590 341 613 310 q 522 394 568 372 q 407 426 476 415 q 242 436 338 436 q 231 440 235 436 q 226 451 226 443 q 226 472 226 457 q 226 503 226 486 q 226 535 226 521 q 226 554 226 549 q 406 567 333 554 q 520 601 478 579 q 581 653 563 622 q 600 722 600 685 l 600 736 q 577 808 600 776 q 509 857 554 839 q 394 875 464 875 q 253 859 310 875 q 135 804 197 843 l 113 804 q 113 821 113 810 q 113 846 113 832 q 113 873 113 860 q 113 897 113 886 q 113 914 113 908 q 115 924 113 921 q 121 929 117 928 q 226 978 153 956 q 397 1000 299 1000 z "},"4":{"ha":833,"x_min":68,"x_max":778,"o":"m 471 972 q 490 972 478 972 q 516 972 501 972 q 544 972 531 972 q 571 972 558 972 q 588 972 583 972 l 588 951 q 509 826 549 889 q 429 698 469 763 q 347 567 389 633 q 263 433 306 501 q 174 290 219 364 l 200 369 l 200 279 l 161 301 q 257 320 210 314 q 356 328 304 326 q 469 331 407 331 l 763 331 q 771 328 768 331 q 776 324 774 326 q 778 315 778 321 q 778 301 778 311 q 778 278 778 290 q 778 253 778 267 q 778 231 778 240 q 778 215 778 221 l 83 215 q 76 217 79 215 q 70 223 72 219 q 68 231 68 226 l 68 331 q 82 354 68 331 q 120 419 96 378 q 176 513 144 460 q 243 624 208 565 q 314 743 278 683 q 383 859 350 803 q 444 960 417 915 q 453 968 449 965 q 462 972 457 971 q 471 972 467 972 m 561 553 q 581 553 568 553 q 608 553 594 553 q 635 553 622 553 q 654 553 649 553 q 663 551 660 553 q 667 546 665 549 q 669 538 669 543 l 669 138 q 669 105 669 125 q 669 63 669 85 q 669 24 669 42 q 669 0 669 7 q 654 0 665 0 q 629 0 643 0 q 601 0 615 0 q 575 0 586 0 q 558 0 564 0 q 547 4 551 0 q 543 15 543 8 q 543 63 543 32 q 543 129 543 93 q 543 201 543 165 q 543 267 543 238 q 543 315 543 297 q 549 375 546 342 q 554 442 551 408 q 559 504 557 475 q 561 553 561 533 z "},"5":{"ha":833,"x_min":104,"x_max":743,"o":"m 171 972 q 206 972 175 972 q 281 972 236 972 q 380 972 326 972 q 487 972 433 972 q 586 972 540 972 q 660 972 632 972 q 690 972 688 972 q 701 968 697 972 q 706 957 706 964 q 706 942 706 951 q 706 920 706 932 q 706 896 706 908 q 706 874 706 883 q 706 858 706 864 q 671 858 703 858 q 590 858 639 858 q 485 858 540 858 q 381 858 431 858 q 298 858 331 858 q 260 858 265 858 q 212 869 232 858 q 181 899 192 881 q 171 939 171 917 q 171 955 171 947 q 171 972 171 963 m 171 972 l 300 972 l 292 935 q 287 899 289 919 q 281 839 285 878 q 269 731 276 792 q 256 610 263 669 q 243 503 249 551 l 222 538 l 307 538 l 225 504 q 331 565 274 547 q 468 582 389 582 q 587 565 536 582 q 672 516 638 549 q 725 436 707 483 q 743 326 743 389 l 743 261 q 720 144 743 197 q 653 53 697 92 q 547 -6 610 15 q 401 -28 483 -28 q 275 -18 332 -28 q 176 8 218 -8 q 111 42 133 24 q 106 49 107 46 q 104 57 104 51 q 104 74 104 63 q 104 101 104 86 q 104 130 104 115 q 104 156 104 144 q 104 174 104 168 l 126 174 q 251 115 188 132 q 401 97 314 97 q 561 144 507 97 q 615 272 615 192 l 615 310 q 597 399 615 363 q 539 455 579 435 q 432 475 499 475 q 331 465 381 475 q 238 435 282 454 l 131 435 q 119 440 124 435 q 115 454 114 444 q 123 519 118 475 q 134 619 128 563 q 147 738 140 675 q 159 861 153 800 q 171 972 165 922 z "},"6":{"ha":833,"x_min":90,"x_max":749,"o":"m 475 1000 q 610 982 551 1000 q 696 943 668 964 q 703 935 701 939 q 706 922 706 931 q 706 907 706 917 q 706 884 706 897 q 706 857 706 871 q 706 832 706 843 q 706 815 706 821 l 685 815 q 578 865 631 850 q 460 881 525 881 q 359 865 400 881 q 286 819 318 850 q 235 727 251 783 q 219 594 219 671 l 219 368 q 226 263 219 308 q 246 186 232 218 q 281 132 260 154 q 340 96 306 107 q 421 85 375 85 q 570 133 517 85 q 624 278 624 182 l 624 310 q 614 387 624 357 q 586 435 604 417 q 525 471 563 457 q 429 485 488 485 q 310 464 365 485 q 200 399 254 443 l 179 521 l 272 521 l 217 493 q 317 573 258 546 q 460 600 376 600 q 612 569 547 600 q 713 483 676 539 q 749 344 749 426 l 749 260 q 708 111 749 176 q 594 9 667 46 q 425 -28 521 -28 q 239 16 314 -28 q 127 149 164 60 q 90 374 90 239 l 90 578 q 110 739 90 669 q 167 858 131 808 q 251 940 203 908 q 356 985 299 971 q 475 1000 413 1000 z "},"7":{"ha":833,"x_min":94,"x_max":756,"o":"m 94 972 q 126 970 108 972 q 160 962 143 968 q 191 947 178 956 q 213 928 204 939 q 221 903 221 917 q 221 860 221 886 q 221 803 221 833 q 221 746 221 774 q 221 699 221 718 q 221 678 221 681 q 204 678 215 678 q 179 678 193 678 q 151 678 165 678 q 125 678 136 678 q 110 678 114 678 q 99 682 103 678 q 94 693 94 686 q 94 726 94 699 q 94 790 94 753 q 94 866 94 828 q 94 933 94 904 q 94 972 94 963 m 414 0 q 397 0 408 0 q 371 0 386 0 q 340 0 356 0 q 314 -1 325 0 q 297 -1 303 -1 q 286 3 290 -1 q 282 14 282 7 q 292 47 282 19 q 326 131 303 74 q 387 282 349 188 q 482 515 425 376 q 521 606 501 561 q 562 696 540 651 q 609 787 583 740 q 665 883 635 833 l 631 803 l 631 897 l 682 858 q 581 855 628 857 q 490 853 533 853 q 407 853 446 853 l 181 853 q 157 859 169 853 q 133 877 144 865 q 113 904 121 889 q 99 937 104 919 q 94 972 94 954 l 740 972 q 749 970 746 972 q 753 965 751 968 q 756 957 756 963 l 756 861 q 747 836 756 860 q 724 772 739 813 q 688 681 708 732 q 643 569 667 629 q 593 446 619 510 q 551 344 572 396 q 508 236 531 292 q 463 122 486 181 q 414 0 439 64 z "},"8":{"ha":833,"x_min":82,"x_max":751,"o":"m 419 1000 q 584 970 514 1001 q 693 882 654 939 q 732 749 732 825 l 732 729 q 705 623 732 671 q 629 543 678 575 q 514 500 581 511 l 561 532 l 561 460 l 396 522 q 551 601 493 551 q 610 717 610 651 l 610 733 q 601 792 610 767 q 572 836 592 817 q 511 871 550 858 q 415 882 472 883 q 312 862 354 882 q 247 807 269 842 q 225 725 225 772 q 238 656 225 685 q 282 604 250 626 q 374 560 314 582 l 533 500 q 629 456 589 481 q 697 401 669 432 q 738 334 725 371 q 751 253 751 297 l 751 221 q 710 90 751 146 q 594 3 669 35 q 417 -28 518 -28 q 242 1 318 -28 q 124 85 167 31 q 82 214 82 139 l 82 233 q 106 341 82 290 q 181 426 129 392 q 315 468 233 460 l 269 440 l 269 504 l 431 442 q 309 400 360 426 q 231 334 258 374 q 203 240 203 294 q 228 156 203 189 q 301 106 254 122 q 417 90 349 90 q 576 126 521 90 q 631 242 631 161 q 617 308 631 281 q 572 358 604 336 q 483 401 540 381 l 322 461 q 195 525 243 492 q 126 605 147 558 q 104 718 104 651 l 104 744 q 142 874 104 817 q 250 965 179 931 q 419 1000 321 1000 z "},"9":{"ha":833,"x_min":89,"x_max":747,"o":"m 407 1000 q 557 976 493 1000 q 663 903 621 951 q 726 780 704 854 q 747 607 747 706 l 747 388 q 722 210 747 288 q 649 80 697 133 q 531 -1 601 26 q 369 -28 461 -28 q 272 -19 319 -28 q 188 2 224 -11 q 132 32 151 15 q 125 38 128 35 q 122 49 122 42 q 122 64 122 54 q 122 86 122 74 q 122 110 122 99 q 122 133 122 122 q 122 149 122 144 l 144 149 q 253 100 201 114 q 371 86 304 86 q 475 103 429 86 q 549 149 521 119 q 600 240 582 182 q 618 375 618 297 l 618 610 q 603 749 618 692 q 557 836 588 806 q 497 872 532 860 q 413 883 463 883 q 266 834 319 883 q 213 694 213 785 l 213 638 q 222 567 213 594 q 250 519 231 539 q 310 485 272 497 q 400 474 347 474 q 526 494 468 474 q 636 560 583 515 l 636 440 l 572 440 l 617 469 q 519 385 585 413 q 376 358 454 358 q 223 390 288 358 q 124 480 158 421 q 89 624 89 539 l 89 701 q 129 858 89 792 q 242 963 169 925 q 407 1000 314 1000 z "}," ":{"ha":833,"x_min":0,"x_max":0,"o":""}," ":{"ha":833,"x_min":0,"x_max":0,"o":"z "}," ":{"ha":833,"x_min":0,"x_max":0,"o":""}," ":{"ha":833,"x_min":0,"x_max":0,"o":""}," ":{"ha":833,"x_min":0,"x_max":0,"o":""}," ":{"ha":833,"x_min":0,"x_max":0,"o":""},"A":{"ha":833,"x_min":36,"x_max":801,"o":"m 196 386 l 503 386 q 535 386 519 386 q 567 386 551 386 l 606 400 l 618 338 l 632 274 l 210 274 q 202 276 206 274 q 197 281 199 278 q 194 289 194 285 l 196 386 m 164 0 q 108 0 136 0 q 51 0 81 0 q 42 3 46 0 q 38 10 39 6 q 38 19 36 14 q 71 133 53 69 q 109 269 89 197 q 151 419 129 342 q 193 572 172 496 q 234 722 214 649 q 273 861 254 796 q 307 981 292 926 q 415 981 363 981 q 510 981 467 981 q 519 978 515 981 q 524 974 522 976 q 526 965 526 971 q 583 769 554 869 q 642 566 613 669 q 703 356 672 463 q 765 138 733 249 q 783 69 774 103 q 801 0 793 35 q 744 0 772 0 q 690 0 715 0 q 677 2 682 0 q 669 12 672 4 q 661 35 665 19 q 610 220 636 125 q 557 408 583 315 q 506 588 531 500 q 461 751 482 675 q 425 888 440 828 l 457 864 l 374 864 l 406 888 q 372 755 390 826 q 330 599 353 683 q 280 420 307 515 q 224 220 253 325 q 164 0 194 115 z "},"À":{"ha":833,"x_min":36,"x_max":801,"o":"m 196 386 l 503 386 q 535 386 519 386 q 567 386 551 386 l 606 400 l 618 338 l 632 274 l 210 274 q 202 276 206 274 q 197 281 199 278 q 194 289 194 285 l 196 386 m 164 0 q 108 0 136 0 q 51 0 81 0 q 42 3 46 0 q 38 10 39 6 q 38 19 36 14 q 71 133 53 69 q 109 269 89 197 q 151 419 129 342 q 193 572 172 496 q 234 722 214 649 q 273 861 254 796 q 307 981 292 926 q 415 981 363 981 q 510 981 467 981 q 519 978 515 981 q 524 974 522 976 q 526 965 526 971 q 583 769 554 869 q 642 566 613 669 q 703 356 672 463 q 765 138 733 249 q 783 69 774 103 q 801 0 793 35 q 744 0 772 0 q 690 0 715 0 q 677 2 682 0 q 669 12 672 4 q 661 35 665 19 q 610 220 636 125 q 557 408 583 315 q 506 588 531 500 q 461 751 482 675 q 425 888 440 828 l 457 864 l 374 864 l 406 888 q 372 755 390 826 q 330 599 353 683 q 280 420 307 515 q 224 220 253 325 q 164 0 194 115 m 328 1313 q 379 1232 356 1269 q 427 1157 403 1194 q 476 1076 451 1119 q 446 1076 460 1076 q 415 1076 432 1076 q 375 1076 399 1076 q 360 1080 367 1076 q 351 1088 354 1083 q 297 1150 318 1125 q 258 1196 275 1175 q 222 1240 240 1217 q 176 1292 203 1263 q 174 1306 171 1299 q 186 1313 178 1313 q 234 1313 215 1313 q 274 1313 253 1313 q 328 1313 294 1313 z "},"Á":{"ha":833,"x_min":36,"x_max":801,"o":"m 196 386 l 503 386 q 535 386 519 386 q 567 386 551 386 l 606 400 l 618 338 l 632 274 l 210 274 q 202 276 206 274 q 197 281 199 278 q 194 289 194 285 l 196 386 m 164 0 q 108 0 136 0 q 51 0 81 0 q 42 3 46 0 q 38 10 39 6 q 38 19 36 14 q 71 133 53 69 q 109 269 89 197 q 151 419 129 342 q 193 572 172 496 q 234 722 214 649 q 273 861 254 796 q 307 981 292 926 q 415 981 363 981 q 510 981 467 981 q 519 978 515 981 q 524 974 522 976 q 526 965 526 971 q 583 769 554 869 q 642 566 613 669 q 703 356 672 463 q 765 138 733 249 q 783 69 774 103 q 801 0 793 35 q 744 0 772 0 q 690 0 715 0 q 677 2 682 0 q 669 12 672 4 q 661 35 665 19 q 610 220 636 125 q 557 408 583 315 q 506 588 531 500 q 461 751 482 675 q 425 888 440 828 l 457 864 l 374 864 l 406 888 q 372 755 390 826 q 330 599 353 683 q 280 420 307 515 q 224 220 253 325 q 164 0 194 115 m 511 1313 q 564 1313 544 1313 q 600 1313 583 1313 q 646 1313 617 1313 q 658 1306 654 1313 q 654 1292 661 1299 q 610 1240 629 1263 q 574 1196 592 1217 q 535 1150 557 1175 q 481 1088 513 1125 q 472 1080 478 1083 q 457 1076 465 1076 q 418 1076 433 1076 q 389 1076 403 1076 q 360 1076 375 1076 q 411 1157 388 1119 q 459 1232 435 1194 q 511 1313 483 1269 z "},"Â":{"ha":833,"x_min":36,"x_max":801,"o":"m 196 386 l 503 386 q 535 386 519 386 q 567 386 551 386 l 606 400 l 618 338 l 632 274 l 210 274 q 202 276 206 274 q 197 281 199 278 q 194 289 194 285 l 196 386 m 164 0 q 108 0 136 0 q 51 0 81 0 q 42 3 46 0 q 38 10 39 6 q 38 19 36 14 q 71 133 53 69 q 109 269 89 197 q 151 419 129 342 q 193 572 172 496 q 234 722 214 649 q 273 861 254 796 q 307 981 292 926 q 415 981 363 981 q 510 981 467 981 q 519 978 515 981 q 524 974 522 976 q 526 965 526 971 q 583 769 554 869 q 642 566 613 669 q 703 356 672 463 q 765 138 733 249 q 783 69 774 103 q 801 0 793 35 q 744 0 772 0 q 690 0 715 0 q 677 2 682 0 q 669 12 672 4 q 661 35 665 19 q 610 220 636 125 q 557 408 583 315 q 506 588 531 500 q 461 751 482 675 q 425 888 440 828 l 457 864 l 374 864 l 406 888 q 372 755 390 826 q 330 599 353 683 q 280 420 307 515 q 224 220 253 325 q 164 0 194 115 m 349 1314 q 385 1314 363 1314 q 430 1314 407 1314 q 465 1314 453 1314 q 484 1309 476 1314 q 513 1285 492 1304 q 549 1251 524 1275 q 606 1198 574 1228 q 672 1137 639 1168 q 735 1078 706 1106 q 678 1078 708 1079 q 622 1078 647 1078 q 600 1080 607 1078 q 582 1092 593 1082 q 510 1151 560 1110 q 388 1251 460 1192 l 461 1224 q 417 1224 439 1224 q 372 1224 394 1224 l 444 1253 q 324 1153 375 1194 q 233 1078 272 1111 l 128 1078 q 119 1079 122 1078 q 114 1083 115 1081 q 113 1088 113 1085 q 118 1099 113 1093 q 144 1125 124 1106 q 190 1166 163 1142 q 247 1219 217 1190 q 303 1272 276 1247 q 349 1314 331 1297 z "},"Ã":{"ha":833,"x_min":36,"x_max":801,"o":"m 196 386 l 503 386 q 535 386 519 386 q 567 386 551 386 l 606 400 l 618 338 l 632 274 l 210 274 q 202 276 206 274 q 197 281 199 278 q 194 289 194 285 l 196 386 m 164 0 q 108 0 136 0 q 51 0 81 0 q 42 3 46 0 q 38 10 39 6 q 38 19 36 14 q 71 133 53 69 q 109 269 89 197 q 151 419 129 342 q 193 572 172 496 q 234 722 214 649 q 273 861 254 796 q 307 981 292 926 q 415 981 363 981 q 510 981 467 981 q 519 978 515 981 q 524 974 522 976 q 526 965 526 971 q 583 769 554 869 q 642 566 613 669 q 703 356 672 463 q 765 138 733 249 q 783 69 774 103 q 801 0 793 35 q 744 0 772 0 q 690 0 715 0 q 677 2 682 0 q 669 12 672 4 q 661 35 665 19 q 610 220 636 125 q 557 408 583 315 q 506 588 531 500 q 461 751 482 675 q 425 888 440 828 l 457 864 l 374 864 l 406 888 q 372 755 390 826 q 330 599 353 683 q 280 420 307 515 q 224 220 253 325 q 164 0 194 115 m 549 1204 q 608 1219 583 1204 q 660 1264 633 1233 l 679 1264 q 679 1217 679 1240 q 679 1172 679 1194 q 678 1160 679 1165 q 669 1147 676 1154 q 619 1110 647 1125 q 546 1096 590 1096 q 473 1109 507 1096 q 408 1138 439 1122 q 347 1167 378 1154 q 285 1181 317 1181 q 225 1166 250 1181 q 174 1119 200 1151 l 154 1119 q 154 1167 154 1143 q 154 1211 154 1190 q 156 1224 154 1218 q 164 1238 157 1229 q 215 1274 186 1260 q 288 1289 243 1289 q 360 1276 326 1289 q 426 1246 394 1263 q 487 1217 457 1229 q 549 1204 517 1204 z "},"Ä":{"ha":833,"x_min":36,"x_max":801,"o":"m 196 386 l 503 386 q 535 386 519 386 q 567 386 551 386 l 606 400 l 618 338 l 632 274 l 210 274 q 202 276 206 274 q 197 281 199 278 q 194 289 194 285 l 196 386 m 164 0 q 108 0 136 0 q 51 0 81 0 q 42 3 46 0 q 38 10 39 6 q 38 19 36 14 q 71 133 53 69 q 109 269 89 197 q 151 419 129 342 q 193 572 172 496 q 234 722 214 649 q 273 861 254 796 q 307 981 292 926 q 415 981 363 981 q 510 981 467 981 q 519 978 515 981 q 524 974 522 976 q 526 965 526 971 q 583 769 554 869 q 642 566 613 669 q 703 356 672 463 q 765 138 733 249 q 783 69 774 103 q 801 0 793 35 q 744 0 772 0 q 690 0 715 0 q 677 2 682 0 q 669 12 672 4 q 661 35 665 19 q 610 220 636 125 q 557 408 583 315 q 506 588 531 500 q 461 751 482 675 q 425 888 440 828 l 457 864 l 374 864 l 406 888 q 372 755 390 826 q 330 599 353 683 q 280 420 307 515 q 224 220 253 325 q 164 0 194 115 m 194 1261 q 265 1261 229 1261 q 335 1261 300 1261 q 343 1259 340 1261 q 348 1254 346 1257 q 350 1246 350 1251 l 350 1111 q 280 1111 315 1111 q 210 1111 244 1111 q 202 1113 206 1111 q 197 1119 199 1115 q 194 1126 194 1122 l 194 1261 m 483 1261 q 553 1261 518 1261 q 624 1261 589 1261 q 632 1259 629 1261 q 637 1254 635 1257 q 639 1246 639 1251 l 639 1111 q 569 1111 604 1111 q 499 1111 533 1111 q 491 1113 494 1111 q 485 1119 488 1115 q 483 1126 483 1122 l 483 1261 z "},"Å":{"ha":833,"x_min":36,"x_max":801,"o":"m 196 386 l 503 386 q 535 386 519 386 q 567 386 551 386 l 606 400 l 618 338 l 632 274 l 210 274 q 202 276 206 274 q 197 281 199 278 q 194 289 194 285 l 196 386 m 164 0 q 108 0 136 0 q 51 0 81 0 q 42 3 46 0 q 38 10 39 6 q 38 19 36 14 q 71 133 53 69 q 109 269 89 197 q 151 419 129 342 q 193 572 172 496 q 234 722 214 649 q 273 861 254 796 q 307 981 292 926 q 415 981 363 981 q 510 981 467 981 q 519 978 515 981 q 524 974 522 976 q 526 965 526 971 q 583 769 554 869 q 642 566 613 669 q 703 356 672 463 q 765 138 733 249 q 783 69 774 103 q 801 0 793 35 q 744 0 772 0 q 690 0 715 0 q 677 2 682 0 q 669 12 672 4 q 661 35 665 19 q 610 220 636 125 q 557 408 583 315 q 506 588 531 500 q 461 751 482 675 q 425 888 440 828 l 457 864 l 374 864 l 406 888 q 372 755 390 826 q 330 599 353 683 q 280 420 307 515 q 224 220 253 325 q 164 0 194 115 m 417 1246 q 531 1227 483 1246 q 605 1174 579 1208 q 631 1092 631 1139 l 631 1056 q 604 974 631 1008 q 531 921 578 940 q 417 901 483 901 q 302 921 350 901 q 228 974 254 940 q 203 1056 203 1008 l 203 1092 q 228 1174 203 1139 q 302 1227 254 1208 q 417 1246 350 1246 m 417 1158 q 340 1140 368 1158 q 313 1088 313 1122 l 313 1060 q 319 1031 313 1044 q 340 1008 326 1018 q 373 994 354 999 q 417 990 392 990 q 493 1008 465 990 q 521 1060 521 1026 l 521 1088 q 515 1117 521 1104 q 496 1139 508 1129 q 463 1153 483 1149 q 417 1158 443 1158 z "},"Ā":{"ha":833,"x_min":36,"x_max":801,"o":"m 196 386 l 503 386 q 535 386 519 386 q 567 386 551 386 l 606 400 l 618 338 l 632 274 l 210 274 q 202 276 206 274 q 197 281 199 278 q 194 289 194 285 l 196 386 m 164 0 q 108 0 136 0 q 51 0 81 0 q 42 3 46 0 q 38 10 39 6 q 38 19 36 14 q 71 133 53 69 q 109 269 89 197 q 151 419 129 342 q 193 572 172 496 q 234 722 214 649 q 273 861 254 796 q 307 981 292 926 q 415 981 363 981 q 510 981 467 981 q 519 978 515 981 q 524 974 522 976 q 526 965 526 971 q 583 769 554 869 q 642 566 613 669 q 703 356 672 463 q 765 138 733 249 q 783 69 774 103 q 801 0 793 35 q 744 0 772 0 q 690 0 715 0 q 677 2 682 0 q 669 12 672 4 q 661 35 665 19 q 610 220 636 125 q 557 408 583 315 q 506 588 531 500 q 461 751 482 675 q 425 888 440 828 l 457 864 l 374 864 l 406 888 q 372 755 390 826 q 330 599 353 683 q 280 420 307 515 q 224 220 253 325 q 164 0 194 115 m 172 1232 l 646 1232 q 657 1228 653 1232 q 661 1217 661 1224 q 661 1169 661 1193 q 661 1121 661 1146 l 188 1121 q 180 1123 183 1121 q 174 1128 176 1125 q 172 1136 172 1132 q 172 1185 172 1161 q 172 1232 172 1208 z "},"Ă":{"ha":833,"x_min":36,"x_max":801,"o":"m 196 386 l 503 386 q 535 386 519 386 q 567 386 551 386 l 606 400 l 618 338 l 632 274 l 210 274 q 202 276 206 274 q 197 281 199 278 q 194 289 194 285 l 196 386 m 164 0 q 108 0 136 0 q 51 0 81 0 q 42 3 46 0 q 38 10 39 6 q 38 19 36 14 q 71 133 53 69 q 109 269 89 197 q 151 419 129 342 q 193 572 172 496 q 234 722 214 649 q 273 861 254 796 q 307 981 292 926 q 415 981 363 981 q 510 981 467 981 q 519 978 515 981 q 524 974 522 976 q 526 965 526 971 q 583 769 554 869 q 642 566 613 669 q 703 356 672 463 q 765 138 733 249 q 783 69 774 103 q 801 0 793 35 q 744 0 772 0 q 690 0 715 0 q 677 2 682 0 q 669 12 672 4 q 661 35 665 19 q 610 220 636 125 q 557 408 583 315 q 506 588 531 500 q 461 751 482 675 q 425 888 440 828 l 457 864 l 374 864 l 406 888 q 372 755 390 826 q 330 599 353 683 q 280 420 307 515 q 224 220 253 325 q 164 0 194 115 m 572 1307 q 611 1307 592 1307 q 650 1307 631 1307 q 668 1300 664 1307 q 668 1278 672 1293 q 623 1190 656 1229 q 543 1126 590 1150 q 438 1103 496 1103 l 396 1103 q 290 1126 338 1103 q 211 1190 243 1150 q 165 1278 179 1229 q 166 1300 163 1293 q 183 1307 169 1307 q 222 1307 203 1307 q 261 1307 242 1307 q 322 1231 285 1253 q 417 1208 358 1208 q 512 1231 475 1208 q 572 1307 549 1253 z "},"Ą":{"ha":833,"x_min":36,"x_max":801,"o":"m 196 386 l 503 386 q 535 386 519 386 q 567 386 551 386 l 606 400 l 618 338 l 632 274 l 210 274 q 202 276 206 274 q 197 281 199 278 q 194 289 194 285 l 196 386 m 164 0 q 108 0 136 0 q 51 0 81 0 q 42 3 46 0 q 38 10 39 6 q 38 19 36 14 q 71 133 53 69 q 109 269 89 197 q 151 419 129 342 q 193 572 172 496 q 234 722 214 649 q 273 861 254 796 q 307 981 292 926 q 415 981 363 981 q 510 981 467 981 q 519 978 515 981 q 524 974 522 976 q 526 965 526 971 q 583 769 554 869 q 642 566 613 669 q 703 356 672 463 q 765 138 733 249 q 783 69 774 103 q 801 0 793 35 q 744 0 772 0 q 690 0 715 0 q 677 2 682 0 q 669 12 672 4 q 661 35 665 19 q 610 220 636 125 q 557 408 583 315 q 506 588 531 500 q 461 751 482 675 q 425 888 440 828 l 457 864 l 374 864 l 406 888 q 372 755 390 826 q 330 599 353 683 q 280 420 307 515 q 224 220 253 325 q 164 0 194 115 m 722 42 q 753 34 735 43 q 801 0 772 25 q 799 -9 801 -6 q 785 -15 796 -12 q 653 -74 690 -37 q 615 -154 615 -111 q 637 -208 615 -190 q 692 -226 658 -226 q 736 -219 717 -226 q 775 -200 756 -212 l 796 -200 q 796 -222 796 -210 q 796 -253 796 -235 q 796 -300 796 -271 q 764 -333 796 -318 q 683 -347 732 -347 q 547 -304 597 -347 q 497 -186 497 -261 q 532 -69 497 -118 q 618 7 567 -21 q 722 42 669 35 z "},"Ǻ":{"ha":833,"x_min":36,"x_max":801,"o":"m 417 1246 q 531 1227 483 1246 q 605 1174 579 1208 q 631 1092 631 1139 l 631 1056 q 604 974 631 1008 q 531 921 578 940 q 417 901 483 901 q 302 921 350 901 q 228 974 254 940 q 203 1056 203 1008 l 203 1092 q 228 1174 203 1139 q 302 1227 254 1208 q 417 1246 350 1246 m 417 1158 q 340 1140 368 1158 q 313 1088 313 1122 l 313 1060 q 319 1031 313 1044 q 340 1008 326 1018 q 373 994 354 999 q 417 990 392 990 q 493 1008 465 990 q 521 1060 521 1026 l 521 1088 q 515 1117 521 1104 q 496 1139 508 1129 q 463 1153 483 1149 q 417 1158 443 1158 m 517 1424 q 569 1424 550 1424 q 606 1424 589 1424 q 651 1424 624 1424 q 663 1417 660 1424 q 661 1403 667 1410 q 616 1351 635 1374 q 580 1307 597 1328 q 540 1261 563 1286 q 486 1199 518 1236 q 477 1191 483 1194 q 463 1188 471 1188 q 424 1188 439 1188 q 395 1188 408 1188 q 365 1188 382 1188 q 417 1268 393 1231 q 465 1343 440 1306 q 517 1424 490 1381 m 196 386 l 503 386 q 535 386 519 386 q 567 386 551 386 l 606 400 l 618 338 l 632 274 l 210 274 q 202 276 206 274 q 197 281 199 278 q 194 289 194 285 l 196 386 m 164 0 q 108 0 136 0 q 51 0 81 0 q 42 3 46 0 q 38 10 39 6 q 38 19 36 14 q 71 133 53 69 q 109 269 89 197 q 151 419 129 342 q 193 572 172 496 q 234 722 214 649 q 273 861 254 796 q 307 981 292 926 q 415 981 363 981 q 510 981 467 981 q 519 978 515 981 q 524 974 522 976 q 526 965 526 971 q 583 769 554 869 q 642 566 613 669 q 703 356 672 463 q 765 138 733 249 q 783 69 774 103 q 801 0 793 35 q 744 0 772 0 q 690 0 715 0 q 677 2 682 0 q 669 12 672 4 q 661 35 665 19 q 610 220 636 125 q 557 408 583 315 q 506 588 531 500 q 461 751 482 675 q 425 888 440 828 l 457 864 l 374 864 l 406 888 q 372 755 390 826 q 330 599 353 683 q 280 420 307 515 q 224 220 253 325 q 164 0 194 115 z "},"Ȁ":{"ha":833,"x_min":36,"x_max":801,"o":"m 213 1313 q 264 1232 240 1269 q 312 1157 288 1194 q 361 1076 336 1119 q 331 1076 346 1076 q 300 1076 317 1076 q 260 1076 283 1076 q 246 1080 251 1076 q 238 1088 240 1083 q 183 1150 204 1125 q 144 1196 161 1175 q 107 1240 126 1217 q 63 1292 88 1263 q 60 1306 57 1299 q 72 1313 64 1313 q 119 1313 100 1313 q 159 1313 138 1313 q 213 1313 181 1313 m 478 1313 q 529 1232 506 1269 q 577 1157 553 1194 q 626 1076 601 1119 q 597 1076 611 1076 q 565 1076 582 1076 q 525 1076 549 1076 q 510 1080 517 1076 q 501 1088 504 1083 q 447 1150 469 1125 q 408 1196 425 1175 q 372 1240 390 1217 q 328 1292 353 1263 q 325 1306 322 1299 q 336 1313 328 1313 q 384 1313 365 1313 q 424 1313 403 1313 q 478 1313 446 1313 m 196 386 l 503 386 q 535 386 519 386 q 567 386 551 386 l 606 400 l 618 338 l 632 274 l 210 274 q 202 276 206 274 q 197 281 199 278 q 194 289 194 285 l 196 386 m 164 0 q 108 0 136 0 q 51 0 81 0 q 42 3 46 0 q 38 10 39 6 q 38 19 36 14 q 71 133 53 69 q 109 269 89 197 q 151 419 129 342 q 193 572 172 496 q 234 722 214 649 q 273 861 254 796 q 307 981 292 926 q 415 981 363 981 q 510 981 467 981 q 519 978 515 981 q 524 974 522 976 q 526 965 526 971 q 583 769 554 869 q 642 566 613 669 q 703 356 672 463 q 765 138 733 249 q 783 69 774 103 q 801 0 793 35 q 744 0 772 0 q 690 0 715 0 q 677 2 682 0 q 669 12 672 4 q 661 35 665 19 q 610 220 636 125 q 557 408 583 315 q 506 588 531 500 q 461 751 482 675 q 425 888 440 828 l 457 864 l 374 864 l 406 888 q 372 755 390 826 q 330 599 353 683 q 280 420 307 515 q 224 220 253 325 q 164 0 194 115 z "},"Ȃ":{"ha":833,"x_min":36,"x_max":801,"o":"m 261 1094 q 222 1094 242 1094 q 183 1094 203 1094 q 166 1101 169 1094 q 165 1124 163 1107 q 211 1213 179 1174 q 290 1275 243 1251 q 396 1299 338 1299 l 438 1299 q 543 1275 496 1299 q 623 1213 590 1251 q 668 1124 656 1174 q 668 1101 672 1107 q 650 1094 664 1094 q 611 1094 631 1094 q 572 1094 592 1094 q 512 1171 549 1149 q 417 1193 475 1193 q 322 1171 358 1193 q 261 1094 285 1149 m 196 386 l 503 386 q 535 386 519 386 q 567 386 551 386 l 606 400 l 618 338 l 632 274 l 210 274 q 202 276 206 274 q 197 281 199 278 q 194 289 194 285 l 196 386 m 164 0 q 108 0 136 0 q 51 0 81 0 q 42 3 46 0 q 38 10 39 6 q 38 19 36 14 q 71 133 53 69 q 109 269 89 197 q 151 419 129 342 q 193 572 172 496 q 234 722 214 649 q 273 861 254 796 q 307 981 292 926 q 415 981 363 981 q 510 981 467 981 q 519 978 515 981 q 524 974 522 976 q 526 965 526 971 q 583 769 554 869 q 642 566 613 669 q 703 356 672 463 q 765 138 733 249 q 783 69 774 103 q 801 0 793 35 q 744 0 772 0 q 690 0 715 0 q 677 2 682 0 q 669 12 672 4 q 661 35 665 19 q 610 220 636 125 q 557 408 583 315 q 506 588 531 500 q 461 751 482 675 q 425 888 440 828 l 457 864 l 374 864 l 406 888 q 372 755 390 826 q 330 599 353 683 q 280 420 307 515 q 224 220 253 325 q 164 0 194 115 z "},"Ạ":{"ha":833,"x_min":36,"x_max":801,"o":"m 196 386 l 503 386 q 535 386 519 386 q 567 386 551 386 l 606 400 l 618 338 l 632 274 l 210 274 q 202 276 206 274 q 197 281 199 278 q 194 289 194 285 l 196 386 m 164 0 q 108 0 136 0 q 51 0 81 0 q 42 3 46 0 q 38 10 39 6 q 38 19 36 14 q 71 133 53 69 q 109 269 89 197 q 151 419 129 342 q 193 572 172 496 q 234 722 214 649 q 273 861 254 796 q 307 981 292 926 q 415 981 363 981 q 510 981 467 981 q 519 978 515 981 q 524 974 522 976 q 526 965 526 971 q 583 769 554 869 q 642 566 613 669 q 703 356 672 463 q 765 138 733 249 q 783 69 774 103 q 801 0 793 35 q 744 0 772 0 q 690 0 715 0 q 677 2 682 0 q 669 12 672 4 q 661 35 665 19 q 610 220 636 125 q 557 408 583 315 q 506 588 531 500 q 461 751 482 675 q 425 888 440 828 l 457 864 l 374 864 l 406 888 q 372 755 390 826 q 330 599 353 683 q 280 420 307 515 q 224 220 253 325 q 164 0 194 115 m 332 -140 q 371 -140 351 -140 q 409 -140 390 -140 q 447 -140 428 -140 q 486 -140 467 -140 q 497 -144 493 -140 q 501 -156 501 -149 l 501 -292 q 463 -292 482 -292 q 424 -292 443 -292 q 386 -292 406 -292 q 347 -292 367 -292 q 336 -287 340 -292 q 332 -276 332 -283 l 332 -140 z "},"Ả":{"ha":833,"x_min":36,"x_max":801,"o":"m 196 386 l 503 386 q 535 386 519 386 q 567 386 551 386 l 606 400 l 618 338 l 632 274 l 210 274 q 202 276 206 274 q 197 281 199 278 q 194 289 194 285 l 196 386 m 164 0 q 108 0 136 0 q 51 0 81 0 q 42 3 46 0 q 38 10 39 6 q 38 19 36 14 q 71 133 53 69 q 109 269 89 197 q 151 419 129 342 q 193 572 172 496 q 234 722 214 649 q 273 861 254 796 q 307 981 292 926 q 415 981 363 981 q 510 981 467 981 q 519 978 515 981 q 524 974 522 976 q 526 965 526 971 q 583 769 554 869 q 642 566 613 669 q 703 356 672 463 q 765 138 733 249 q 783 69 774 103 q 801 0 793 35 q 744 0 772 0 q 690 0 715 0 q 677 2 682 0 q 669 12 672 4 q 661 35 665 19 q 610 220 636 125 q 557 408 583 315 q 506 588 531 500 q 461 751 482 675 q 425 888 440 828 l 457 864 l 374 864 l 406 888 q 372 755 390 826 q 330 599 353 683 q 280 420 307 515 q 224 220 253 325 q 164 0 194 115 m 360 1075 q 381 1105 369 1090 q 403 1136 393 1119 q 420 1162 411 1149 q 438 1189 429 1175 q 438 1196 438 1192 q 438 1206 438 1200 q 413 1206 428 1206 q 386 1206 399 1206 q 347 1206 374 1206 q 301 1206 319 1206 l 271 1206 q 271 1247 271 1231 q 271 1281 271 1263 q 275 1292 271 1288 q 286 1296 279 1296 q 338 1296 306 1296 q 408 1296 371 1296 q 483 1296 446 1296 q 547 1296 519 1296 q 556 1294 553 1296 q 562 1290 560 1293 q 564 1281 564 1286 l 564 1208 q 549 1185 564 1207 q 511 1132 533 1163 q 481 1093 496 1113 q 453 1057 465 1074 q 423 1057 439 1057 q 392 1057 407 1057 q 364 1057 376 1057 q 354 1063 354 1057 q 360 1075 354 1068 z "},"Ấ":{"ha":833,"x_min":36,"x_max":883,"o":"m 196 386 l 503 386 q 535 386 519 386 q 567 386 551 386 l 606 400 l 618 338 l 632 274 l 210 274 q 202 276 206 274 q 197 281 199 278 q 194 289 194 285 l 196 386 m 164 0 q 108 0 136 0 q 51 0 81 0 q 42 3 46 0 q 38 10 39 6 q 38 19 36 14 q 71 133 53 69 q 109 269 89 197 q 151 419 129 342 q 193 572 172 496 q 234 722 214 649 q 273 861 254 796 q 307 981 292 926 q 415 981 363 981 q 510 981 467 981 q 519 978 515 981 q 524 974 522 976 q 526 965 526 971 q 583 769 554 869 q 642 566 613 669 q 703 356 672 463 q 765 138 733 249 q 783 69 774 103 q 801 0 793 35 q 744 0 772 0 q 690 0 715 0 q 677 2 682 0 q 669 12 672 4 q 661 35 665 19 q 610 220 636 125 q 557 408 583 315 q 506 588 531 500 q 461 751 482 675 q 425 888 440 828 l 457 864 l 374 864 l 406 888 q 372 755 390 826 q 330 599 353 683 q 280 420 307 515 q 224 220 253 325 q 164 0 194 115 m 349 1314 q 385 1314 363 1314 q 430 1314 407 1314 q 465 1314 453 1314 q 484 1309 476 1314 q 513 1285 492 1304 q 549 1251 524 1275 q 606 1198 574 1228 q 672 1137 639 1168 q 735 1078 706 1106 q 678 1078 708 1079 q 622 1078 647 1078 q 600 1080 607 1078 q 582 1092 593 1082 q 510 1151 560 1110 q 388 1251 460 1192 l 461 1224 q 417 1224 439 1224 q 372 1224 394 1224 l 444 1253 q 324 1153 375 1194 q 233 1078 272 1111 l 128 1078 q 119 1079 122 1078 q 114 1083 115 1081 q 113 1088 113 1085 q 118 1099 113 1093 q 144 1125 124 1106 q 190 1166 163 1142 q 247 1219 217 1190 q 303 1272 276 1247 q 349 1314 331 1297 m 750 1469 q 792 1469 772 1469 q 831 1469 811 1469 q 869 1469 850 1469 q 881 1463 878 1469 q 878 1449 883 1457 q 831 1379 853 1411 q 788 1318 808 1347 q 746 1256 768 1289 q 736 1246 742 1249 q 721 1243 731 1243 q 683 1243 697 1243 q 657 1243 669 1243 q 629 1243 644 1243 q 670 1321 651 1286 q 708 1391 689 1356 q 750 1469 728 1426 z "},"Ầ":{"ha":833,"x_min":36,"x_max":801,"o":"m 196 386 l 503 386 q 535 386 519 386 q 567 386 551 386 l 606 400 l 618 338 l 632 274 l 210 274 q 202 276 206 274 q 197 281 199 278 q 194 289 194 285 l 196 386 m 164 0 q 108 0 136 0 q 51 0 81 0 q 42 3 46 0 q 38 10 39 6 q 38 19 36 14 q 71 133 53 69 q 109 269 89 197 q 151 419 129 342 q 193 572 172 496 q 234 722 214 649 q 273 861 254 796 q 307 981 292 926 q 415 981 363 981 q 510 981 467 981 q 519 978 515 981 q 524 974 522 976 q 526 965 526 971 q 583 769 554 869 q 642 566 613 669 q 703 356 672 463 q 765 138 733 249 q 783 69 774 103 q 801 0 793 35 q 744 0 772 0 q 690 0 715 0 q 677 2 682 0 q 669 12 672 4 q 661 35 665 19 q 610 220 636 125 q 557 408 583 315 q 506 588 531 500 q 461 751 482 675 q 425 888 440 828 l 457 864 l 374 864 l 406 888 q 372 755 390 826 q 330 599 353 683 q 280 420 307 515 q 224 220 253 325 q 164 0 194 115 m 349 1314 q 385 1314 363 1314 q 430 1314 407 1314 q 465 1314 453 1314 q 484 1309 476 1314 q 513 1285 492 1304 q 549 1251 524 1275 q 606 1198 574 1228 q 672 1137 639 1168 q 735 1078 706 1106 q 678 1078 708 1079 q 622 1078 647 1078 q 600 1080 607 1078 q 582 1092 593 1082 q 510 1151 560 1110 q 388 1251 460 1192 l 461 1224 q 417 1224 439 1224 q 372 1224 394 1224 l 444 1253 q 324 1153 375 1194 q 233 1078 272 1111 l 128 1078 q 119 1079 122 1078 q 114 1083 115 1081 q 113 1088 113 1085 q 118 1099 113 1093 q 144 1125 124 1106 q 190 1166 163 1142 q 247 1219 217 1190 q 303 1272 276 1247 q 349 1314 331 1297 m 622 1469 q 665 1391 646 1426 q 703 1321 683 1356 q 743 1243 722 1286 q 715 1243 728 1243 q 689 1243 703 1243 q 651 1243 675 1243 q 637 1246 642 1243 q 626 1256 632 1249 q 585 1318 606 1289 q 542 1379 564 1347 q 494 1449 519 1411 q 492 1463 489 1457 q 503 1469 494 1469 q 542 1469 524 1469 q 581 1469 561 1469 q 622 1469 601 1469 z "},"Ẩ":{"ha":833,"x_min":36,"x_max":833,"o":"m 196 386 l 503 386 q 535 386 519 386 q 567 386 551 386 l 606 400 l 618 338 l 632 274 l 210 274 q 202 276 206 274 q 197 281 199 278 q 194 289 194 285 l 196 386 m 164 0 q 108 0 136 0 q 51 0 81 0 q 42 3 46 0 q 38 10 39 6 q 38 19 36 14 q 71 133 53 69 q 109 269 89 197 q 151 419 129 342 q 193 572 172 496 q 234 722 214 649 q 273 861 254 796 q 307 981 292 926 q 415 981 363 981 q 510 981 467 981 q 519 978 515 981 q 524 974 522 976 q 526 965 526 971 q 583 769 554 869 q 642 566 613 669 q 703 356 672 463 q 765 138 733 249 q 783 69 774 103 q 801 0 793 35 q 744 0 772 0 q 690 0 715 0 q 677 2 682 0 q 669 12 672 4 q 661 35 665 19 q 610 220 636 125 q 557 408 583 315 q 506 588 531 500 q 461 751 482 675 q 425 888 440 828 l 457 864 l 374 864 l 406 888 q 372 755 390 826 q 330 599 353 683 q 280 420 307 515 q 224 220 253 325 q 164 0 194 115 m 349 1314 q 385 1314 363 1314 q 430 1314 407 1314 q 465 1314 453 1314 q 484 1309 476 1314 q 513 1285 492 1304 q 549 1251 524 1275 q 606 1198 574 1228 q 672 1137 639 1168 q 735 1078 706 1106 q 678 1078 708 1079 q 622 1078 647 1078 q 600 1080 607 1078 q 582 1092 593 1082 q 510 1151 560 1110 q 388 1251 460 1192 l 461 1224 q 417 1224 439 1224 q 372 1224 394 1224 l 444 1253 q 324 1153 375 1194 q 233 1078 272 1111 l 128 1078 q 119 1079 122 1078 q 114 1083 115 1081 q 113 1088 113 1085 q 118 1099 113 1093 q 144 1125 124 1106 q 190 1166 163 1142 q 247 1219 217 1190 q 303 1272 276 1247 q 349 1314 331 1297 m 629 1242 q 651 1272 639 1257 q 672 1303 663 1286 q 690 1328 681 1315 q 707 1356 699 1342 q 707 1363 707 1358 q 707 1372 707 1367 q 683 1372 697 1372 q 656 1372 668 1372 q 616 1372 643 1372 q 571 1372 589 1372 l 540 1372 q 540 1413 540 1397 q 540 1447 540 1429 q 544 1458 540 1454 q 556 1463 549 1463 q 608 1463 575 1463 q 678 1463 640 1463 q 752 1463 715 1463 q 817 1463 789 1463 q 826 1461 822 1463 q 831 1456 829 1460 q 833 1447 833 1453 l 833 1375 q 818 1351 833 1374 q 781 1299 803 1329 q 750 1260 765 1279 q 722 1224 735 1240 q 692 1224 708 1224 q 661 1224 676 1224 q 633 1224 646 1224 q 624 1229 624 1224 q 629 1242 624 1235 z "},"Ẫ":{"ha":833,"x_min":36,"x_max":801,"o":"m 196 386 l 503 386 q 535 386 519 386 q 567 386 551 386 l 606 400 l 618 338 l 632 274 l 210 274 q 202 276 206 274 q 197 281 199 278 q 194 289 194 285 l 196 386 m 164 0 q 108 0 136 0 q 51 0 81 0 q 42 3 46 0 q 38 10 39 6 q 38 19 36 14 q 71 133 53 69 q 109 269 89 197 q 151 419 129 342 q 193 572 172 496 q 234 722 214 649 q 273 861 254 796 q 307 981 292 926 q 415 981 363 981 q 510 981 467 981 q 519 978 515 981 q 524 974 522 976 q 526 965 526 971 q 583 769 554 869 q 642 566 613 669 q 703 356 672 463 q 765 138 733 249 q 783 69 774 103 q 801 0 793 35 q 744 0 772 0 q 690 0 715 0 q 677 2 682 0 q 669 12 672 4 q 661 35 665 19 q 610 220 636 125 q 557 408 583 315 q 506 588 531 500 q 461 751 482 675 q 425 888 440 828 l 457 864 l 374 864 l 406 888 q 372 755 390 826 q 330 599 353 683 q 280 420 307 515 q 224 220 253 325 q 164 0 194 115 m 349 1314 q 385 1314 363 1314 q 430 1314 407 1314 q 465 1314 453 1314 q 484 1309 476 1314 q 513 1285 492 1304 q 549 1251 524 1275 q 606 1198 574 1228 q 672 1137 639 1168 q 735 1078 706 1106 q 678 1078 708 1079 q 622 1078 647 1078 q 600 1080 607 1078 q 582 1092 593 1082 q 510 1151 560 1110 q 388 1251 460 1192 l 461 1224 q 417 1224 439 1224 q 372 1224 394 1224 l 444 1253 q 324 1153 375 1194 q 233 1078 272 1111 l 128 1078 q 119 1079 122 1078 q 114 1083 115 1081 q 113 1088 113 1085 q 118 1099 113 1093 q 144 1125 124 1106 q 190 1166 163 1142 q 247 1219 217 1190 q 303 1272 276 1247 q 349 1314 331 1297 m 525 1442 q 566 1451 550 1442 q 601 1489 582 1460 l 621 1489 q 621 1442 621 1467 q 621 1397 621 1418 q 619 1385 621 1390 q 611 1372 618 1379 q 574 1342 596 1351 q 524 1333 553 1333 q 461 1346 489 1333 q 409 1374 433 1358 q 361 1401 385 1389 q 310 1413 338 1413 q 267 1401 283 1413 q 232 1365 250 1389 l 211 1365 q 211 1413 211 1388 q 211 1457 211 1438 q 213 1469 211 1464 q 221 1482 214 1475 q 260 1510 240 1501 q 313 1519 281 1519 q 369 1508 343 1519 q 420 1481 396 1496 q 470 1454 444 1467 q 525 1442 496 1442 z "},"Ậ":{"ha":833,"x_min":36,"x_max":801,"o":"m 332 -140 q 371 -140 351 -140 q 409 -140 390 -140 q 447 -140 428 -140 q 486 -140 467 -140 q 497 -144 493 -140 q 501 -156 501 -149 l 501 -292 q 463 -292 482 -292 q 424 -292 443 -292 q 386 -292 406 -292 q 347 -292 367 -292 q 336 -287 340 -292 q 332 -276 332 -283 l 332 -140 m 196 386 l 503 386 q 535 386 519 386 q 567 386 551 386 l 606 400 l 618 338 l 632 274 l 210 274 q 202 276 206 274 q 197 281 199 278 q 194 289 194 285 l 196 386 m 164 0 q 108 0 136 0 q 51 0 81 0 q 42 3 46 0 q 38 10 39 6 q 38 19 36 14 q 71 133 53 69 q 109 269 89 197 q 151 419 129 342 q 193 572 172 496 q 234 722 214 649 q 273 861 254 796 q 307 981 292 926 q 415 981 363 981 q 510 981 467 981 q 519 978 515 981 q 524 974 522 976 q 526 965 526 971 q 583 769 554 869 q 642 566 613 669 q 703 356 672 463 q 765 138 733 249 q 783 69 774 103 q 801 0 793 35 q 744 0 772 0 q 690 0 715 0 q 677 2 682 0 q 669 12 672 4 q 661 35 665 19 q 610 220 636 125 q 557 408 583 315 q 506 588 531 500 q 461 751 482 675 q 425 888 440 828 l 457 864 l 374 864 l 406 888 q 372 755 390 826 q 330 599 353 683 q 280 420 307 515 q 224 220 253 325 q 164 0 194 115 m 349 1313 q 385 1313 363 1313 q 430 1313 407 1313 q 465 1313 453 1313 q 484 1308 476 1313 q 513 1285 492 1304 q 549 1251 524 1275 q 606 1197 574 1226 q 672 1135 639 1167 q 735 1078 706 1104 q 678 1078 708 1078 q 622 1078 647 1078 q 600 1080 607 1078 q 582 1092 593 1082 q 510 1150 560 1110 q 388 1251 460 1190 l 461 1224 q 417 1224 439 1224 q 372 1224 394 1224 l 444 1253 q 324 1151 375 1193 q 233 1078 272 1110 l 128 1078 q 119 1078 122 1078 q 114 1082 115 1079 q 113 1088 113 1085 q 118 1099 113 1093 q 144 1124 124 1104 q 190 1165 163 1140 q 247 1218 217 1190 q 303 1272 276 1246 q 349 1313 331 1297 z "},"Ắ":{"ha":833,"x_min":36,"x_max":801,"o":"m 196 386 l 503 386 q 535 386 519 386 q 567 386 551 386 l 606 400 l 618 338 l 632 274 l 210 274 q 202 276 206 274 q 197 281 199 278 q 194 289 194 285 l 196 386 m 164 0 q 108 0 136 0 q 51 0 81 0 q 42 3 46 0 q 38 10 39 6 q 38 19 36 14 q 71 133 53 69 q 109 269 89 197 q 151 419 129 342 q 193 572 172 496 q 234 722 214 649 q 273 861 254 796 q 307 981 292 926 q 415 981 363 981 q 510 981 467 981 q 519 978 515 981 q 524 974 522 976 q 526 965 526 971 q 583 769 554 869 q 642 566 613 669 q 703 356 672 463 q 765 138 733 249 q 783 69 774 103 q 801 0 793 35 q 744 0 772 0 q 690 0 715 0 q 677 2 682 0 q 669 12 672 4 q 661 35 665 19 q 610 220 636 125 q 557 408 583 315 q 506 588 531 500 q 461 751 482 675 q 425 888 440 828 l 457 864 l 374 864 l 406 888 q 372 755 390 826 q 330 599 353 683 q 280 420 307 515 q 224 220 253 325 q 164 0 194 115 m 572 1307 q 611 1307 592 1307 q 650 1307 631 1307 q 668 1300 664 1307 q 668 1278 672 1293 q 623 1190 656 1229 q 543 1126 590 1150 q 438 1103 496 1103 l 396 1103 q 290 1126 338 1103 q 211 1190 243 1150 q 165 1278 179 1229 q 166 1300 163 1293 q 183 1307 169 1307 q 222 1307 203 1307 q 261 1307 242 1307 q 322 1231 285 1253 q 417 1208 358 1208 q 512 1231 475 1208 q 572 1307 549 1253 m 481 1558 q 522 1558 503 1558 q 561 1558 542 1558 q 600 1558 581 1558 q 611 1552 608 1558 q 608 1538 614 1546 q 561 1468 583 1500 q 519 1407 539 1436 q 476 1344 499 1378 q 467 1335 472 1338 q 451 1332 461 1332 q 414 1332 428 1332 q 388 1332 400 1332 q 360 1332 375 1332 q 401 1410 382 1375 q 439 1480 419 1444 q 481 1558 458 1515 z "},"Ằ":{"ha":833,"x_min":36,"x_max":801,"o":"m 196 386 l 503 386 q 535 386 519 386 q 567 386 551 386 l 606 400 l 618 338 l 632 274 l 210 274 q 202 276 206 274 q 197 281 199 278 q 194 289 194 285 l 196 386 m 164 0 q 108 0 136 0 q 51 0 81 0 q 42 3 46 0 q 38 10 39 6 q 38 19 36 14 q 71 133 53 69 q 109 269 89 197 q 151 419 129 342 q 193 572 172 496 q 234 722 214 649 q 273 861 254 796 q 307 981 292 926 q 415 981 363 981 q 510 981 467 981 q 519 978 515 981 q 524 974 522 976 q 526 965 526 971 q 583 769 554 869 q 642 566 613 669 q 703 356 672 463 q 765 138 733 249 q 783 69 774 103 q 801 0 793 35 q 744 0 772 0 q 690 0 715 0 q 677 2 682 0 q 669 12 672 4 q 661 35 665 19 q 610 220 636 125 q 557 408 583 315 q 506 588 531 500 q 461 751 482 675 q 425 888 440 828 l 457 864 l 374 864 l 406 888 q 372 755 390 826 q 330 599 353 683 q 280 420 307 515 q 224 220 253 325 q 164 0 194 115 m 572 1307 q 611 1307 592 1307 q 650 1307 631 1307 q 668 1300 664 1307 q 668 1278 672 1293 q 623 1190 656 1229 q 543 1126 590 1150 q 438 1103 496 1103 l 396 1103 q 290 1126 338 1103 q 211 1190 243 1150 q 165 1278 179 1229 q 166 1300 163 1293 q 183 1307 169 1307 q 222 1307 203 1307 q 261 1307 242 1307 q 322 1231 285 1253 q 417 1208 358 1208 q 512 1231 475 1208 q 572 1307 549 1253 m 353 1558 q 395 1480 376 1515 q 433 1410 414 1444 q 474 1332 453 1375 q 446 1332 458 1332 q 419 1332 433 1332 q 382 1332 406 1332 q 367 1335 372 1332 q 357 1344 363 1338 q 315 1407 336 1378 q 272 1468 294 1436 q 225 1538 250 1500 q 222 1552 219 1546 q 233 1558 225 1558 q 273 1558 254 1558 q 312 1558 292 1558 q 353 1558 332 1558 z "},"Ẳ":{"ha":833,"x_min":36,"x_max":801,"o":"m 196 386 l 503 386 q 535 386 519 386 q 567 386 551 386 l 606 400 l 618 338 l 632 274 l 210 274 q 202 276 206 274 q 197 281 199 278 q 194 289 194 285 l 196 386 m 164 0 q 108 0 136 0 q 51 0 81 0 q 42 3 46 0 q 38 10 39 6 q 38 19 36 14 q 71 133 53 69 q 109 269 89 197 q 151 419 129 342 q 193 572 172 496 q 234 722 214 649 q 273 861 254 796 q 307 981 292 926 q 415 981 363 981 q 510 981 467 981 q 519 978 515 981 q 524 974 522 976 q 526 965 526 971 q 583 769 554 869 q 642 566 613 669 q 703 356 672 463 q 765 138 733 249 q 783 69 774 103 q 801 0 793 35 q 744 0 772 0 q 690 0 715 0 q 677 2 682 0 q 669 12 672 4 q 661 35 665 19 q 610 220 636 125 q 557 408 583 315 q 506 588 531 500 q 461 751 482 675 q 425 888 440 828 l 457 864 l 374 864 l 406 888 q 372 755 390 826 q 330 599 353 683 q 280 420 307 515 q 224 220 253 325 q 164 0 194 115 m 572 1307 q 611 1307 592 1307 q 650 1307 631 1307 q 668 1300 664 1307 q 668 1278 672 1293 q 623 1190 656 1229 q 543 1126 590 1150 q 438 1103 496 1103 l 396 1103 q 290 1126 338 1103 q 211 1190 243 1150 q 165 1278 179 1229 q 166 1300 163 1293 q 183 1307 169 1307 q 222 1307 203 1307 q 261 1307 242 1307 q 322 1231 285 1253 q 417 1208 358 1208 q 512 1231 475 1208 q 572 1307 549 1253 m 360 1329 q 381 1359 369 1344 q 403 1390 393 1374 q 420 1416 411 1403 q 438 1443 429 1429 q 438 1450 438 1446 q 438 1460 438 1454 q 413 1460 428 1460 q 386 1460 399 1460 q 347 1460 374 1460 q 301 1460 319 1460 l 271 1460 q 271 1501 271 1485 q 271 1535 271 1517 q 275 1546 271 1542 q 286 1550 279 1550 q 338 1550 306 1550 q 408 1550 371 1550 q 483 1550 446 1550 q 547 1550 519 1550 q 556 1549 553 1550 q 562 1544 560 1547 q 564 1535 564 1540 l 564 1463 q 549 1439 564 1461 q 511 1386 533 1417 q 481 1347 496 1367 q 453 1311 465 1328 q 423 1311 439 1311 q 392 1311 407 1311 q 364 1311 376 1311 q 354 1317 354 1311 q 360 1329 354 1322 z "},"Ẵ":{"ha":833,"x_min":36,"x_max":801,"o":"m 196 386 l 503 386 q 535 386 519 386 q 567 386 551 386 l 606 400 l 618 338 l 632 274 l 210 274 q 202 276 206 274 q 197 281 199 278 q 194 289 194 285 l 196 386 m 164 0 q 108 0 136 0 q 51 0 81 0 q 42 3 46 0 q 38 10 39 6 q 38 19 36 14 q 71 133 53 69 q 109 269 89 197 q 151 419 129 342 q 193 572 172 496 q 234 722 214 649 q 273 861 254 796 q 307 981 292 926 q 415 981 363 981 q 510 981 467 981 q 519 978 515 981 q 524 974 522 976 q 526 965 526 971 q 583 769 554 869 q 642 566 613 669 q 703 356 672 463 q 765 138 733 249 q 783 69 774 103 q 801 0 793 35 q 744 0 772 0 q 690 0 715 0 q 677 2 682 0 q 669 12 672 4 q 661 35 665 19 q 610 220 636 125 q 557 408 583 315 q 506 588 531 500 q 461 751 482 675 q 425 888 440 828 l 457 864 l 374 864 l 406 888 q 372 755 390 826 q 330 599 353 683 q 280 420 307 515 q 224 220 253 325 q 164 0 194 115 m 572 1307 q 611 1307 592 1307 q 650 1307 631 1307 q 668 1300 664 1307 q 668 1278 672 1293 q 623 1190 656 1229 q 543 1126 590 1150 q 438 1103 496 1103 l 396 1103 q 290 1126 338 1103 q 211 1190 243 1150 q 165 1278 179 1229 q 166 1300 163 1293 q 183 1307 169 1307 q 222 1307 203 1307 q 261 1307 242 1307 q 322 1231 285 1253 q 417 1208 358 1208 q 512 1231 475 1208 q 572 1307 549 1253 m 525 1464 q 566 1473 550 1464 q 601 1511 582 1482 l 621 1511 q 621 1465 621 1489 q 621 1419 621 1440 q 619 1407 621 1413 q 611 1394 618 1401 q 574 1365 596 1374 q 524 1356 553 1356 q 461 1368 489 1356 q 409 1396 433 1381 q 361 1423 385 1411 q 310 1435 338 1435 q 267 1423 283 1435 q 232 1388 250 1411 l 211 1388 q 211 1435 211 1410 q 211 1479 211 1460 q 213 1492 211 1486 q 221 1504 214 1497 q 260 1533 240 1524 q 313 1542 281 1542 q 369 1530 343 1542 q 420 1503 396 1518 q 470 1476 444 1489 q 525 1464 496 1464 z "},"Ặ":{"ha":833,"x_min":36,"x_max":801,"o":"m 332 -140 q 371 -140 351 -140 q 409 -140 390 -140 q 447 -140 428 -140 q 486 -140 467 -140 q 497 -144 493 -140 q 501 -156 501 -149 l 501 -292 q 463 -292 482 -292 q 424 -292 443 -292 q 386 -292 406 -292 q 347 -292 367 -292 q 336 -287 340 -292 q 332 -276 332 -283 l 332 -140 m 196 386 l 503 386 q 535 386 519 386 q 567 386 551 386 l 606 400 l 618 338 l 632 274 l 210 274 q 202 276 206 274 q 197 281 199 278 q 194 289 194 285 l 196 386 m 164 0 q 108 0 136 0 q 51 0 81 0 q 42 3 46 0 q 38 10 39 6 q 38 19 36 14 q 71 133 53 69 q 109 269 89 197 q 151 419 129 342 q 193 572 172 496 q 234 722 214 649 q 273 861 254 796 q 307 981 292 926 q 415 981 363 981 q 510 981 467 981 q 519 978 515 981 q 524 974 522 976 q 526 965 526 971 q 583 769 554 869 q 642 566 613 669 q 703 356 672 463 q 765 138 733 249 q 783 69 774 103 q 801 0 793 35 q 744 0 772 0 q 690 0 715 0 q 677 2 682 0 q 669 12 672 4 q 661 35 665 19 q 610 220 636 125 q 557 408 583 315 q 506 588 531 500 q 461 751 482 675 q 425 888 440 828 l 457 864 l 374 864 l 406 888 q 372 755 390 826 q 330 599 353 683 q 280 420 307 515 q 224 220 253 325 q 164 0 194 115 m 572 1307 q 611 1307 592 1307 q 650 1307 631 1307 q 668 1300 664 1307 q 668 1276 672 1293 q 623 1188 656 1228 q 543 1126 590 1149 q 438 1103 496 1103 l 396 1103 q 290 1126 338 1103 q 211 1188 243 1149 q 165 1276 179 1228 q 166 1300 163 1293 q 183 1307 169 1307 q 222 1307 203 1307 q 261 1307 242 1307 q 322 1229 285 1251 q 417 1207 358 1207 q 512 1229 475 1207 q 572 1307 549 1251 z "},"B":{"ha":833,"x_min":42,"x_max":738,"o":"m 461 0 q 371 0 422 0 q 270 0 319 0 q 185 0 221 0 q 140 0 149 0 q 129 4 133 0 q 125 15 125 8 q 125 240 125 131 q 125 457 125 350 q 125 674 125 564 q 125 900 125 783 l 264 900 l 254 876 q 254 769 254 819 q 254 664 254 719 q 254 528 254 596 q 254 392 254 460 q 254 256 254 325 q 254 114 254 186 q 317 114 288 114 q 374 114 346 114 q 435 114 403 114 q 533 132 496 114 q 589 183 571 150 q 607 263 607 217 l 607 301 q 589 372 607 342 q 527 420 571 403 q 404 438 483 438 l 193 438 l 197 521 l 568 521 l 568 488 q 694 419 651 471 q 738 285 738 367 l 738 247 q 703 108 738 163 q 607 26 669 53 q 461 0 544 0 m 42 972 q 237 972 139 972 q 432 972 335 972 q 567 956 511 972 q 658 908 624 939 q 709 835 693 876 q 725 747 725 794 l 725 714 q 706 615 725 657 q 648 545 686 574 q 553 503 610 517 q 422 489 497 489 q 310 489 360 489 q 214 489 260 489 l 197 476 l 193 549 q 300 549 247 549 q 406 549 353 549 q 523 567 482 549 q 580 619 564 585 q 596 696 596 653 l 596 731 q 588 782 596 760 q 564 819 581 804 q 513 848 546 838 q 433 858 481 858 q 308 858 371 858 q 183 858 246 858 q 57 858 119 858 q 46 863 50 858 q 42 874 42 867 q 42 923 42 900 q 42 972 42 946 z "},"C":{"ha":833,"x_min":90,"x_max":743,"o":"m 463 -28 q 301 -3 371 -28 q 185 70 232 22 q 114 187 138 118 q 90 343 90 256 l 90 635 q 114 786 90 719 q 185 901 138 853 q 300 974 232 949 q 454 1000 368 1000 q 578 988 524 1000 q 670 953 632 975 q 732 908 708 932 q 736 903 735 907 q 738 897 738 900 q 739 890 739 893 q 739 782 739 840 q 739 671 739 724 q 686 671 713 671 q 633 671 660 671 q 622 675 626 671 q 618 686 618 679 q 618 746 618 715 q 618 810 618 776 q 618 882 618 843 l 653 817 q 563 865 610 851 q 453 879 515 879 q 331 851 382 879 q 251 769 279 824 q 224 629 224 714 l 224 354 q 240 236 224 288 q 290 149 256 185 q 365 105 321 118 q 463 92 410 92 q 601 113 542 92 q 721 181 660 135 l 743 181 q 743 153 743 167 q 743 128 743 140 q 743 103 743 115 q 743 78 743 90 q 741 68 743 72 q 736 61 739 64 q 669 15 710 35 q 576 -16 629 -4 q 463 -28 524 -28 z "},"Ç":{"ha":833,"x_min":90,"x_max":743,"o":"m 463 -28 q 301 -3 371 -28 q 185 70 232 22 q 114 187 138 118 q 90 343 90 256 l 90 635 q 114 786 90 719 q 185 901 138 853 q 300 974 232 949 q 454 1000 368 1000 q 578 988 524 1000 q 670 953 632 975 q 732 908 708 932 q 736 903 735 907 q 738 897 738 900 q 739 890 739 893 q 739 782 739 840 q 739 671 739 724 q 686 671 713 671 q 633 671 660 671 q 622 675 626 671 q 618 686 618 679 q 618 746 618 715 q 618 810 618 776 q 618 882 618 843 l 653 817 q 563 865 610 851 q 453 879 515 879 q 331 851 382 879 q 251 769 279 824 q 224 629 224 714 l 224 354 q 240 236 224 288 q 290 149 256 185 q 365 105 321 118 q 463 92 410 92 q 601 113 542 92 q 721 181 660 135 l 743 181 q 743 153 743 167 q 743 128 743 140 q 743 103 743 115 q 743 78 743 90 q 741 68 743 72 q 736 61 739 64 q 669 15 710 35 q 576 -16 629 -4 q 463 -28 524 -28 m 603 -174 q 556 -283 603 -243 q 418 -322 508 -322 q 349 -317 375 -322 q 312 -301 324 -311 q 300 -282 300 -292 q 300 -251 300 -265 q 300 -225 300 -237 q 300 -203 300 -212 l 317 -203 q 353 -219 333 -212 q 407 -225 374 -225 q 467 -210 443 -225 q 490 -162 490 -194 q 471 -119 490 -133 q 401 -104 451 -104 q 390 -99 394 -104 q 388 -86 386 -94 q 397 -55 393 -69 q 406 -26 401 -40 q 415 3 411 -11 q 424 31 418 17 q 432 43 426 39 q 453 49 438 47 q 499 50 468 50 q 493 28 496 39 q 488 6 490 17 q 483 -16 486 -6 q 479 -36 481 -26 l 475 -51 q 569 -85 535 -54 q 603 -174 603 -117 z "},"Ć":{"ha":833,"x_min":90,"x_max":743,"o":"m 463 -28 q 301 -3 371 -28 q 185 70 232 22 q 114 187 138 118 q 90 343 90 256 l 90 635 q 114 786 90 719 q 185 901 138 853 q 300 974 232 949 q 454 1000 368 1000 q 578 988 524 1000 q 670 953 632 975 q 732 908 708 932 q 736 903 735 907 q 738 897 738 900 q 739 890 739 893 q 739 782 739 840 q 739 671 739 724 q 686 671 713 671 q 633 671 660 671 q 622 675 626 671 q 618 686 618 679 q 618 746 618 715 q 618 810 618 776 q 618 882 618 843 l 653 817 q 563 865 610 851 q 453 879 515 879 q 331 851 382 879 q 251 769 279 824 q 224 629 224 714 l 224 354 q 240 236 224 288 q 290 149 256 185 q 365 105 321 118 q 463 92 410 92 q 601 113 542 92 q 721 181 660 135 l 743 181 q 743 153 743 167 q 743 128 743 140 q 743 103 743 115 q 743 78 743 90 q 741 68 743 72 q 736 61 739 64 q 669 15 710 35 q 576 -16 629 -4 q 463 -28 524 -28 m 554 1313 q 607 1313 588 1313 q 643 1313 626 1313 q 689 1313 660 1313 q 701 1306 697 1313 q 697 1292 704 1299 q 653 1240 672 1263 q 617 1196 635 1217 q 578 1150 600 1175 q 524 1088 556 1125 q 515 1080 521 1083 q 500 1076 508 1076 q 461 1076 476 1076 q 432 1076 446 1076 q 403 1076 418 1076 q 454 1157 431 1119 q 502 1232 478 1194 q 554 1313 526 1269 z "},"Ĉ":{"ha":833,"x_min":90,"x_max":778,"o":"m 463 -28 q 301 -3 371 -28 q 185 70 232 22 q 114 187 138 118 q 90 343 90 256 l 90 635 q 114 786 90 719 q 185 901 138 853 q 300 974 232 949 q 454 1000 368 1000 q 578 988 524 1000 q 670 953 632 975 q 732 908 708 932 q 736 903 735 907 q 738 897 738 900 q 739 890 739 893 q 739 782 739 840 q 739 671 739 724 q 686 671 713 671 q 633 671 660 671 q 622 675 626 671 q 618 686 618 679 q 618 746 618 715 q 618 810 618 776 q 618 882 618 843 l 653 817 q 563 865 610 851 q 453 879 515 879 q 331 851 382 879 q 251 769 279 824 q 224 629 224 714 l 224 354 q 240 236 224 288 q 290 149 256 185 q 365 105 321 118 q 463 92 410 92 q 601 113 542 92 q 721 181 660 135 l 743 181 q 743 153 743 167 q 743 128 743 140 q 743 103 743 115 q 743 78 743 90 q 741 68 743 72 q 736 61 739 64 q 669 15 710 35 q 576 -16 629 -4 q 463 -28 524 -28 m 392 1314 q 428 1314 406 1314 q 473 1314 450 1314 q 508 1314 496 1314 q 527 1309 519 1314 q 556 1285 535 1304 q 592 1251 567 1275 q 649 1198 617 1228 q 715 1137 682 1168 q 778 1078 749 1106 q 721 1078 751 1079 q 665 1078 690 1078 q 643 1080 650 1078 q 625 1092 636 1082 q 553 1151 603 1110 q 431 1251 503 1192 l 504 1224 q 460 1224 482 1224 q 415 1224 438 1224 l 488 1253 q 367 1153 418 1194 q 276 1078 315 1111 l 171 1078 q 162 1079 165 1078 q 157 1083 158 1081 q 156 1088 156 1085 q 161 1099 156 1093 q 188 1125 167 1106 q 233 1166 206 1142 q 290 1219 260 1190 q 347 1272 319 1247 q 392 1314 374 1297 z "},"Ċ":{"ha":833,"x_min":90,"x_max":743,"o":"m 372 1261 q 412 1261 392 1261 q 452 1261 432 1261 q 492 1261 472 1261 q 532 1261 513 1261 q 543 1257 539 1261 q 547 1246 547 1253 l 547 1110 q 508 1110 528 1110 q 467 1110 488 1110 q 427 1110 447 1110 q 388 1110 407 1110 q 376 1114 381 1110 q 372 1125 372 1118 l 372 1261 m 463 -28 q 301 -3 371 -28 q 185 70 232 22 q 114 187 138 118 q 90 343 90 256 l 90 635 q 114 786 90 719 q 185 901 138 853 q 300 974 232 949 q 454 1000 368 1000 q 578 988 524 1000 q 670 953 632 975 q 732 908 708 932 q 736 903 735 907 q 738 897 738 900 q 739 890 739 893 q 739 782 739 840 q 739 671 739 724 q 686 671 713 671 q 633 671 660 671 q 622 675 626 671 q 618 686 618 679 q 618 746 618 715 q 618 810 618 776 q 618 882 618 843 l 653 817 q 563 865 610 851 q 453 879 515 879 q 331 851 382 879 q 251 769 279 824 q 224 629 224 714 l 224 354 q 240 236 224 288 q 290 149 256 185 q 365 105 321 118 q 463 92 410 92 q 601 113 542 92 q 721 181 660 135 l 743 181 q 743 153 743 167 q 743 128 743 140 q 743 103 743 115 q 743 78 743 90 q 741 68 743 72 q 736 61 739 64 q 669 15 710 35 q 576 -16 629 -4 q 463 -28 524 -28 z "},"Č":{"ha":833,"x_min":90,"x_max":764,"o":"m 463 -28 q 301 -3 371 -28 q 185 70 232 22 q 114 187 138 118 q 90 343 90 256 l 90 635 q 114 786 90 719 q 185 901 138 853 q 300 974 232 949 q 454 1000 368 1000 q 578 988 524 1000 q 670 953 632 975 q 732 908 708 932 q 736 903 735 907 q 738 897 738 900 q 739 890 739 893 q 739 782 739 840 q 739 671 739 724 q 686 671 713 671 q 633 671 660 671 q 622 675 626 671 q 618 686 618 679 q 618 746 618 715 q 618 810 618 776 q 618 882 618 843 l 653 817 q 563 865 610 851 q 453 879 515 879 q 331 851 382 879 q 251 769 279 824 q 224 629 224 714 l 224 354 q 240 236 224 288 q 290 149 256 185 q 365 105 321 118 q 463 92 410 92 q 601 113 542 92 q 721 181 660 135 l 743 181 q 743 153 743 167 q 743 128 743 140 q 743 103 743 115 q 743 78 743 90 q 741 68 743 72 q 736 61 739 64 q 669 15 710 35 q 576 -16 629 -4 q 463 -28 524 -28 m 528 1078 q 492 1078 514 1078 q 447 1078 469 1078 q 411 1078 424 1078 q 393 1083 401 1078 q 364 1106 385 1088 q 327 1140 353 1117 q 269 1194 301 1164 q 204 1255 238 1224 q 142 1314 171 1286 q 198 1313 167 1313 q 254 1314 229 1314 q 276 1311 269 1314 q 294 1300 283 1308 q 367 1241 317 1282 q 489 1139 417 1200 l 414 1167 q 460 1167 438 1167 q 504 1167 482 1167 l 432 1139 q 553 1240 503 1197 q 643 1314 604 1282 l 747 1314 q 758 1313 754 1314 q 763 1309 761 1311 q 764 1304 764 1307 q 759 1292 764 1299 q 732 1267 754 1286 q 687 1225 714 1250 q 629 1172 660 1200 q 572 1119 599 1144 q 528 1078 546 1094 z "},"Ḉ":{"ha":833,"x_min":90,"x_max":743,"o":"m 463 -28 q 301 -3 371 -28 q 185 70 232 22 q 114 187 138 118 q 90 343 90 256 l 90 635 q 114 786 90 719 q 185 901 138 853 q 300 974 232 949 q 454 1000 368 1000 q 578 988 524 1000 q 670 953 632 975 q 732 908 708 932 q 736 903 735 907 q 738 897 738 900 q 739 890 739 893 q 739 782 739 840 q 739 671 739 724 q 686 671 713 671 q 633 671 660 671 q 622 675 626 671 q 618 686 618 679 q 618 746 618 715 q 618 810 618 776 q 618 882 618 843 l 653 817 q 563 865 610 851 q 453 879 515 879 q 331 851 382 879 q 251 769 279 824 q 224 629 224 714 l 224 354 q 240 236 224 288 q 290 149 256 185 q 365 105 321 118 q 463 92 410 92 q 601 113 542 92 q 721 181 660 135 l 743 181 q 743 153 743 167 q 743 128 743 140 q 743 103 743 115 q 743 78 743 90 q 741 68 743 72 q 736 61 739 64 q 669 15 710 35 q 576 -16 629 -4 q 463 -28 524 -28 m 603 -174 q 556 -283 603 -243 q 418 -322 508 -322 q 349 -317 375 -322 q 312 -301 324 -311 q 300 -282 300 -292 q 300 -251 300 -265 q 300 -225 300 -237 q 300 -203 300 -212 l 317 -203 q 353 -219 333 -212 q 407 -225 374 -225 q 467 -210 443 -225 q 490 -162 490 -194 q 471 -119 490 -133 q 401 -104 451 -104 q 390 -99 394 -104 q 388 -86 386 -94 q 397 -55 393 -69 q 406 -26 401 -40 q 415 3 411 -11 q 424 31 418 17 q 432 43 426 39 q 453 49 438 47 q 499 50 468 50 q 493 28 496 39 q 488 6 490 17 q 483 -16 486 -6 q 479 -36 481 -26 l 475 -51 q 569 -85 535 -54 q 603 -174 603 -117 m 554 1313 q 607 1313 588 1313 q 643 1313 626 1313 q 689 1313 660 1313 q 701 1306 697 1313 q 697 1292 704 1299 q 653 1240 672 1263 q 617 1196 635 1217 q 578 1150 600 1175 q 524 1088 556 1125 q 515 1080 521 1083 q 500 1076 508 1076 q 461 1076 476 1076 q 432 1076 446 1076 q 403 1076 418 1076 q 454 1157 431 1119 q 502 1232 478 1194 q 554 1313 526 1269 z "},"D":{"ha":833,"x_min":42,"x_max":746,"o":"m 746 336 q 722 194 746 257 q 653 89 699 132 q 544 23 608 46 q 397 0 479 0 q 343 0 372 0 q 285 0 314 0 q 229 0 257 0 q 178 0 201 0 q 140 0 156 0 q 129 4 133 0 q 125 15 125 8 q 125 240 125 128 q 125 463 125 351 q 125 687 125 575 q 125 911 125 799 l 268 911 l 256 888 q 256 812 256 850 q 256 735 256 774 q 256 580 256 657 q 256 425 256 503 q 256 269 256 347 q 256 114 256 192 q 301 114 279 114 q 346 114 324 114 q 390 114 368 114 q 517 139 468 114 q 590 214 567 164 q 614 339 614 264 l 614 633 q 608 702 614 671 q 590 758 601 733 q 561 801 579 783 q 518 832 543 819 q 462 851 493 844 q 389 858 431 858 q 306 858 347 858 q 222 858 264 858 q 140 858 181 858 q 57 858 99 858 q 49 860 53 858 q 44 866 46 863 q 42 874 42 869 q 42 922 42 897 q 42 972 42 947 q 127 972 83 972 q 215 972 171 972 q 305 972 260 972 q 394 972 350 972 q 542 949 478 972 q 653 883 607 926 q 722 778 699 840 q 746 636 746 715 l 746 336 z "},"Ď":{"ha":833,"x_min":42,"x_max":746,"o":"m 464 1078 q 428 1078 451 1078 q 383 1078 406 1078 q 347 1078 361 1078 q 329 1083 338 1078 q 300 1106 321 1088 q 264 1140 289 1117 q 206 1192 239 1163 q 140 1254 174 1222 q 78 1313 107 1286 q 135 1313 104 1313 q 192 1313 165 1313 q 213 1310 207 1313 q 231 1299 219 1308 q 303 1240 253 1282 q 425 1139 353 1199 l 351 1167 q 396 1167 374 1167 q 440 1167 418 1167 l 368 1138 q 490 1239 439 1197 q 579 1313 542 1281 l 685 1313 q 694 1312 690 1313 q 699 1309 697 1311 q 700 1303 700 1307 q 695 1292 700 1297 q 668 1267 690 1286 q 623 1225 650 1250 q 566 1172 596 1200 q 509 1119 536 1144 q 464 1078 482 1093 m 746 336 q 722 194 746 257 q 653 89 699 132 q 544 23 608 46 q 397 0 479 0 q 343 0 372 0 q 285 0 314 0 q 229 0 257 0 q 178 0 201 0 q 140 0 156 0 q 129 4 133 0 q 125 15 125 8 q 125 240 125 128 q 125 463 125 351 q 125 687 125 575 q 125 911 125 799 l 268 911 l 256 888 q 256 812 256 850 q 256 735 256 774 q 256 580 256 657 q 256 425 256 503 q 256 269 256 347 q 256 114 256 192 q 301 114 279 114 q 346 114 324 114 q 390 114 368 114 q 517 139 468 114 q 590 214 567 164 q 614 339 614 264 l 614 633 q 608 702 614 671 q 590 758 601 733 q 561 800 579 783 q 518 832 543 819 q 462 851 493 844 q 389 858 431 858 q 306 858 347 858 q 222 858 264 858 q 140 858 181 858 q 57 858 99 858 q 49 860 53 858 q 44 866 46 863 q 42 874 42 869 q 42 922 42 897 q 42 972 42 947 q 127 972 83 972 q 215 972 171 972 q 305 972 260 972 q 394 972 350 972 q 542 949 478 972 q 653 883 607 926 q 722 778 699 840 q 746 636 746 715 l 746 336 z "},"Ḍ":{"ha":833,"x_min":42,"x_max":746,"o":"m 321 -140 q 360 -140 340 -140 q 398 -140 379 -140 q 436 -140 417 -140 q 475 -140 456 -140 q 486 -144 482 -140 q 490 -156 490 -149 l 490 -292 q 451 -292 471 -292 q 413 -292 432 -292 q 375 -292 394 -292 q 336 -292 356 -292 q 325 -287 329 -292 q 321 -276 321 -283 l 321 -140 m 746 336 q 722 194 746 257 q 653 89 699 132 q 544 23 608 46 q 397 0 479 0 q 343 0 372 0 q 285 0 314 0 q 229 0 257 0 q 178 0 201 0 q 140 0 156 0 q 129 4 133 0 q 125 15 125 8 q 125 240 125 128 q 125 463 125 351 q 125 687 125 575 q 125 911 125 799 l 268 911 l 256 888 q 256 812 256 850 q 256 735 256 774 q 256 580 256 657 q 256 425 256 503 q 256 269 256 347 q 256 114 256 192 q 301 114 279 114 q 346 114 324 114 q 390 114 368 114 q 517 139 468 114 q 590 214 567 164 q 614 339 614 264 l 614 633 q 608 702 614 671 q 590 758 601 733 q 561 801 579 783 q 518 832 543 819 q 462 851 493 844 q 389 858 431 858 q 306 858 347 858 q 222 858 264 858 q 140 858 181 858 q 57 858 99 858 q 49 860 53 858 q 44 866 46 863 q 42 874 42 869 q 42 922 42 897 q 42 972 42 947 q 127 972 83 972 q 215 972 171 972 q 305 972 260 972 q 394 972 350 972 q 542 949 478 972 q 653 883 607 926 q 722 778 699 840 q 746 636 746 715 l 746 336 z "},"Ḏ":{"ha":833,"x_min":42,"x_max":746,"o":"m 161 -106 l 636 -106 q 647 -110 643 -106 q 651 -121 651 -114 q 651 -153 651 -137 q 651 -185 651 -169 q 651 -218 651 -200 l 176 -218 q 169 -216 172 -218 q 163 -210 165 -214 q 161 -203 161 -207 q 161 -169 161 -185 q 161 -138 161 -154 q 161 -106 161 -122 m 746 336 q 722 194 746 257 q 653 89 699 132 q 544 23 608 46 q 397 0 479 0 q 343 0 372 0 q 285 0 314 0 q 229 0 257 0 q 178 0 201 0 q 140 0 156 0 q 129 4 133 0 q 125 15 125 8 q 125 240 125 128 q 125 463 125 351 q 125 687 125 575 q 125 911 125 799 l 268 911 l 256 888 q 256 812 256 850 q 256 735 256 774 q 256 580 256 657 q 256 425 256 503 q 256 269 256 347 q 256 114 256 192 q 301 114 279 114 q 346 114 324 114 q 390 114 368 114 q 517 139 468 114 q 590 214 567 164 q 614 339 614 264 l 614 633 q 608 702 614 671 q 590 758 601 733 q 561 801 579 783 q 518 832 543 819 q 462 851 493 844 q 389 858 431 858 q 306 858 347 858 q 222 858 264 858 q 140 858 181 858 q 57 858 99 858 q 49 860 53 858 q 44 866 46 863 q 42 874 42 869 q 42 922 42 897 q 42 972 42 947 q 127 972 83 972 q 215 972 171 972 q 305 972 260 972 q 394 972 350 972 q 542 949 478 972 q 653 883 607 926 q 722 778 699 840 q 746 636 746 715 l 746 336 z "},"E":{"ha":833,"x_min":42,"x_max":742,"o":"m 42 972 l 726 972 q 735 970 732 972 q 740 965 738 968 q 742 957 742 963 q 742 907 742 929 q 742 856 742 885 l 57 856 q 49 858 53 856 q 44 863 46 860 q 42 871 42 867 q 42 922 42 900 q 42 972 42 944 m 199 547 l 651 547 q 660 545 657 547 q 665 540 663 543 q 667 532 667 538 q 667 498 667 514 q 667 467 667 482 q 667 435 667 451 l 199 435 l 199 547 m 140 0 q 133 1 136 0 q 128 3 131 1 q 126 8 126 6 q 125 15 125 11 q 125 165 125 82 q 125 342 125 249 q 125 533 125 436 q 125 728 125 631 q 125 915 125 826 l 267 915 l 257 893 q 257 835 257 867 q 257 771 257 803 q 257 615 257 697 q 257 449 257 533 q 257 279 257 364 q 257 117 257 194 l 726 117 q 738 113 733 117 q 742 101 742 108 q 742 51 742 75 q 742 0 742 26 l 140 0 z "},"È":{"ha":833,"x_min":42,"x_max":742,"o":"m 42 972 l 726 972 q 735 970 732 972 q 740 965 738 968 q 742 957 742 963 q 742 907 742 929 q 742 856 742 885 l 57 856 q 49 858 53 856 q 44 863 46 860 q 42 871 42 867 q 42 922 42 900 q 42 972 42 944 m 199 547 l 651 547 q 660 545 657 547 q 665 540 663 543 q 667 532 667 538 q 667 498 667 514 q 667 467 667 482 q 667 435 667 451 l 199 435 l 199 547 m 140 0 q 133 1 136 0 q 128 3 131 1 q 126 8 126 6 q 125 15 125 11 q 125 165 125 82 q 125 342 125 249 q 125 533 125 436 q 125 728 125 631 q 125 915 125 826 l 267 915 l 257 893 q 257 835 257 867 q 257 771 257 803 q 257 615 257 697 q 257 449 257 533 q 257 279 257 364 q 257 117 257 194 l 726 117 q 738 113 733 117 q 742 101 742 108 q 742 51 742 75 q 742 0 742 26 l 140 0 m 328 1313 q 379 1232 356 1269 q 427 1157 403 1194 q 476 1076 451 1119 q 446 1076 460 1076 q 415 1076 432 1076 q 375 1076 399 1076 q 360 1080 367 1076 q 351 1088 354 1083 q 297 1150 318 1125 q 258 1196 275 1175 q 222 1240 240 1217 q 176 1292 203 1263 q 174 1306 171 1299 q 186 1313 178 1313 q 234 1313 215 1313 q 274 1313 253 1313 q 328 1313 294 1313 z "},"É":{"ha":833,"x_min":42,"x_max":742,"o":"m 42 972 l 726 972 q 735 970 732 972 q 740 965 738 968 q 742 957 742 963 q 742 907 742 929 q 742 856 742 885 l 57 856 q 49 858 53 856 q 44 863 46 860 q 42 871 42 867 q 42 922 42 900 q 42 972 42 944 m 199 547 l 651 547 q 660 545 657 547 q 665 540 663 543 q 667 532 667 538 q 667 498 667 514 q 667 467 667 482 q 667 435 667 451 l 199 435 l 199 547 m 140 0 q 133 1 136 0 q 128 3 131 1 q 126 8 126 6 q 125 15 125 11 q 125 165 125 82 q 125 342 125 249 q 125 533 125 436 q 125 728 125 631 q 125 915 125 826 l 267 915 l 257 893 q 257 835 257 867 q 257 771 257 803 q 257 615 257 697 q 257 449 257 533 q 257 279 257 364 q 257 117 257 194 l 726 117 q 738 113 733 117 q 742 101 742 108 q 742 51 742 75 q 742 0 742 26 l 140 0 m 511 1313 q 564 1313 544 1313 q 600 1313 583 1313 q 646 1313 617 1313 q 658 1306 654 1313 q 654 1292 661 1299 q 610 1240 629 1263 q 574 1196 592 1217 q 535 1150 557 1175 q 481 1088 513 1125 q 472 1080 478 1083 q 457 1076 465 1076 q 418 1076 433 1076 q 389 1076 403 1076 q 360 1076 375 1076 q 411 1157 388 1119 q 459 1232 435 1194 q 511 1313 483 1269 z "},"Ê":{"ha":833,"x_min":42,"x_max":742,"o":"m 42 972 l 726 972 q 735 970 732 972 q 740 965 738 968 q 742 957 742 963 q 742 907 742 929 q 742 856 742 885 l 57 856 q 49 858 53 856 q 44 863 46 860 q 42 871 42 867 q 42 922 42 900 q 42 972 42 944 m 199 547 l 651 547 q 660 545 657 547 q 665 540 663 543 q 667 532 667 538 q 667 498 667 514 q 667 467 667 482 q 667 435 667 451 l 199 435 l 199 547 m 140 0 q 133 1 136 0 q 128 3 131 1 q 126 8 126 6 q 125 15 125 11 q 125 165 125 82 q 125 342 125 249 q 125 533 125 436 q 125 728 125 631 q 125 915 125 826 l 267 915 l 257 893 q 257 835 257 867 q 257 771 257 803 q 257 615 257 697 q 257 449 257 533 q 257 279 257 364 q 257 117 257 194 l 726 117 q 738 113 733 117 q 742 101 742 108 q 742 51 742 75 q 742 0 742 26 l 140 0 m 349 1314 q 385 1314 363 1314 q 430 1314 407 1314 q 465 1314 453 1314 q 484 1309 476 1314 q 513 1285 492 1304 q 549 1251 524 1275 q 606 1198 574 1228 q 672 1137 639 1168 q 735 1078 706 1106 q 678 1078 708 1079 q 622 1078 647 1078 q 600 1080 607 1078 q 582 1092 593 1082 q 510 1151 560 1110 q 388 1251 460 1192 l 461 1224 q 417 1224 439 1224 q 372 1224 394 1224 l 444 1253 q 324 1153 375 1194 q 233 1078 272 1111 l 128 1078 q 119 1079 122 1078 q 114 1083 115 1081 q 113 1088 113 1085 q 118 1099 113 1093 q 144 1125 124 1106 q 190 1166 163 1142 q 247 1219 217 1190 q 303 1272 276 1247 q 349 1314 331 1297 z "},"Ë":{"ha":833,"x_min":42,"x_max":742,"o":"m 42 972 l 726 972 q 735 970 732 972 q 740 965 738 968 q 742 957 742 963 q 742 907 742 929 q 742 856 742 885 l 57 856 q 49 858 53 856 q 44 863 46 860 q 42 871 42 867 q 42 922 42 900 q 42 972 42 944 m 199 547 l 651 547 q 660 545 657 547 q 665 540 663 543 q 667 532 667 538 q 667 498 667 514 q 667 467 667 482 q 667 435 667 451 l 199 435 l 199 547 m 140 0 q 133 1 136 0 q 128 3 131 1 q 126 8 126 6 q 125 15 125 11 q 125 165 125 82 q 125 342 125 249 q 125 533 125 436 q 125 728 125 631 q 125 915 125 826 l 267 915 l 257 893 q 257 835 257 867 q 257 771 257 803 q 257 615 257 697 q 257 449 257 533 q 257 279 257 364 q 257 117 257 194 l 726 117 q 738 113 733 117 q 742 101 742 108 q 742 51 742 75 q 742 0 742 26 l 140 0 m 194 1261 q 265 1261 229 1261 q 335 1261 300 1261 q 343 1259 340 1261 q 348 1254 346 1257 q 350 1246 350 1251 l 350 1111 q 280 1111 315 1111 q 210 1111 244 1111 q 202 1113 206 1111 q 197 1119 199 1115 q 194 1126 194 1122 l 194 1261 m 483 1261 q 553 1261 518 1261 q 624 1261 589 1261 q 632 1259 629 1261 q 637 1254 635 1257 q 639 1246 639 1251 l 639 1111 q 569 1111 604 1111 q 499 1111 533 1111 q 491 1113 494 1111 q 485 1119 488 1115 q 483 1126 483 1122 l 483 1261 z "},"Ē":{"ha":833,"x_min":42,"x_max":742,"o":"m 42 972 l 726 972 q 735 970 732 972 q 740 965 738 968 q 742 957 742 963 q 742 907 742 929 q 742 856 742 885 l 57 856 q 49 858 53 856 q 44 863 46 860 q 42 871 42 867 q 42 922 42 900 q 42 972 42 944 m 199 547 l 651 547 q 660 545 657 547 q 665 540 663 543 q 667 532 667 538 q 667 498 667 514 q 667 467 667 482 q 667 435 667 451 l 199 435 l 199 547 m 140 0 q 133 1 136 0 q 128 3 131 1 q 126 8 126 6 q 125 15 125 11 q 125 165 125 82 q 125 342 125 249 q 125 533 125 436 q 125 728 125 631 q 125 915 125 826 l 267 915 l 257 893 q 257 835 257 867 q 257 771 257 803 q 257 615 257 697 q 257 449 257 533 q 257 279 257 364 q 257 117 257 194 l 726 117 q 738 113 733 117 q 742 101 742 108 q 742 51 742 75 q 742 0 742 26 l 140 0 m 172 1232 l 646 1232 q 657 1228 653 1232 q 661 1217 661 1224 q 661 1169 661 1193 q 661 1121 661 1146 l 188 1121 q 180 1123 183 1121 q 174 1128 176 1125 q 172 1136 172 1132 q 172 1185 172 1161 q 172 1232 172 1208 z "},"Ĕ":{"ha":833,"x_min":42,"x_max":742,"o":"m 42 972 l 726 972 q 735 970 732 972 q 740 965 738 968 q 742 957 742 963 q 742 907 742 929 q 742 856 742 885 l 57 856 q 49 858 53 856 q 44 863 46 860 q 42 871 42 867 q 42 922 42 900 q 42 972 42 944 m 199 547 l 651 547 q 660 545 657 547 q 665 540 663 543 q 667 532 667 538 q 667 498 667 514 q 667 467 667 482 q 667 435 667 451 l 199 435 l 199 547 m 140 0 q 133 1 136 0 q 128 3 131 1 q 126 8 126 6 q 125 15 125 11 q 125 165 125 82 q 125 342 125 249 q 125 533 125 436 q 125 728 125 631 q 125 915 125 826 l 267 915 l 257 893 q 257 835 257 867 q 257 771 257 803 q 257 615 257 697 q 257 449 257 533 q 257 279 257 364 q 257 117 257 194 l 726 117 q 738 113 733 117 q 742 101 742 108 q 742 51 742 75 q 742 0 742 26 l 140 0 m 572 1307 q 611 1307 592 1307 q 650 1307 631 1307 q 668 1300 664 1307 q 668 1278 672 1293 q 623 1190 656 1229 q 543 1126 590 1150 q 438 1103 496 1103 l 396 1103 q 290 1126 338 1103 q 211 1190 243 1150 q 165 1278 179 1229 q 166 1300 163 1293 q 183 1307 169 1307 q 222 1307 203 1307 q 261 1307 242 1307 q 322 1231 285 1253 q 417 1208 358 1208 q 512 1231 475 1208 q 572 1307 549 1253 z "},"Ė":{"ha":833,"x_min":42,"x_max":742,"o":"m 329 1261 q 369 1261 349 1261 q 409 1261 389 1261 q 449 1261 429 1261 q 489 1261 469 1261 q 500 1257 496 1261 q 504 1246 504 1253 l 504 1110 q 465 1110 485 1110 q 424 1110 444 1110 q 384 1110 404 1110 q 344 1110 364 1110 q 333 1114 338 1110 q 329 1125 329 1118 l 329 1261 m 42 972 l 726 972 q 735 970 732 972 q 740 965 738 968 q 742 957 742 963 q 742 907 742 929 q 742 856 742 885 l 57 856 q 49 858 53 856 q 44 863 46 860 q 42 871 42 867 q 42 922 42 900 q 42 972 42 944 m 199 547 l 651 547 q 660 545 657 547 q 665 540 663 543 q 667 532 667 538 q 667 498 667 514 q 667 467 667 482 q 667 435 667 451 l 199 435 l 199 547 m 140 0 q 133 1 136 0 q 128 3 131 1 q 126 8 126 6 q 125 15 125 11 q 125 165 125 82 q 125 342 125 249 q 125 533 125 436 q 125 728 125 631 q 125 915 125 826 l 267 915 l 257 893 q 257 835 257 867 q 257 771 257 803 q 257 615 257 697 q 257 449 257 533 q 257 279 257 364 q 257 117 257 194 l 726 117 q 738 113 733 117 q 742 101 742 108 q 742 51 742 75 q 742 0 742 26 l 140 0 z "},"Ę":{"ha":833,"x_min":42,"x_max":742,"o":"m 42 972 l 726 972 q 735 970 732 972 q 740 965 738 968 q 742 957 742 963 q 742 907 742 929 q 742 856 742 885 l 57 856 q 49 858 53 856 q 44 863 46 860 q 42 871 42 867 q 42 922 42 900 q 42 972 42 944 m 199 547 l 651 547 q 660 545 657 547 q 665 540 663 543 q 667 532 667 538 q 667 498 667 514 q 667 467 667 482 q 667 435 667 451 l 199 435 l 199 547 m 140 0 q 133 1 136 0 q 128 3 131 1 q 126 8 126 6 q 125 15 125 11 q 125 165 125 82 q 125 342 125 249 q 125 533 125 436 q 125 728 125 631 q 125 915 125 826 l 267 915 l 257 893 q 257 835 257 867 q 257 771 257 803 q 257 615 257 697 q 257 449 257 533 q 257 279 257 364 q 257 117 257 194 l 726 117 q 738 113 733 117 q 742 101 742 108 q 742 51 742 75 q 742 0 742 26 l 140 0 m 663 42 q 694 34 675 43 q 742 0 713 25 q 739 -9 742 -6 q 725 -15 736 -12 q 593 -74 631 -37 q 556 -154 556 -111 q 577 -208 556 -190 q 632 -226 599 -226 q 676 -219 657 -226 q 715 -200 696 -212 l 736 -200 q 736 -222 736 -210 q 736 -253 736 -235 q 736 -300 736 -271 q 704 -333 736 -318 q 624 -347 672 -347 q 488 -304 538 -347 q 438 -186 438 -261 q 472 -69 438 -118 q 558 7 507 -21 q 663 42 610 35 z "},"Ě":{"ha":833,"x_min":42,"x_max":742,"o":"m 485 1078 q 449 1078 471 1078 q 403 1078 426 1078 q 368 1078 381 1078 q 350 1083 358 1078 q 321 1106 342 1088 q 284 1140 310 1117 q 226 1192 258 1163 q 161 1254 194 1222 q 99 1313 128 1286 q 155 1313 124 1313 q 211 1313 186 1313 q 233 1310 226 1313 q 251 1299 240 1308 q 324 1240 274 1282 q 446 1139 374 1199 l 371 1167 q 417 1167 394 1167 q 461 1167 439 1167 l 389 1138 q 510 1239 460 1197 q 600 1313 561 1281 l 704 1313 q 715 1312 711 1313 q 719 1309 718 1311 q 721 1303 721 1307 q 716 1292 721 1297 q 689 1267 711 1286 q 644 1225 671 1250 q 586 1172 617 1200 q 529 1119 556 1144 q 485 1078 503 1093 m 42 972 l 726 972 q 735 970 732 972 q 740 965 738 968 q 742 957 742 963 q 742 907 742 929 q 742 856 742 885 l 57 856 q 49 858 53 856 q 44 863 46 860 q 42 871 42 867 q 42 922 42 900 q 42 972 42 944 m 199 547 l 651 547 q 660 546 657 547 q 665 541 663 544 q 667 532 667 538 q 667 498 667 514 q 667 467 667 482 q 667 435 667 451 l 199 435 l 199 547 m 140 0 q 133 1 136 0 q 128 3 131 1 q 126 8 126 6 q 125 15 125 11 q 125 165 125 82 q 125 342 125 249 q 125 533 125 436 q 125 728 125 631 q 125 915 125 826 l 267 915 l 257 893 q 257 835 257 867 q 257 771 257 803 q 257 615 257 697 q 257 449 257 533 q 257 279 257 364 q 257 117 257 194 l 726 117 q 738 113 733 117 q 742 101 742 108 q 742 51 742 75 q 742 0 742 26 l 140 0 z "},"Ȅ":{"ha":833,"x_min":42,"x_max":742,"o":"m 213 1313 q 264 1232 240 1269 q 312 1157 288 1194 q 361 1076 336 1119 q 331 1076 346 1076 q 300 1076 317 1076 q 260 1076 283 1076 q 246 1080 251 1076 q 238 1088 240 1083 q 183 1150 204 1125 q 144 1196 161 1175 q 107 1240 126 1217 q 63 1292 88 1263 q 60 1306 57 1299 q 72 1313 64 1313 q 119 1313 100 1313 q 159 1313 138 1313 q 213 1313 181 1313 m 478 1313 q 529 1232 506 1269 q 577 1157 553 1194 q 626 1076 601 1119 q 597 1076 611 1076 q 565 1076 582 1076 q 525 1076 549 1076 q 510 1080 517 1076 q 501 1088 504 1083 q 447 1150 469 1125 q 408 1196 425 1175 q 372 1240 390 1217 q 328 1292 353 1263 q 325 1306 322 1299 q 336 1313 328 1313 q 384 1313 365 1313 q 424 1313 403 1313 q 478 1313 446 1313 m 42 972 l 726 972 q 735 970 732 972 q 740 965 738 968 q 742 957 742 963 q 742 907 742 929 q 742 856 742 885 l 57 856 q 49 858 53 856 q 44 863 46 860 q 42 871 42 867 q 42 922 42 900 q 42 972 42 944 m 199 547 l 651 547 q 660 546 657 547 q 665 541 663 544 q 667 532 667 538 q 667 498 667 514 q 667 467 667 482 q 667 435 667 451 l 199 435 l 199 547 m 140 0 q 133 1 136 0 q 128 3 131 1 q 126 8 126 6 q 125 15 125 11 q 125 165 125 82 q 125 342 125 249 q 125 533 125 436 q 125 728 125 631 q 125 915 125 826 l 267 915 l 257 893 q 257 835 257 867 q 257 771 257 803 q 257 615 257 697 q 257 449 257 533 q 257 279 257 364 q 257 117 257 194 l 726 117 q 738 113 733 117 q 742 101 742 108 q 742 51 742 75 q 742 0 742 26 l 140 0 z "},"Ȇ":{"ha":833,"x_min":42,"x_max":742,"o":"m 261 1094 q 222 1094 242 1094 q 183 1094 203 1094 q 166 1101 169 1094 q 165 1124 163 1107 q 211 1213 179 1174 q 290 1275 243 1251 q 396 1299 338 1299 l 438 1299 q 543 1275 496 1299 q 623 1213 590 1251 q 668 1124 656 1174 q 668 1101 672 1107 q 650 1094 664 1094 q 611 1094 631 1094 q 572 1094 592 1094 q 512 1171 549 1149 q 417 1193 475 1193 q 322 1171 358 1193 q 261 1094 285 1149 m 42 972 l 726 972 q 735 970 732 972 q 740 965 738 968 q 742 957 742 963 q 742 907 742 929 q 742 856 742 885 l 57 856 q 49 858 53 856 q 44 863 46 860 q 42 871 42 867 q 42 922 42 900 q 42 972 42 944 m 199 547 l 651 547 q 660 546 657 547 q 665 541 663 544 q 667 532 667 538 q 667 498 667 514 q 667 467 667 482 q 667 435 667 451 l 199 435 l 199 547 m 140 0 q 133 1 136 0 q 128 3 131 1 q 126 8 126 6 q 125 15 125 11 q 125 165 125 82 q 125 342 125 249 q 125 533 125 436 q 125 728 125 631 q 125 915 125 826 l 267 915 l 257 893 q 257 835 257 867 q 257 771 257 803 q 257 615 257 697 q 257 449 257 533 q 257 279 257 364 q 257 117 257 194 l 726 117 q 738 113 733 117 q 742 101 742 108 q 742 51 742 75 q 742 0 742 26 l 140 0 z "},"Ḕ":{"ha":833,"x_min":42,"x_max":742,"o":"m 42 972 l 726 972 q 735 970 732 972 q 740 965 738 968 q 742 957 742 963 q 742 907 742 929 q 742 856 742 885 l 57 856 q 49 858 53 856 q 44 863 46 860 q 42 871 42 867 q 42 922 42 900 q 42 972 42 944 m 199 547 l 651 547 q 660 545 657 547 q 665 540 663 543 q 667 532 667 538 q 667 498 667 514 q 667 467 667 482 q 667 435 667 451 l 199 435 l 199 547 m 140 0 q 133 1 136 0 q 128 3 131 1 q 126 8 126 6 q 125 15 125 11 q 125 165 125 82 q 125 342 125 249 q 125 533 125 436 q 125 728 125 631 q 125 915 125 826 l 267 915 l 257 893 q 257 835 257 867 q 257 771 257 803 q 257 615 257 697 q 257 449 257 533 q 257 279 257 364 q 257 117 257 194 l 726 117 q 738 113 733 117 q 742 101 742 108 q 742 51 742 75 q 742 0 742 26 l 140 0 m 172 1232 l 646 1232 q 657 1228 653 1232 q 661 1217 661 1224 q 661 1169 661 1193 q 661 1121 661 1146 l 188 1121 q 180 1123 183 1121 q 174 1128 176 1125 q 172 1136 172 1132 q 172 1185 172 1161 q 172 1232 172 1208 m 328 1522 q 379 1442 356 1479 q 427 1367 403 1404 q 476 1286 451 1329 q 446 1286 460 1286 q 415 1286 432 1286 q 375 1286 399 1286 q 360 1290 367 1286 q 351 1297 354 1293 q 297 1360 318 1335 q 258 1406 275 1385 q 222 1449 240 1426 q 176 1501 203 1472 q 174 1515 171 1508 q 186 1522 178 1522 q 234 1522 215 1522 q 274 1522 253 1522 q 328 1522 294 1522 z "},"Ḗ":{"ha":833,"x_min":42,"x_max":742,"o":"m 42 972 l 726 972 q 735 970 732 972 q 740 965 738 968 q 742 957 742 963 q 742 907 742 929 q 742 856 742 885 l 57 856 q 49 858 53 856 q 44 863 46 860 q 42 871 42 867 q 42 922 42 900 q 42 972 42 944 m 199 547 l 651 547 q 660 545 657 547 q 665 540 663 543 q 667 532 667 538 q 667 498 667 514 q 667 467 667 482 q 667 435 667 451 l 199 435 l 199 547 m 140 0 q 133 1 136 0 q 128 3 131 1 q 126 8 126 6 q 125 15 125 11 q 125 165 125 82 q 125 342 125 249 q 125 533 125 436 q 125 728 125 631 q 125 915 125 826 l 267 915 l 257 893 q 257 835 257 867 q 257 771 257 803 q 257 615 257 697 q 257 449 257 533 q 257 279 257 364 q 257 117 257 194 l 726 117 q 738 113 733 117 q 742 101 742 108 q 742 51 742 75 q 742 0 742 26 l 140 0 m 172 1232 l 646 1232 q 657 1228 653 1232 q 661 1217 661 1224 q 661 1169 661 1193 q 661 1121 661 1146 l 188 1121 q 180 1123 183 1121 q 174 1128 176 1125 q 172 1136 172 1132 q 172 1185 172 1161 q 172 1232 172 1208 m 511 1522 q 564 1522 544 1522 q 600 1522 583 1522 q 646 1522 617 1522 q 658 1515 654 1522 q 654 1501 661 1508 q 610 1449 629 1472 q 574 1406 592 1426 q 535 1360 557 1385 q 481 1297 513 1335 q 472 1290 478 1293 q 457 1286 465 1286 q 418 1286 433 1286 q 389 1286 403 1286 q 360 1286 375 1286 q 411 1367 388 1329 q 459 1442 435 1404 q 511 1522 483 1479 z "},"Ḝ":{"ha":833,"x_min":42,"x_max":742,"o":"m 42 972 l 726 972 q 735 970 732 972 q 740 965 738 968 q 742 957 742 963 q 742 907 742 929 q 742 856 742 885 l 57 856 q 49 858 53 856 q 44 863 46 860 q 42 871 42 867 q 42 922 42 900 q 42 972 42 944 m 199 547 l 651 547 q 660 545 657 547 q 665 540 663 543 q 667 532 667 538 q 667 498 667 514 q 667 467 667 482 q 667 435 667 451 l 199 435 l 199 547 m 140 0 q 133 1 136 0 q 128 3 131 1 q 126 8 126 6 q 125 15 125 11 q 125 165 125 82 q 125 342 125 249 q 125 533 125 436 q 125 728 125 631 q 125 915 125 826 l 267 915 l 257 893 q 257 835 257 867 q 257 771 257 803 q 257 615 257 697 q 257 449 257 533 q 257 279 257 364 q 257 117 257 194 l 726 117 q 738 113 733 117 q 742 101 742 108 q 742 51 742 75 q 742 0 742 26 l 140 0 m 590 -174 q 543 -283 590 -243 q 406 -322 496 -322 q 337 -317 363 -322 q 299 -301 311 -311 q 288 -282 288 -292 q 288 -251 288 -265 q 288 -225 288 -237 q 288 -203 288 -212 l 304 -203 q 341 -219 321 -212 q 394 -225 361 -225 q 454 -210 431 -225 q 478 -162 478 -194 q 458 -119 478 -133 q 389 -104 439 -104 q 378 -99 382 -104 q 375 -86 374 -94 q 385 -55 381 -69 q 394 -26 389 -40 q 402 3 399 -11 q 411 31 406 17 q 419 43 414 39 q 440 49 425 47 q 486 50 456 50 q 481 28 483 39 q 476 6 478 17 q 471 -16 474 -6 q 467 -36 468 -26 l 463 -51 q 556 -85 522 -54 q 590 -174 590 -117 m 572 1307 q 611 1307 592 1307 q 650 1307 631 1307 q 668 1300 664 1307 q 668 1278 672 1293 q 623 1190 656 1229 q 543 1126 590 1150 q 438 1103 496 1103 l 396 1103 q 290 1126 338 1103 q 211 1190 243 1150 q 165 1278 179 1229 q 166 1300 163 1293 q 183 1307 169 1307 q 222 1307 203 1307 q 261 1307 242 1307 q 322 1231 285 1253 q 417 1208 358 1208 q 512 1231 475 1208 q 572 1307 549 1253 z "},"Ẹ":{"ha":833,"x_min":42,"x_max":742,"o":"m 42 972 l 726 972 q 735 970 732 972 q 740 965 738 968 q 742 957 742 963 q 742 907 742 929 q 742 856 742 885 l 57 856 q 49 858 53 856 q 44 863 46 860 q 42 871 42 867 q 42 922 42 900 q 42 972 42 944 m 199 547 l 651 547 q 660 545 657 547 q 665 540 663 543 q 667 532 667 538 q 667 498 667 514 q 667 467 667 482 q 667 435 667 451 l 199 435 l 199 547 m 140 0 q 133 1 136 0 q 128 3 131 1 q 126 8 126 6 q 125 15 125 11 q 125 165 125 82 q 125 342 125 249 q 125 533 125 436 q 125 728 125 631 q 125 915 125 826 l 267 915 l 257 893 q 257 835 257 867 q 257 771 257 803 q 257 615 257 697 q 257 449 257 533 q 257 279 257 364 q 257 117 257 194 l 726 117 q 738 113 733 117 q 742 101 742 108 q 742 51 742 75 q 742 0 742 26 l 140 0 m 360 -140 q 399 -140 379 -140 q 437 -140 418 -140 q 475 -140 456 -140 q 514 -140 494 -140 q 525 -144 521 -140 q 529 -156 529 -149 l 529 -292 q 490 -292 510 -292 q 452 -292 471 -292 q 414 -292 433 -292 q 375 -292 394 -292 q 364 -287 368 -292 q 360 -276 360 -283 l 360 -140 z "},"Ẻ":{"ha":833,"x_min":42,"x_max":742,"o":"m 42 972 l 726 972 q 735 970 732 972 q 740 965 738 968 q 742 957 742 963 q 742 907 742 929 q 742 856 742 885 l 57 856 q 49 858 53 856 q 44 863 46 860 q 42 871 42 867 q 42 922 42 900 q 42 972 42 944 m 199 547 l 651 547 q 660 545 657 547 q 665 540 663 543 q 667 532 667 538 q 667 498 667 514 q 667 467 667 482 q 667 435 667 451 l 199 435 l 199 547 m 140 0 q 133 1 136 0 q 128 3 131 1 q 126 8 126 6 q 125 15 125 11 q 125 165 125 82 q 125 342 125 249 q 125 533 125 436 q 125 728 125 631 q 125 915 125 826 l 267 915 l 257 893 q 257 835 257 867 q 257 771 257 803 q 257 615 257 697 q 257 449 257 533 q 257 279 257 364 q 257 117 257 194 l 726 117 q 738 113 733 117 q 742 101 742 108 q 742 51 742 75 q 742 0 742 26 l 140 0 m 360 1075 q 381 1105 369 1090 q 403 1136 393 1119 q 420 1162 411 1149 q 438 1189 429 1175 q 438 1196 438 1192 q 438 1206 438 1200 q 413 1206 428 1206 q 386 1206 399 1206 q 347 1206 374 1206 q 301 1206 319 1206 l 271 1206 q 271 1247 271 1231 q 271 1281 271 1263 q 275 1292 271 1288 q 286 1296 279 1296 q 338 1296 306 1296 q 408 1296 371 1296 q 483 1296 446 1296 q 547 1296 519 1296 q 556 1294 553 1296 q 562 1290 560 1293 q 564 1281 564 1286 l 564 1208 q 549 1185 564 1207 q 511 1132 533 1163 q 481 1093 496 1113 q 453 1057 465 1074 q 423 1057 439 1057 q 392 1057 407 1057 q 364 1057 376 1057 q 354 1063 354 1057 q 360 1075 354 1068 z "},"Ẽ":{"ha":833,"x_min":42,"x_max":742,"o":"m 42 972 l 726 972 q 735 970 732 972 q 740 965 738 968 q 742 957 742 963 q 742 907 742 929 q 742 856 742 885 l 57 856 q 49 858 53 856 q 44 863 46 860 q 42 871 42 867 q 42 922 42 900 q 42 972 42 944 m 199 547 l 651 547 q 660 545 657 547 q 665 540 663 543 q 667 532 667 538 q 667 498 667 514 q 667 467 667 482 q 667 435 667 451 l 199 435 l 199 547 m 140 0 q 133 1 136 0 q 128 3 131 1 q 126 8 126 6 q 125 15 125 11 q 125 165 125 82 q 125 342 125 249 q 125 533 125 436 q 125 728 125 631 q 125 915 125 826 l 267 915 l 257 893 q 257 835 257 867 q 257 771 257 803 q 257 615 257 697 q 257 449 257 533 q 257 279 257 364 q 257 117 257 194 l 726 117 q 738 113 733 117 q 742 101 742 108 q 742 51 742 75 q 742 0 742 26 l 140 0 m 549 1204 q 608 1219 583 1204 q 660 1264 633 1233 l 679 1264 q 679 1217 679 1240 q 679 1172 679 1194 q 678 1160 679 1165 q 669 1147 676 1154 q 619 1110 647 1125 q 546 1096 590 1096 q 473 1109 507 1096 q 408 1138 439 1122 q 347 1167 378 1154 q 285 1181 317 1181 q 225 1166 250 1181 q 174 1119 200 1151 l 154 1119 q 154 1167 154 1143 q 154 1211 154 1190 q 156 1224 154 1218 q 164 1238 157 1229 q 215 1274 186 1260 q 288 1289 243 1289 q 360 1276 326 1289 q 426 1246 394 1263 q 487 1217 457 1229 q 549 1204 517 1204 z "},"Ế":{"ha":833,"x_min":42,"x_max":883,"o":"m 42 972 l 726 972 q 735 970 732 972 q 740 965 738 968 q 742 957 742 963 q 742 907 742 929 q 742 856 742 885 l 57 856 q 49 858 53 856 q 44 863 46 860 q 42 871 42 867 q 42 922 42 900 q 42 972 42 944 m 199 547 l 651 547 q 660 545 657 547 q 665 540 663 543 q 667 532 667 538 q 667 498 667 514 q 667 467 667 482 q 667 435 667 451 l 199 435 l 199 547 m 140 0 q 133 1 136 0 q 128 3 131 1 q 126 8 126 6 q 125 15 125 11 q 125 165 125 82 q 125 342 125 249 q 125 533 125 436 q 125 728 125 631 q 125 915 125 826 l 267 915 l 257 893 q 257 835 257 867 q 257 771 257 803 q 257 615 257 697 q 257 449 257 533 q 257 279 257 364 q 257 117 257 194 l 726 117 q 738 113 733 117 q 742 101 742 108 q 742 51 742 75 q 742 0 742 26 l 140 0 m 349 1314 q 385 1314 363 1314 q 430 1314 407 1314 q 465 1314 453 1314 q 484 1309 476 1314 q 513 1285 492 1304 q 549 1251 524 1275 q 606 1198 574 1228 q 672 1137 639 1168 q 735 1078 706 1106 q 678 1078 708 1079 q 622 1078 647 1078 q 600 1080 607 1078 q 582 1092 593 1082 q 510 1151 560 1110 q 388 1251 460 1192 l 461 1224 q 417 1224 439 1224 q 372 1224 394 1224 l 444 1253 q 324 1153 375 1194 q 233 1078 272 1111 l 128 1078 q 119 1079 122 1078 q 114 1083 115 1081 q 113 1088 113 1085 q 118 1099 113 1093 q 144 1125 124 1106 q 190 1166 163 1142 q 247 1219 217 1190 q 303 1272 276 1247 q 349 1314 331 1297 m 750 1469 q 792 1469 772 1469 q 831 1469 811 1469 q 869 1469 850 1469 q 881 1463 878 1469 q 878 1449 883 1457 q 831 1379 853 1411 q 788 1318 808 1347 q 746 1256 768 1289 q 736 1246 742 1249 q 721 1243 731 1243 q 683 1243 697 1243 q 657 1243 669 1243 q 629 1243 644 1243 q 670 1321 651 1286 q 708 1391 689 1356 q 750 1469 728 1426 z "},"Ề":{"ha":833,"x_min":42,"x_max":743,"o":"m 42 972 l 726 972 q 735 970 732 972 q 740 965 738 968 q 742 957 742 963 q 742 907 742 929 q 742 856 742 885 l 57 856 q 49 858 53 856 q 44 863 46 860 q 42 871 42 867 q 42 922 42 900 q 42 972 42 944 m 199 547 l 651 547 q 660 545 657 547 q 665 540 663 543 q 667 532 667 538 q 667 498 667 514 q 667 467 667 482 q 667 435 667 451 l 199 435 l 199 547 m 140 0 q 133 1 136 0 q 128 3 131 1 q 126 8 126 6 q 125 15 125 11 q 125 165 125 82 q 125 342 125 249 q 125 533 125 436 q 125 728 125 631 q 125 915 125 826 l 267 915 l 257 893 q 257 835 257 867 q 257 771 257 803 q 257 615 257 697 q 257 449 257 533 q 257 279 257 364 q 257 117 257 194 l 726 117 q 738 113 733 117 q 742 101 742 108 q 742 51 742 75 q 742 0 742 26 l 140 0 m 349 1314 q 385 1314 363 1314 q 430 1314 407 1314 q 465 1314 453 1314 q 484 1309 476 1314 q 513 1285 492 1304 q 549 1251 524 1275 q 606 1198 574 1228 q 672 1137 639 1168 q 735 1078 706 1106 q 678 1078 708 1079 q 622 1078 647 1078 q 600 1080 607 1078 q 582 1092 593 1082 q 510 1151 560 1110 q 388 1251 460 1192 l 461 1224 q 417 1224 439 1224 q 372 1224 394 1224 l 444 1253 q 324 1153 375 1194 q 233 1078 272 1111 l 128 1078 q 119 1079 122 1078 q 114 1083 115 1081 q 113 1088 113 1085 q 118 1099 113 1093 q 144 1125 124 1106 q 190 1166 163 1142 q 247 1219 217 1190 q 303 1272 276 1247 q 349 1314 331 1297 m 622 1469 q 665 1391 646 1426 q 703 1321 683 1356 q 743 1243 722 1286 q 715 1243 728 1243 q 689 1243 703 1243 q 651 1243 675 1243 q 637 1246 642 1243 q 626 1256 632 1249 q 585 1318 606 1289 q 542 1379 564 1347 q 494 1449 519 1411 q 492 1463 489 1457 q 503 1469 494 1469 q 542 1469 524 1469 q 581 1469 561 1469 q 622 1469 601 1469 z "},"Ể":{"ha":833,"x_min":42,"x_max":833,"o":"m 42 972 l 726 972 q 735 970 732 972 q 740 965 738 968 q 742 957 742 963 q 742 907 742 929 q 742 856 742 885 l 57 856 q 49 858 53 856 q 44 863 46 860 q 42 871 42 867 q 42 922 42 900 q 42 972 42 944 m 199 547 l 651 547 q 660 545 657 547 q 665 540 663 543 q 667 532 667 538 q 667 498 667 514 q 667 467 667 482 q 667 435 667 451 l 199 435 l 199 547 m 140 0 q 133 1 136 0 q 128 3 131 1 q 126 8 126 6 q 125 15 125 11 q 125 165 125 82 q 125 342 125 249 q 125 533 125 436 q 125 728 125 631 q 125 915 125 826 l 267 915 l 257 893 q 257 835 257 867 q 257 771 257 803 q 257 615 257 697 q 257 449 257 533 q 257 279 257 364 q 257 117 257 194 l 726 117 q 738 113 733 117 q 742 101 742 108 q 742 51 742 75 q 742 0 742 26 l 140 0 m 349 1314 q 385 1314 363 1314 q 430 1314 407 1314 q 465 1314 453 1314 q 484 1309 476 1314 q 513 1285 492 1304 q 549 1251 524 1275 q 606 1198 574 1228 q 672 1137 639 1168 q 735 1078 706 1106 q 678 1078 708 1079 q 622 1078 647 1078 q 600 1080 607 1078 q 582 1092 593 1082 q 510 1151 560 1110 q 388 1251 460 1192 l 461 1224 q 417 1224 439 1224 q 372 1224 394 1224 l 444 1253 q 324 1153 375 1194 q 233 1078 272 1111 l 128 1078 q 119 1079 122 1078 q 114 1083 115 1081 q 113 1088 113 1085 q 118 1099 113 1093 q 144 1125 124 1106 q 190 1166 163 1142 q 247 1219 217 1190 q 303 1272 276 1247 q 349 1314 331 1297 m 629 1242 q 651 1272 639 1257 q 672 1303 663 1286 q 690 1328 681 1315 q 707 1356 699 1342 q 707 1363 707 1358 q 707 1372 707 1367 q 683 1372 697 1372 q 656 1372 668 1372 q 616 1372 643 1372 q 571 1372 589 1372 l 540 1372 q 540 1413 540 1397 q 540 1447 540 1429 q 544 1458 540 1454 q 556 1463 549 1463 q 608 1463 575 1463 q 678 1463 640 1463 q 752 1463 715 1463 q 817 1463 789 1463 q 826 1461 822 1463 q 831 1456 829 1460 q 833 1447 833 1453 l 833 1375 q 818 1351 833 1374 q 781 1299 803 1329 q 750 1260 765 1279 q 722 1224 735 1240 q 692 1224 708 1224 q 661 1224 676 1224 q 633 1224 646 1224 q 624 1229 624 1224 q 629 1242 624 1235 z "},"Ễ":{"ha":833,"x_min":42,"x_max":742,"o":"m 42 972 l 726 972 q 735 970 732 972 q 740 965 738 968 q 742 957 742 963 q 742 907 742 929 q 742 856 742 885 l 57 856 q 49 858 53 856 q 44 863 46 860 q 42 871 42 867 q 42 922 42 900 q 42 972 42 944 m 199 547 l 651 547 q 660 545 657 547 q 665 540 663 543 q 667 532 667 538 q 667 498 667 514 q 667 467 667 482 q 667 435 667 451 l 199 435 l 199 547 m 140 0 q 133 1 136 0 q 128 3 131 1 q 126 8 126 6 q 125 15 125 11 q 125 165 125 82 q 125 342 125 249 q 125 533 125 436 q 125 728 125 631 q 125 915 125 826 l 267 915 l 257 893 q 257 835 257 867 q 257 771 257 803 q 257 615 257 697 q 257 449 257 533 q 257 279 257 364 q 257 117 257 194 l 726 117 q 738 113 733 117 q 742 101 742 108 q 742 51 742 75 q 742 0 742 26 l 140 0 m 349 1314 q 385 1314 363 1314 q 430 1314 407 1314 q 465 1314 453 1314 q 484 1309 476 1314 q 513 1285 492 1304 q 549 1251 524 1275 q 606 1198 574 1228 q 672 1137 639 1168 q 735 1078 706 1106 q 678 1078 708 1079 q 622 1078 647 1078 q 600 1080 607 1078 q 582 1092 593 1082 q 510 1151 560 1110 q 388 1251 460 1192 l 461 1224 q 417 1224 439 1224 q 372 1224 394 1224 l 444 1253 q 324 1153 375 1194 q 233 1078 272 1111 l 128 1078 q 119 1079 122 1078 q 114 1083 115 1081 q 113 1088 113 1085 q 118 1099 113 1093 q 144 1125 124 1106 q 190 1166 163 1142 q 247 1219 217 1190 q 303 1272 276 1247 q 349 1314 331 1297 m 525 1442 q 566 1451 550 1442 q 601 1489 582 1460 l 621 1489 q 621 1442 621 1467 q 621 1397 621 1418 q 619 1385 621 1390 q 611 1372 618 1379 q 574 1342 596 1351 q 524 1333 553 1333 q 461 1346 489 1333 q 409 1374 433 1358 q 361 1401 385 1389 q 310 1413 338 1413 q 267 1401 283 1413 q 232 1365 250 1389 l 211 1365 q 211 1413 211 1388 q 211 1457 211 1438 q 213 1469 211 1464 q 221 1482 214 1475 q 260 1510 240 1501 q 313 1519 281 1519 q 369 1508 343 1519 q 420 1481 396 1496 q 470 1454 444 1467 q 525 1442 496 1442 z "},"Ệ":{"ha":833,"x_min":42,"x_max":742,"o":"m 360 -140 q 399 -140 379 -140 q 437 -140 418 -140 q 475 -140 456 -140 q 514 -140 494 -140 q 525 -144 521 -140 q 529 -156 529 -149 l 529 -292 q 490 -292 510 -292 q 452 -292 471 -292 q 414 -292 433 -292 q 375 -292 394 -292 q 364 -287 368 -292 q 360 -276 360 -283 l 360 -140 m 42 972 l 726 972 q 735 970 732 972 q 740 965 738 968 q 742 957 742 963 q 742 907 742 929 q 742 856 742 885 l 57 856 q 49 858 53 856 q 44 863 46 860 q 42 871 42 867 q 42 922 42 900 q 42 972 42 944 m 199 547 l 651 547 q 660 545 657 547 q 665 540 663 543 q 667 532 667 538 q 667 498 667 514 q 667 467 667 482 q 667 435 667 451 l 199 435 l 199 547 m 140 0 q 133 1 136 0 q 128 3 131 1 q 126 8 126 6 q 125 15 125 11 q 125 165 125 82 q 125 342 125 249 q 125 533 125 436 q 125 728 125 631 q 125 915 125 826 l 267 915 l 257 893 q 257 835 257 867 q 257 771 257 803 q 257 615 257 697 q 257 449 257 533 q 257 279 257 364 q 257 117 257 194 l 726 117 q 738 113 733 117 q 742 101 742 108 q 742 51 742 75 q 742 0 742 26 l 140 0 m 349 1313 q 385 1313 363 1313 q 430 1313 407 1313 q 465 1313 453 1313 q 484 1308 476 1313 q 513 1285 492 1304 q 549 1251 524 1275 q 606 1197 574 1226 q 672 1135 639 1167 q 735 1078 706 1104 q 678 1078 708 1078 q 622 1078 647 1078 q 600 1080 607 1078 q 582 1092 593 1082 q 510 1150 560 1110 q 388 1251 460 1190 l 461 1224 q 417 1224 439 1224 q 372 1224 394 1224 l 444 1253 q 324 1151 375 1193 q 233 1078 272 1110 l 128 1078 q 119 1078 122 1078 q 114 1081 115 1079 q 113 1088 113 1083 q 118 1098 113 1092 q 144 1124 124 1104 q 190 1165 163 1140 q 247 1218 217 1190 q 303 1272 276 1246 q 349 1313 331 1297 z "},"F":{"ha":833,"x_min":79,"x_max":742,"o":"m 300 0 q 242 0 271 0 q 183 0 213 0 q 176 2 179 0 q 170 7 172 4 q 168 15 168 10 q 168 242 168 129 q 168 466 168 354 q 168 690 168 578 q 168 914 168 801 l 313 914 l 300 888 q 300 822 300 856 q 300 757 300 789 q 300 540 300 649 q 300 330 300 432 q 300 136 300 228 q 300 69 300 103 q 300 0 300 35 m 79 972 l 726 972 q 735 970 732 972 q 740 965 738 968 q 742 957 742 963 q 742 923 742 939 q 742 891 742 907 q 742 856 742 875 l 96 856 q 87 858 90 856 q 81 863 83 860 q 79 871 79 867 q 79 922 79 900 q 79 972 79 944 m 236 517 l 657 517 q 668 513 664 517 q 672 501 672 508 q 672 467 672 483 q 672 434 672 450 q 672 401 672 418 l 236 401 l 236 517 z "},"G":{"ha":833,"x_min":90,"x_max":789,"o":"m 442 501 l 774 501 q 782 499 779 501 q 787 494 785 497 q 789 486 789 492 l 789 388 l 457 388 q 450 388 453 388 q 445 391 447 389 q 442 396 443 393 q 442 403 442 399 q 442 452 442 429 q 442 501 442 475 m 454 1000 q 549 992 507 1000 q 624 972 590 985 q 683 944 657 960 q 725 910 708 928 q 730 901 729 906 q 731 892 731 896 q 731 828 731 861 q 731 761 731 794 q 731 694 731 728 q 678 694 704 694 q 625 694 651 694 q 614 699 618 694 q 610 710 610 703 q 610 765 610 738 q 610 821 610 792 q 610 883 610 850 l 644 818 q 558 865 603 851 q 453 879 513 879 q 358 864 400 879 q 285 817 315 849 q 240 739 256 786 q 224 629 224 692 l 224 338 q 240 227 224 275 q 288 147 257 179 q 356 106 317 119 q 444 92 394 92 q 533 101 497 92 q 588 122 569 111 q 607 132 607 132 q 607 233 607 182 q 607 335 607 285 q 607 435 607 386 l 736 435 l 731 410 q 731 244 731 332 q 731 75 731 157 q 730 67 731 71 q 725 60 729 64 q 663 17 703 38 q 567 -15 622 -3 q 447 -28 513 -28 q 292 -3 360 -28 q 181 69 225 22 q 113 183 136 117 q 90 332 90 250 l 90 635 q 114 786 90 719 q 185 901 138 853 q 300 974 232 949 q 454 1000 368 1000 z "},"Ĝ":{"ha":833,"x_min":90,"x_max":789,"o":"m 442 501 l 774 501 q 782 499 779 501 q 787 494 785 497 q 789 486 789 492 l 789 388 l 457 388 q 450 388 453 388 q 445 391 447 389 q 442 396 443 393 q 442 403 442 399 q 442 452 442 429 q 442 501 442 475 m 454 1000 q 549 992 507 1000 q 624 972 590 985 q 683 944 657 960 q 725 910 708 928 q 730 901 729 906 q 731 892 731 896 q 731 828 731 861 q 731 761 731 794 q 731 694 731 728 q 678 694 704 694 q 625 694 651 694 q 614 699 618 694 q 610 710 610 703 q 610 765 610 738 q 610 821 610 792 q 610 883 610 850 l 644 818 q 558 865 603 851 q 453 879 513 879 q 358 864 400 879 q 285 817 315 849 q 240 739 256 786 q 224 629 224 692 l 224 338 q 240 227 224 275 q 288 147 257 179 q 356 106 317 119 q 444 92 394 92 q 533 101 497 92 q 588 122 569 111 q 607 132 607 132 q 607 233 607 182 q 607 335 607 285 q 607 435 607 386 l 736 435 l 731 410 q 731 244 731 332 q 731 75 731 157 q 730 67 731 71 q 725 60 729 64 q 663 17 703 38 q 567 -15 622 -3 q 447 -28 513 -28 q 292 -3 360 -28 q 181 69 225 22 q 113 183 136 117 q 90 332 90 250 l 90 635 q 114 786 90 719 q 185 901 138 853 q 300 974 232 949 q 454 1000 368 1000 m 369 1314 q 406 1314 383 1314 q 451 1314 428 1314 q 486 1314 474 1314 q 505 1309 497 1314 q 533 1285 513 1304 q 569 1251 544 1275 q 627 1198 594 1228 q 693 1137 660 1168 q 756 1078 726 1106 q 699 1078 729 1079 q 643 1078 668 1078 q 621 1080 628 1078 q 603 1092 614 1082 q 531 1151 581 1110 q 408 1251 481 1192 l 482 1224 q 438 1224 460 1224 q 393 1224 415 1224 l 465 1253 q 344 1153 396 1194 q 254 1078 293 1111 l 149 1078 q 140 1079 143 1078 q 135 1083 136 1081 q 133 1088 133 1085 q 139 1099 133 1093 q 165 1125 144 1106 q 210 1166 183 1142 q 267 1219 238 1190 q 324 1272 297 1247 q 369 1314 351 1297 z "},"Ğ":{"ha":833,"x_min":90,"x_max":789,"o":"m 442 501 l 774 501 q 782 499 779 501 q 787 494 785 497 q 789 486 789 492 l 789 388 l 457 388 q 450 388 453 388 q 445 391 447 389 q 442 396 443 393 q 442 403 442 399 q 442 452 442 429 q 442 501 442 475 m 454 1000 q 549 992 507 1000 q 624 972 590 985 q 683 944 657 960 q 725 910 708 928 q 730 901 729 906 q 731 892 731 896 q 731 828 731 861 q 731 761 731 794 q 731 694 731 728 q 678 694 704 694 q 625 694 651 694 q 614 699 618 694 q 610 710 610 703 q 610 765 610 738 q 610 821 610 792 q 610 883 610 850 l 644 818 q 558 865 603 851 q 453 879 513 879 q 358 864 400 879 q 285 817 315 849 q 240 739 256 786 q 224 629 224 692 l 224 338 q 240 227 224 275 q 288 147 257 179 q 356 106 317 119 q 444 92 394 92 q 533 101 497 92 q 588 122 569 111 q 607 132 607 132 q 607 233 607 182 q 607 335 607 285 q 607 435 607 386 l 736 435 l 731 410 q 731 244 731 332 q 731 75 731 157 q 730 67 731 71 q 725 60 729 64 q 663 17 703 38 q 567 -15 622 -3 q 447 -28 513 -28 q 292 -3 360 -28 q 181 69 225 22 q 113 183 136 117 q 90 332 90 250 l 90 635 q 114 786 90 719 q 185 901 138 853 q 300 974 232 949 q 454 1000 368 1000 m 593 1307 q 632 1307 613 1307 q 671 1307 651 1307 q 689 1300 685 1307 q 689 1278 693 1293 q 644 1190 676 1229 q 564 1126 611 1150 q 458 1103 517 1103 l 417 1103 q 311 1126 358 1103 q 232 1190 264 1150 q 186 1278 200 1229 q 187 1300 183 1293 q 204 1307 190 1307 q 243 1307 224 1307 q 282 1307 263 1307 q 342 1231 306 1253 q 438 1208 379 1208 q 533 1231 496 1208 q 593 1307 569 1253 z "},"Ġ":{"ha":833,"x_min":90,"x_max":789,"o":"m 350 1261 q 390 1261 369 1261 q 430 1261 410 1261 q 470 1261 450 1261 q 510 1261 490 1261 q 521 1257 517 1261 q 525 1246 525 1253 l 525 1110 q 485 1110 506 1110 q 445 1110 465 1110 q 405 1110 425 1110 q 365 1110 385 1110 q 354 1114 358 1110 q 350 1125 350 1118 l 350 1261 m 442 501 l 774 501 q 782 499 779 501 q 787 494 785 497 q 789 486 789 492 l 789 388 l 456 388 q 450 388 453 388 q 445 391 447 389 q 442 396 443 393 q 442 403 442 399 q 442 452 442 429 q 442 501 442 475 m 454 1000 q 549 992 507 1000 q 624 972 590 985 q 683 944 657 960 q 725 910 708 928 q 730 901 729 906 q 731 892 731 896 q 731 828 731 861 q 731 761 731 794 q 731 694 731 728 q 678 694 704 694 q 625 694 651 694 q 614 699 618 694 q 610 710 610 703 q 610 765 610 738 q 610 821 610 792 q 610 883 610 850 l 644 818 q 558 865 603 851 q 453 879 513 879 q 358 864 400 879 q 285 817 315 849 q 240 739 256 786 q 224 629 224 692 l 224 338 q 240 227 224 275 q 288 147 257 179 q 356 106 317 119 q 444 92 394 92 q 533 101 497 92 q 588 122 569 111 q 607 132 607 132 q 607 233 607 182 q 607 335 607 285 q 607 435 607 386 l 736 435 l 731 410 q 731 244 731 332 q 731 75 731 157 q 730 67 731 71 q 725 60 729 64 q 663 17 703 38 q 567 -15 622 -3 q 447 -28 513 -28 q 292 -3 360 -28 q 181 69 225 22 q 113 183 136 117 q 90 332 90 250 l 90 635 q 114 786 90 719 q 185 901 138 853 q 300 974 232 949 q 454 1000 368 1000 z "},"Ģ":{"ha":833,"x_min":90,"x_max":789,"o":"m 442 501 l 774 501 q 782 499 779 501 q 787 494 785 497 q 789 486 789 492 l 789 388 l 457 388 q 450 388 453 388 q 445 391 447 389 q 442 396 443 393 q 442 403 442 399 q 442 452 442 429 q 442 501 442 475 m 454 1000 q 549 992 507 1000 q 624 972 590 985 q 683 944 657 960 q 725 910 708 928 q 730 901 729 906 q 731 892 731 896 q 731 828 731 861 q 731 761 731 794 q 731 694 731 728 q 678 694 704 694 q 625 694 651 694 q 614 699 618 694 q 610 710 610 703 q 610 765 610 738 q 610 821 610 792 q 610 883 610 850 l 644 818 q 558 865 603 851 q 453 879 513 879 q 358 864 400 879 q 285 817 315 849 q 240 739 256 786 q 224 629 224 692 l 224 338 q 240 227 224 275 q 288 147 257 179 q 356 106 317 119 q 444 92 394 92 q 533 101 497 92 q 588 122 569 111 q 607 132 607 132 q 607 233 607 182 q 607 335 607 285 q 607 435 607 386 l 736 435 l 731 410 q 731 244 731 332 q 731 75 731 157 q 730 67 731 71 q 725 60 729 64 q 663 17 703 38 q 567 -15 622 -3 q 447 -28 513 -28 q 292 -3 360 -28 q 181 69 225 22 q 113 183 136 117 q 90 332 90 250 l 90 635 q 114 786 90 719 q 185 901 138 853 q 300 974 232 949 q 454 1000 368 1000 m 392 -92 q 435 -92 415 -92 q 476 -92 456 -92 q 515 -92 496 -92 q 528 -97 524 -92 q 529 -111 532 -103 q 502 -183 514 -151 q 478 -246 490 -214 q 450 -321 467 -278 q 444 -331 449 -326 q 429 -335 439 -335 q 385 -335 410 -335 q 331 -335 360 -335 q 353 -248 343 -289 q 373 -169 363 -207 q 392 -92 383 -131 z "},"Ǧ":{"ha":833,"x_min":90,"x_max":789,"o":"m 506 1078 q 469 1078 492 1078 q 424 1078 447 1078 q 388 1078 401 1078 q 370 1083 378 1078 q 342 1106 363 1088 q 305 1140 331 1117 q 247 1192 279 1163 q 182 1254 215 1222 q 119 1313 149 1286 q 176 1313 144 1313 q 232 1313 207 1313 q 254 1310 247 1313 q 272 1299 261 1308 q 344 1240 294 1282 q 465 1139 394 1199 l 392 1167 q 438 1167 415 1167 q 482 1167 460 1167 l 410 1138 q 531 1239 481 1197 q 621 1313 582 1281 l 725 1313 q 735 1312 732 1313 q 740 1309 739 1311 q 742 1303 742 1307 q 737 1292 742 1297 q 710 1267 732 1286 q 665 1225 692 1250 q 607 1172 638 1200 q 550 1119 576 1144 q 506 1078 524 1093 m 442 501 l 774 501 q 782 499 779 501 q 787 494 785 497 q 789 486 789 492 l 789 388 l 456 388 q 450 388 453 388 q 445 391 447 389 q 442 396 443 393 q 442 403 442 399 q 442 452 442 429 q 442 501 442 475 m 454 1000 q 549 992 507 1000 q 624 972 590 985 q 683 944 657 960 q 725 910 708 928 q 730 901 729 906 q 731 892 731 896 q 731 828 731 861 q 731 761 731 794 q 731 694 731 728 q 678 694 704 694 q 625 694 651 694 q 614 699 618 694 q 610 710 610 703 q 610 765 610 738 q 610 821 610 792 q 610 883 610 850 l 644 818 q 558 865 603 851 q 453 879 513 879 q 358 864 400 879 q 285 817 315 849 q 240 739 256 786 q 224 629 224 692 l 224 338 q 240 227 224 275 q 288 147 257 179 q 356 106 317 119 q 444 92 394 92 q 533 101 497 92 q 588 122 569 111 q 607 132 607 132 q 607 233 607 182 q 607 335 607 285 q 607 435 607 386 l 736 435 l 731 410 q 731 244 731 332 q 731 75 731 157 q 730 67 731 71 q 725 60 729 64 q 663 17 703 38 q 567 -15 622 -3 q 447 -28 513 -28 q 292 -3 360 -28 q 181 69 225 22 q 113 183 136 117 q 90 332 90 250 l 90 635 q 114 786 90 719 q 185 901 138 853 q 300 974 232 949 q 454 1000 368 1000 z "},"Ḡ":{"ha":833,"x_min":90,"x_max":789,"o":"m 442 501 l 774 501 q 782 499 779 501 q 787 494 785 497 q 789 486 789 492 l 789 388 l 457 388 q 450 388 453 388 q 445 391 447 389 q 442 396 443 393 q 442 403 442 399 q 442 452 442 429 q 442 501 442 475 m 454 1000 q 549 992 507 1000 q 624 972 590 985 q 683 944 657 960 q 725 910 708 928 q 730 901 729 906 q 731 892 731 896 q 731 828 731 861 q 731 761 731 794 q 731 694 731 728 q 678 694 704 694 q 625 694 651 694 q 614 699 618 694 q 610 710 610 703 q 610 765 610 738 q 610 821 610 792 q 610 883 610 850 l 644 818 q 558 865 603 851 q 453 879 513 879 q 358 864 400 879 q 285 817 315 849 q 240 739 256 786 q 224 629 224 692 l 224 338 q 240 227 224 275 q 288 147 257 179 q 356 106 317 119 q 444 92 394 92 q 533 101 497 92 q 588 122 569 111 q 607 132 607 132 q 607 233 607 182 q 607 335 607 285 q 607 435 607 386 l 736 435 l 731 410 q 731 244 731 332 q 731 75 731 157 q 730 67 731 71 q 725 60 729 64 q 663 17 703 38 q 567 -15 622 -3 q 447 -28 513 -28 q 292 -3 360 -28 q 181 69 225 22 q 113 183 136 117 q 90 332 90 250 l 90 635 q 114 786 90 719 q 185 901 138 853 q 300 974 232 949 q 454 1000 368 1000 m 193 1282 l 667 1282 q 678 1278 674 1282 q 682 1267 682 1274 q 682 1234 682 1250 q 682 1203 682 1218 q 682 1169 682 1188 l 208 1169 q 201 1172 204 1169 q 195 1177 197 1174 q 193 1185 193 1181 q 193 1218 193 1203 q 193 1249 193 1233 q 193 1282 193 1265 z "},"H":{"ha":833,"x_min":101,"x_max":732,"o":"m 101 972 q 158 972 131 972 q 215 972 186 972 q 226 968 222 972 q 231 957 231 964 q 231 718 231 838 q 231 478 231 599 q 231 239 231 358 q 231 0 231 119 q 174 0 201 0 q 117 0 146 0 q 109 2 113 0 q 103 7 106 4 q 101 15 101 10 q 101 286 101 150 q 101 558 101 422 q 101 831 101 694 q 101 901 101 867 q 101 972 101 936 m 168 549 l 543 549 q 576 549 560 549 q 607 549 592 549 l 646 563 l 664 432 l 183 432 q 176 433 179 432 q 172 435 174 433 q 169 440 169 438 q 168 447 168 443 l 168 549 m 732 0 q 675 0 703 0 q 618 0 647 0 q 610 2 614 0 q 605 7 607 4 q 603 15 603 10 q 603 254 603 135 q 603 494 603 374 q 603 733 603 614 q 603 972 603 853 q 660 972 632 972 q 717 972 688 972 q 724 972 721 972 q 728 969 726 971 q 731 964 731 967 q 732 957 732 961 q 732 754 732 857 q 732 550 732 651 q 732 347 732 449 q 732 144 732 246 q 732 71 732 107 q 732 0 732 35 z "},"Ĥ":{"ha":833,"x_min":101,"x_max":735,"o":"m 101 972 q 158 972 131 972 q 215 972 186 972 q 226 968 222 972 q 231 957 231 964 q 231 718 231 838 q 231 478 231 599 q 231 239 231 358 q 231 0 231 119 q 174 0 201 0 q 117 0 146 0 q 109 2 113 0 q 103 7 106 4 q 101 15 101 10 q 101 286 101 150 q 101 558 101 422 q 101 831 101 694 q 101 901 101 867 q 101 972 101 936 m 168 549 l 543 549 q 576 549 560 549 q 607 549 592 549 l 646 563 l 664 432 l 183 432 q 176 433 179 432 q 172 435 174 433 q 169 440 169 438 q 168 447 168 443 l 168 549 m 732 0 q 675 0 703 0 q 618 0 647 0 q 610 2 614 0 q 605 7 607 4 q 603 15 603 10 q 603 254 603 135 q 603 494 603 374 q 603 733 603 614 q 603 972 603 853 q 660 972 632 972 q 717 972 688 972 q 724 972 721 972 q 728 969 726 971 q 731 964 731 967 q 732 957 732 961 q 732 754 732 857 q 732 550 732 651 q 732 347 732 449 q 732 144 732 246 q 732 71 732 107 q 732 0 732 35 m 349 1314 q 385 1314 363 1314 q 430 1314 407 1314 q 465 1314 453 1314 q 484 1309 476 1314 q 513 1285 492 1304 q 549 1251 524 1275 q 606 1198 574 1228 q 672 1137 639 1168 q 735 1078 706 1106 q 678 1078 708 1079 q 622 1078 647 1078 q 600 1080 607 1078 q 582 1092 593 1082 q 510 1151 560 1110 q 388 1251 460 1192 l 461 1224 q 417 1224 439 1224 q 372 1224 394 1224 l 444 1253 q 324 1153 375 1194 q 233 1078 272 1111 l 128 1078 q 119 1079 122 1078 q 114 1083 115 1081 q 113 1088 113 1085 q 118 1099 113 1093 q 144 1125 124 1106 q 190 1166 163 1142 q 247 1219 217 1190 q 303 1272 276 1247 q 349 1314 331 1297 z "},"Ḥ":{"ha":833,"x_min":101,"x_max":732,"o":"m 333 -140 q 372 -140 353 -140 q 410 -140 390 -140 q 448 -140 429 -140 q 486 -140 467 -140 q 497 -144 493 -140 q 501 -156 501 -149 l 501 -292 q 463 -292 482 -292 q 425 -292 444 -292 q 387 -292 406 -292 q 349 -292 368 -292 q 338 -287 342 -292 q 333 -276 333 -283 l 333 -140 m 101 972 q 158 972 131 972 q 215 972 186 972 q 226 968 222 972 q 231 957 231 964 q 231 718 231 838 q 231 478 231 599 q 231 239 231 358 q 231 0 231 119 q 174 0 201 0 q 117 0 146 0 q 109 2 113 0 q 103 7 106 4 q 101 15 101 10 q 101 286 101 150 q 101 558 101 422 q 101 831 101 694 q 101 901 101 867 q 101 972 101 936 m 168 549 l 543 549 q 576 549 560 549 q 607 549 592 549 l 646 563 l 664 432 l 183 432 q 176 433 179 432 q 172 435 174 433 q 169 440 169 438 q 168 447 168 443 l 168 549 m 732 0 q 675 0 703 0 q 618 0 647 0 q 610 2 614 0 q 605 7 607 4 q 603 15 603 10 q 603 254 603 135 q 603 494 603 374 q 603 733 603 614 q 603 972 603 853 q 660 972 632 972 q 717 972 688 972 q 724 972 721 972 q 728 969 726 971 q 731 964 731 967 q 732 957 732 961 q 732 754 732 857 q 732 550 732 651 q 732 347 732 449 q 732 144 732 246 q 732 71 732 107 q 732 0 732 35 z "},"Ḫ":{"ha":833,"x_min":101,"x_max":732,"o":"m 417 -189 q 519 -158 481 -189 q 572 -57 558 -126 q 609 -57 592 -57 q 646 -57 626 -57 q 664 -62 660 -57 q 665 -87 668 -68 q 626 -191 658 -144 q 543 -265 594 -237 q 426 -292 492 -292 l 408 -292 q 292 -265 343 -292 q 208 -191 240 -237 q 169 -87 176 -144 q 172 -62 168 -68 q 189 -57 175 -57 q 226 -57 208 -57 q 263 -57 243 -57 q 315 -158 276 -126 q 417 -189 354 -189 m 101 972 q 158 972 131 972 q 215 972 186 972 q 226 968 222 972 q 231 957 231 964 q 231 718 231 838 q 231 478 231 599 q 231 239 231 358 q 231 0 231 119 q 174 0 201 0 q 117 0 146 0 q 109 2 113 0 q 103 7 106 4 q 101 15 101 10 q 101 286 101 150 q 101 558 101 422 q 101 831 101 694 q 101 901 101 867 q 101 972 101 936 m 168 549 l 543 549 q 576 549 560 549 q 607 549 592 549 l 646 563 l 664 432 l 183 432 q 176 433 179 432 q 172 435 174 433 q 169 440 169 438 q 168 447 168 443 l 168 549 m 732 0 q 675 0 703 0 q 618 0 647 0 q 610 2 614 0 q 605 7 607 4 q 603 15 603 10 q 603 254 603 135 q 603 494 603 374 q 603 733 603 614 q 603 972 603 853 q 660 972 632 972 q 717 972 688 972 q 724 972 721 972 q 728 969 726 971 q 731 964 731 967 q 732 957 732 961 q 732 754 732 857 q 732 550 732 651 q 732 347 732 449 q 732 144 732 246 q 732 71 732 107 q 732 0 732 35 z "},"I":{"ha":833,"x_min":114,"x_max":719,"o":"m 482 65 l 347 65 l 351 100 q 351 156 351 126 q 351 211 351 185 q 351 384 351 297 q 351 558 351 471 q 351 732 351 644 q 351 907 351 819 l 489 907 l 482 872 q 482 824 482 850 q 482 775 482 799 q 482 597 482 686 q 482 419 482 508 q 482 242 482 331 q 482 65 482 154 m 719 0 l 129 0 q 122 1 125 0 q 117 3 119 1 q 115 8 115 6 q 114 15 114 11 q 114 49 114 33 q 114 82 114 65 q 114 117 114 99 l 704 117 q 713 115 710 117 q 717 110 715 113 q 719 101 719 107 q 719 67 719 83 q 719 34 719 50 q 719 0 719 18 m 114 972 l 704 972 q 715 968 711 972 q 719 957 719 964 q 719 931 719 943 q 719 906 719 918 q 719 882 719 894 q 719 856 719 869 l 129 856 q 118 860 122 856 q 114 871 114 864 q 114 897 114 885 q 114 922 114 910 q 114 946 114 933 q 114 972 114 958 z "},"Ì":{"ha":833,"x_min":114,"x_max":719,"o":"m 482 65 l 347 65 l 351 100 q 351 156 351 126 q 351 211 351 185 q 351 384 351 297 q 351 558 351 471 q 351 732 351 644 q 351 907 351 819 l 489 907 l 482 872 q 482 824 482 850 q 482 775 482 799 q 482 597 482 686 q 482 419 482 508 q 482 242 482 331 q 482 65 482 154 m 719 0 l 129 0 q 122 1 125 0 q 117 3 119 1 q 115 8 115 6 q 114 15 114 11 q 114 49 114 33 q 114 82 114 65 q 114 117 114 99 l 704 117 q 713 115 710 117 q 717 110 715 113 q 719 101 719 107 q 719 67 719 83 q 719 34 719 50 q 719 0 719 18 m 114 972 l 704 972 q 715 968 711 972 q 719 957 719 964 q 719 931 719 943 q 719 906 719 918 q 719 882 719 894 q 719 856 719 869 l 129 856 q 118 860 122 856 q 114 871 114 864 q 114 897 114 885 q 114 922 114 910 q 114 946 114 933 q 114 972 114 958 m 328 1313 q 379 1232 356 1269 q 427 1157 403 1194 q 476 1076 451 1119 q 446 1076 460 1076 q 415 1076 432 1076 q 375 1076 399 1076 q 360 1080 367 1076 q 351 1088 354 1083 q 297 1150 318 1125 q 258 1196 275 1175 q 222 1240 240 1217 q 176 1292 203 1263 q 174 1306 171 1299 q 186 1313 178 1313 q 234 1313 215 1313 q 274 1313 253 1313 q 328 1313 294 1313 z "},"Í":{"ha":833,"x_min":114,"x_max":719,"o":"m 482 65 l 347 65 l 351 100 q 351 156 351 126 q 351 211 351 185 q 351 384 351 297 q 351 558 351 471 q 351 732 351 644 q 351 907 351 819 l 489 907 l 482 872 q 482 824 482 850 q 482 775 482 799 q 482 597 482 686 q 482 419 482 508 q 482 242 482 331 q 482 65 482 154 m 719 0 l 129 0 q 122 1 125 0 q 117 3 119 1 q 115 8 115 6 q 114 15 114 11 q 114 49 114 33 q 114 82 114 65 q 114 117 114 99 l 704 117 q 713 115 710 117 q 717 110 715 113 q 719 101 719 107 q 719 67 719 83 q 719 34 719 50 q 719 0 719 18 m 114 972 l 704 972 q 715 968 711 972 q 719 957 719 964 q 719 931 719 943 q 719 906 719 918 q 719 882 719 894 q 719 856 719 869 l 129 856 q 118 860 122 856 q 114 871 114 864 q 114 897 114 885 q 114 922 114 910 q 114 946 114 933 q 114 972 114 958 m 511 1313 q 564 1313 544 1313 q 600 1313 583 1313 q 646 1313 617 1313 q 658 1306 654 1313 q 654 1292 661 1299 q 610 1240 629 1263 q 574 1196 592 1217 q 535 1150 557 1175 q 481 1088 513 1125 q 472 1080 478 1083 q 457 1076 465 1076 q 418 1076 433 1076 q 389 1076 403 1076 q 360 1076 375 1076 q 411 1157 388 1119 q 459 1232 435 1194 q 511 1313 483 1269 z "},"Î":{"ha":833,"x_min":113,"x_max":735,"o":"m 482 65 l 347 65 l 351 100 q 351 156 351 126 q 351 211 351 185 q 351 384 351 297 q 351 558 351 471 q 351 732 351 644 q 351 907 351 819 l 489 907 l 482 872 q 482 824 482 850 q 482 775 482 799 q 482 597 482 686 q 482 419 482 508 q 482 242 482 331 q 482 65 482 154 m 719 0 l 129 0 q 122 1 125 0 q 117 3 119 1 q 115 8 115 6 q 114 15 114 11 q 114 49 114 33 q 114 82 114 65 q 114 117 114 99 l 704 117 q 713 115 710 117 q 717 110 715 113 q 719 101 719 107 q 719 67 719 83 q 719 34 719 50 q 719 0 719 18 m 114 972 l 704 972 q 715 968 711 972 q 719 957 719 964 q 719 931 719 943 q 719 906 719 918 q 719 882 719 894 q 719 856 719 869 l 129 856 q 118 860 122 856 q 114 871 114 864 q 114 897 114 885 q 114 922 114 910 q 114 946 114 933 q 114 972 114 958 m 349 1314 q 385 1314 363 1314 q 430 1314 407 1314 q 465 1314 453 1314 q 484 1309 476 1314 q 513 1285 492 1304 q 549 1251 524 1275 q 606 1198 574 1228 q 672 1137 639 1168 q 735 1078 706 1106 q 678 1078 708 1079 q 622 1078 647 1078 q 600 1080 607 1078 q 582 1092 593 1082 q 510 1151 560 1110 q 388 1251 460 1192 l 461 1224 q 417 1224 439 1224 q 372 1224 394 1224 l 444 1253 q 324 1153 375 1194 q 233 1078 272 1111 l 128 1078 q 119 1079 122 1078 q 114 1083 115 1081 q 113 1088 113 1085 q 118 1099 113 1093 q 144 1125 124 1106 q 190 1166 163 1142 q 247 1219 217 1190 q 303 1272 276 1247 q 349 1314 331 1297 z "},"Ï":{"ha":833,"x_min":114,"x_max":719,"o":"m 482 65 l 347 65 l 351 100 q 351 156 351 126 q 351 211 351 185 q 351 384 351 297 q 351 558 351 471 q 351 732 351 644 q 351 907 351 819 l 489 907 l 482 872 q 482 824 482 850 q 482 775 482 799 q 482 597 482 686 q 482 419 482 508 q 482 242 482 331 q 482 65 482 154 m 719 0 l 129 0 q 122 1 125 0 q 117 3 119 1 q 115 8 115 6 q 114 15 114 11 q 114 49 114 33 q 114 82 114 65 q 114 117 114 99 l 704 117 q 713 115 710 117 q 717 110 715 113 q 719 101 719 107 q 719 67 719 83 q 719 34 719 50 q 719 0 719 18 m 114 972 l 704 972 q 715 968 711 972 q 719 957 719 964 q 719 931 719 943 q 719 906 719 918 q 719 882 719 894 q 719 856 719 869 l 129 856 q 118 860 122 856 q 114 871 114 864 q 114 897 114 885 q 114 922 114 910 q 114 946 114 933 q 114 972 114 958 m 194 1261 q 265 1261 229 1261 q 335 1261 300 1261 q 343 1259 340 1261 q 348 1254 346 1257 q 350 1246 350 1251 l 350 1111 q 280 1111 315 1111 q 210 1111 244 1111 q 202 1113 206 1111 q 197 1119 199 1115 q 194 1126 194 1122 l 194 1261 m 483 1261 q 553 1261 518 1261 q 624 1261 589 1261 q 632 1259 629 1261 q 637 1254 635 1257 q 639 1246 639 1251 l 639 1111 q 569 1111 604 1111 q 499 1111 533 1111 q 491 1113 494 1111 q 485 1119 488 1115 q 483 1126 483 1122 l 483 1261 z "},"Ĩ":{"ha":833,"x_min":114,"x_max":719,"o":"m 482 65 l 347 65 l 351 100 q 351 156 351 126 q 351 211 351 185 q 351 384 351 297 q 351 558 351 471 q 351 732 351 644 q 351 907 351 819 l 489 907 l 482 872 q 482 824 482 850 q 482 775 482 799 q 482 597 482 686 q 482 419 482 508 q 482 242 482 331 q 482 65 482 154 m 719 0 l 129 0 q 122 1 125 0 q 117 3 119 1 q 115 8 115 6 q 114 15 114 11 q 114 49 114 33 q 114 82 114 65 q 114 117 114 99 l 704 117 q 713 115 710 117 q 717 110 715 113 q 719 101 719 107 q 719 67 719 83 q 719 34 719 50 q 719 0 719 18 m 114 972 l 704 972 q 715 968 711 972 q 719 957 719 964 q 719 931 719 943 q 719 906 719 918 q 719 882 719 894 q 719 856 719 869 l 129 856 q 118 860 122 856 q 114 871 114 864 q 114 897 114 885 q 114 922 114 910 q 114 946 114 933 q 114 972 114 958 m 549 1204 q 608 1219 583 1204 q 660 1264 633 1233 l 679 1264 q 679 1217 679 1240 q 679 1172 679 1194 q 678 1160 679 1165 q 669 1147 676 1154 q 619 1110 647 1125 q 546 1096 590 1096 q 473 1109 507 1096 q 408 1138 439 1122 q 347 1167 378 1154 q 285 1181 317 1181 q 225 1166 250 1181 q 174 1119 200 1151 l 154 1119 q 154 1167 154 1143 q 154 1211 154 1190 q 156 1224 154 1218 q 164 1238 157 1229 q 215 1274 186 1260 q 288 1289 243 1289 q 360 1276 326 1289 q 426 1246 394 1263 q 487 1217 457 1229 q 549 1204 517 1204 z "},"Ī":{"ha":833,"x_min":114,"x_max":719,"o":"m 482 65 l 347 65 l 351 100 q 351 156 351 126 q 351 211 351 185 q 351 384 351 297 q 351 558 351 471 q 351 732 351 644 q 351 907 351 819 l 489 907 l 482 872 q 482 824 482 850 q 482 775 482 799 q 482 597 482 686 q 482 419 482 508 q 482 242 482 331 q 482 65 482 154 m 719 0 l 129 0 q 122 1 125 0 q 117 3 119 1 q 115 8 115 6 q 114 15 114 11 q 114 49 114 33 q 114 82 114 65 q 114 117 114 99 l 704 117 q 713 115 710 117 q 717 110 715 113 q 719 101 719 107 q 719 67 719 83 q 719 34 719 50 q 719 0 719 18 m 114 972 l 704 972 q 715 968 711 972 q 719 957 719 964 q 719 931 719 943 q 719 906 719 918 q 719 882 719 894 q 719 856 719 869 l 129 856 q 118 860 122 856 q 114 871 114 864 q 114 897 114 885 q 114 922 114 910 q 114 946 114 933 q 114 972 114 958 m 172 1232 l 646 1232 q 657 1228 653 1232 q 661 1217 661 1224 q 661 1169 661 1193 q 661 1121 661 1146 l 188 1121 q 180 1123 183 1121 q 174 1128 176 1125 q 172 1136 172 1132 q 172 1185 172 1161 q 172 1232 172 1208 z "},"Ĭ":{"ha":833,"x_min":114,"x_max":719,"o":"m 482 65 l 347 65 l 351 100 q 351 156 351 126 q 351 211 351 185 q 351 384 351 297 q 351 558 351 471 q 351 732 351 644 q 351 907 351 819 l 489 907 l 482 872 q 482 824 482 850 q 482 775 482 799 q 482 597 482 686 q 482 419 482 508 q 482 242 482 331 q 482 65 482 154 m 719 0 l 129 0 q 122 1 125 0 q 117 3 119 1 q 115 8 115 6 q 114 15 114 11 q 114 49 114 33 q 114 82 114 65 q 114 117 114 99 l 704 117 q 713 115 710 117 q 717 110 715 113 q 719 101 719 107 q 719 67 719 83 q 719 34 719 50 q 719 0 719 18 m 114 972 l 704 972 q 715 968 711 972 q 719 957 719 964 q 719 931 719 943 q 719 906 719 918 q 719 882 719 894 q 719 856 719 869 l 129 856 q 118 860 122 856 q 114 871 114 864 q 114 897 114 885 q 114 922 114 910 q 114 946 114 933 q 114 972 114 958 m 572 1307 q 611 1307 592 1307 q 650 1307 631 1307 q 668 1300 664 1307 q 668 1278 672 1293 q 623 1190 656 1229 q 543 1126 590 1150 q 438 1103 496 1103 l 396 1103 q 290 1126 338 1103 q 211 1190 243 1150 q 165 1278 179 1229 q 166 1300 163 1293 q 183 1307 169 1307 q 222 1307 203 1307 q 261 1307 242 1307 q 322 1231 285 1253 q 417 1208 358 1208 q 512 1231 475 1208 q 572 1307 549 1253 z "},"Į":{"ha":833,"x_min":114,"x_max":719,"o":"m 482 65 l 347 65 l 351 100 q 351 156 351 126 q 351 211 351 185 q 351 384 351 297 q 351 558 351 471 q 351 732 351 644 q 351 907 351 819 l 489 907 l 482 872 q 482 824 482 850 q 482 775 482 799 q 482 597 482 686 q 482 419 482 508 q 482 242 482 331 q 482 65 482 154 m 719 0 l 129 0 q 122 1 125 0 q 117 3 119 1 q 115 8 115 6 q 114 15 114 11 q 114 49 114 33 q 114 82 114 65 q 114 117 114 99 l 704 117 q 713 115 710 117 q 717 110 715 113 q 719 101 719 107 q 719 67 719 83 q 719 34 719 50 q 719 0 719 18 m 114 972 l 704 972 q 715 968 711 972 q 719 957 719 964 q 719 931 719 943 q 719 906 719 918 q 719 882 719 894 q 719 856 719 869 l 129 856 q 118 860 122 856 q 114 871 114 864 q 114 897 114 885 q 114 922 114 910 q 114 946 114 933 q 114 972 114 958 m 640 42 q 672 34 653 43 q 719 0 690 25 q 717 -9 719 -6 q 703 -15 714 -12 q 571 -74 608 -37 q 533 -154 533 -111 q 555 -208 533 -190 q 610 -226 576 -226 q 654 -219 635 -226 q 693 -200 674 -212 l 714 -200 q 714 -222 714 -210 q 714 -253 714 -235 q 714 -300 714 -271 q 682 -333 714 -318 q 601 -347 650 -347 q 465 -304 515 -347 q 415 -186 415 -261 q 450 -69 415 -118 q 536 7 485 -21 q 640 42 588 35 z "},"İ":{"ha":833,"x_min":114,"x_max":719,"o":"m 329 1261 q 369 1261 349 1261 q 409 1261 389 1261 q 449 1261 429 1261 q 489 1261 469 1261 q 500 1257 496 1261 q 504 1246 504 1253 l 504 1110 q 465 1110 485 1110 q 424 1110 444 1110 q 384 1110 404 1110 q 344 1110 364 1110 q 333 1114 338 1110 q 329 1125 329 1118 l 329 1261 m 482 65 l 347 65 l 351 100 q 351 156 351 126 q 351 211 351 185 q 351 384 351 297 q 351 558 351 471 q 351 732 351 644 q 351 907 351 819 l 489 907 l 482 872 q 482 824 482 850 q 482 775 482 799 q 482 597 482 686 q 482 419 482 508 q 482 242 482 331 q 482 65 482 154 m 719 0 l 129 0 q 122 1 125 0 q 117 3 119 1 q 115 8 115 6 q 114 15 114 11 q 114 49 114 33 q 114 82 114 65 q 114 117 114 99 l 704 117 q 713 115 710 117 q 717 110 715 113 q 719 101 719 107 q 719 67 719 83 q 719 34 719 50 q 719 0 719 18 m 114 972 l 704 972 q 715 968 711 972 q 719 957 719 964 q 719 931 719 943 q 719 906 719 918 q 719 882 719 894 q 719 856 719 869 l 129 856 q 118 860 122 856 q 114 871 114 864 q 114 897 114 885 q 114 922 114 910 q 114 946 114 933 q 114 972 114 958 z "},"Ȉ":{"ha":833,"x_min":57,"x_max":719,"o":"m 213 1313 q 264 1232 240 1269 q 312 1157 288 1194 q 361 1076 336 1119 q 331 1076 346 1076 q 300 1076 317 1076 q 260 1076 283 1076 q 246 1080 251 1076 q 238 1088 240 1083 q 183 1150 204 1125 q 144 1196 161 1175 q 107 1240 126 1217 q 63 1292 88 1263 q 60 1306 57 1299 q 72 1313 64 1313 q 119 1313 100 1313 q 159 1313 138 1313 q 213 1313 181 1313 m 478 1313 q 529 1232 506 1269 q 577 1157 553 1194 q 626 1076 601 1119 q 597 1076 611 1076 q 565 1076 582 1076 q 525 1076 549 1076 q 510 1080 517 1076 q 501 1088 504 1083 q 447 1150 469 1125 q 408 1196 425 1175 q 372 1240 390 1217 q 328 1292 353 1263 q 325 1306 322 1299 q 336 1313 328 1313 q 384 1313 365 1313 q 424 1313 403 1313 q 478 1313 446 1313 m 482 65 l 347 65 l 351 100 q 351 156 351 126 q 351 211 351 185 q 351 384 351 297 q 351 558 351 471 q 351 733 351 646 q 351 907 351 819 l 489 907 l 482 872 q 482 824 482 850 q 482 775 482 799 q 482 597 482 686 q 482 419 482 508 q 482 242 482 331 q 482 65 482 154 m 719 0 l 129 0 q 122 1 125 0 q 117 3 119 1 q 115 8 115 6 q 114 15 114 11 q 114 49 114 33 q 114 82 114 65 q 114 117 114 99 l 704 117 q 713 115 710 117 q 717 110 715 113 q 719 101 719 107 q 719 67 719 83 q 719 34 719 50 q 719 0 719 18 m 114 972 l 704 972 q 715 968 711 972 q 719 957 719 964 q 719 931 719 943 q 719 906 719 918 q 719 882 719 894 q 719 856 719 869 l 129 856 q 118 860 122 856 q 114 871 114 864 q 114 897 114 885 q 114 922 114 910 q 114 946 114 933 q 114 972 114 958 z "},"Ȋ":{"ha":833,"x_min":114,"x_max":719,"o":"m 261 1094 q 222 1094 242 1094 q 183 1094 203 1094 q 166 1101 169 1094 q 165 1124 163 1107 q 211 1213 179 1174 q 290 1275 243 1251 q 396 1299 338 1299 l 438 1299 q 543 1275 496 1299 q 623 1213 590 1251 q 668 1124 656 1174 q 668 1101 672 1107 q 650 1094 664 1094 q 611 1094 631 1094 q 572 1094 592 1094 q 512 1171 549 1149 q 417 1193 475 1193 q 322 1171 358 1193 q 261 1094 285 1149 m 482 65 l 347 65 l 351 100 q 351 156 351 126 q 351 211 351 185 q 351 384 351 297 q 351 558 351 471 q 351 733 351 646 q 351 907 351 819 l 489 907 l 482 872 q 482 824 482 850 q 482 775 482 799 q 482 597 482 686 q 482 419 482 508 q 482 242 482 331 q 482 65 482 154 m 719 0 l 129 0 q 122 1 125 0 q 117 3 119 1 q 115 8 115 6 q 114 15 114 11 q 114 49 114 33 q 114 82 114 65 q 114 117 114 99 l 704 117 q 713 115 710 117 q 717 110 715 113 q 719 101 719 107 q 719 67 719 83 q 719 34 719 50 q 719 0 719 18 m 114 972 l 704 972 q 715 968 711 972 q 719 957 719 964 q 719 931 719 943 q 719 906 719 918 q 719 882 719 894 q 719 856 719 869 l 129 856 q 118 860 122 856 q 114 871 114 864 q 114 897 114 885 q 114 922 114 910 q 114 946 114 933 q 114 972 114 958 z "},"Ḯ":{"ha":833,"x_min":114,"x_max":719,"o":"m 482 65 l 347 65 l 351 100 q 351 156 351 126 q 351 211 351 185 q 351 384 351 297 q 351 558 351 471 q 351 732 351 644 q 351 907 351 819 l 489 907 l 482 872 q 482 824 482 850 q 482 775 482 799 q 482 597 482 686 q 482 419 482 508 q 482 242 482 331 q 482 65 482 154 m 719 0 l 129 0 q 122 1 125 0 q 117 3 119 1 q 115 8 115 6 q 114 15 114 11 q 114 49 114 33 q 114 82 114 65 q 114 117 114 99 l 704 117 q 713 115 710 117 q 717 110 715 113 q 719 101 719 107 q 719 67 719 83 q 719 34 719 50 q 719 0 719 18 m 114 972 l 704 972 q 715 968 711 972 q 719 957 719 964 q 719 931 719 943 q 719 906 719 918 q 719 882 719 894 q 719 856 719 869 l 129 856 q 118 860 122 856 q 114 871 114 864 q 114 897 114 885 q 114 922 114 910 q 114 946 114 933 q 114 972 114 958 m 194 1261 q 265 1261 229 1261 q 335 1261 300 1261 q 343 1259 340 1261 q 348 1254 346 1257 q 350 1246 350 1251 l 350 1111 q 280 1111 315 1111 q 210 1111 244 1111 q 202 1113 206 1111 q 197 1119 199 1115 q 194 1126 194 1122 l 194 1261 m 483 1261 q 553 1261 518 1261 q 624 1261 589 1261 q 632 1259 629 1261 q 637 1254 635 1257 q 639 1246 639 1251 l 639 1111 q 569 1111 604 1111 q 499 1111 533 1111 q 491 1113 494 1111 q 485 1119 488 1115 q 483 1126 483 1122 l 483 1261 m 511 1533 q 564 1533 544 1533 q 600 1533 583 1533 q 646 1533 617 1533 q 658 1526 654 1533 q 654 1513 661 1519 q 610 1460 629 1483 q 574 1417 592 1438 q 535 1371 557 1396 q 481 1308 513 1346 q 472 1301 478 1304 q 457 1297 465 1297 q 418 1297 433 1297 q 389 1297 403 1297 q 360 1297 375 1297 q 411 1378 388 1340 q 459 1453 435 1415 q 511 1533 483 1490 z "},"Ỉ":{"ha":833,"x_min":114,"x_max":719,"o":"m 482 65 l 347 65 l 351 100 q 351 156 351 126 q 351 211 351 185 q 351 384 351 297 q 351 558 351 471 q 351 732 351 644 q 351 907 351 819 l 489 907 l 482 872 q 482 824 482 850 q 482 775 482 799 q 482 597 482 686 q 482 419 482 508 q 482 242 482 331 q 482 65 482 154 m 719 0 l 129 0 q 122 1 125 0 q 117 3 119 1 q 115 8 115 6 q 114 15 114 11 q 114 49 114 33 q 114 82 114 65 q 114 117 114 99 l 704 117 q 713 115 710 117 q 717 110 715 113 q 719 101 719 107 q 719 67 719 83 q 719 34 719 50 q 719 0 719 18 m 114 972 l 704 972 q 715 968 711 972 q 719 957 719 964 q 719 931 719 943 q 719 906 719 918 q 719 882 719 894 q 719 856 719 869 l 129 856 q 118 860 122 856 q 114 871 114 864 q 114 897 114 885 q 114 922 114 910 q 114 946 114 933 q 114 972 114 958 m 360 1075 q 381 1105 369 1090 q 403 1136 393 1119 q 420 1162 411 1149 q 438 1189 429 1175 q 438 1196 438 1192 q 438 1206 438 1200 q 413 1206 428 1206 q 386 1206 399 1206 q 347 1206 374 1206 q 301 1206 319 1206 l 271 1206 q 271 1247 271 1231 q 271 1281 271 1263 q 275 1292 271 1288 q 286 1296 279 1296 q 338 1296 306 1296 q 408 1296 371 1296 q 483 1296 446 1296 q 547 1296 519 1296 q 556 1294 553 1296 q 562 1290 560 1293 q 564 1281 564 1286 l 564 1208 q 549 1185 564 1207 q 511 1132 533 1163 q 481 1093 496 1113 q 453 1057 465 1074 q 423 1057 439 1057 q 392 1057 407 1057 q 364 1057 376 1057 q 354 1063 354 1057 q 360 1075 354 1068 z "},"Ị":{"ha":833,"x_min":114,"x_max":719,"o":"m 482 65 l 347 65 l 351 100 q 351 156 351 126 q 351 211 351 185 q 351 384 351 297 q 351 558 351 471 q 351 732 351 644 q 351 907 351 819 l 489 907 l 482 872 q 482 824 482 850 q 482 775 482 799 q 482 597 482 686 q 482 419 482 508 q 482 242 482 331 q 482 65 482 154 m 719 0 l 129 0 q 122 1 125 0 q 117 3 119 1 q 115 8 115 6 q 114 15 114 11 q 114 49 114 33 q 114 82 114 65 q 114 117 114 99 l 704 117 q 713 115 710 117 q 717 110 715 113 q 719 101 719 107 q 719 67 719 83 q 719 34 719 50 q 719 0 719 18 m 114 972 l 704 972 q 715 968 711 972 q 719 957 719 964 q 719 931 719 943 q 719 906 719 918 q 719 882 719 894 q 719 856 719 869 l 129 856 q 118 860 122 856 q 114 871 114 864 q 114 897 114 885 q 114 922 114 910 q 114 946 114 933 q 114 972 114 958 m 332 -140 q 371 -140 351 -140 q 409 -140 390 -140 q 447 -140 428 -140 q 486 -140 467 -140 q 497 -144 493 -140 q 501 -156 501 -149 l 501 -292 q 463 -292 482 -292 q 424 -292 443 -292 q 386 -292 406 -292 q 347 -292 367 -292 q 336 -287 340 -292 q 332 -276 332 -283 l 332 -140 z "},"J":{"ha":833,"x_min":136,"x_max":692,"o":"m 353 92 q 442 103 404 92 q 504 142 479 115 q 535 185 524 160 q 552 241 547 210 q 557 311 557 272 q 557 453 557 382 q 557 597 557 525 q 557 744 557 669 q 557 896 557 819 l 578 840 l 539 879 l 599 856 q 498 856 547 856 q 399 856 449 856 q 299 856 349 856 q 199 856 249 856 q 191 858 194 856 q 185 863 188 860 q 183 871 183 867 q 183 922 183 897 q 183 972 183 946 q 306 972 244 972 q 430 972 368 972 q 553 972 492 972 q 676 972 615 972 q 685 970 682 972 q 690 965 688 968 q 692 957 692 963 q 692 797 692 876 q 692 637 692 717 q 692 477 692 557 q 692 315 692 397 q 672 178 692 240 q 610 69 651 115 q 507 -3 569 22 q 358 -28 444 -28 q 264 -19 308 -28 q 188 1 219 -11 q 142 28 156 14 q 139 32 140 31 q 137 37 138 33 q 136 44 136 40 q 136 94 136 69 q 136 147 136 119 l 157 147 q 222 115 190 128 q 286 97 254 103 q 353 92 318 92 z "},"Ĵ":{"ha":833,"x_min":121,"x_max":743,"o":"m 353 92 q 442 103 404 92 q 504 142 479 115 q 535 185 524 160 q 552 241 547 210 q 557 311 557 272 q 557 453 557 382 q 557 597 557 525 q 557 744 557 669 q 557 896 557 819 l 578 840 l 539 879 l 599 856 q 498 856 547 856 q 399 856 449 856 q 299 856 349 856 q 199 856 249 856 q 191 858 194 856 q 185 863 188 860 q 183 871 183 867 q 183 922 183 897 q 183 972 183 946 q 306 972 244 972 q 430 972 368 972 q 553 972 492 972 q 676 972 615 972 q 685 970 682 972 q 690 965 688 968 q 692 957 692 963 q 692 797 692 876 q 692 637 692 717 q 692 477 692 557 q 692 315 692 397 q 672 178 692 240 q 610 69 651 115 q 507 -3 569 22 q 358 -28 444 -28 q 264 -19 308 -28 q 188 1 219 -11 q 142 28 156 14 q 139 32 140 31 q 137 37 138 33 q 136 44 136 40 q 136 94 136 69 q 136 147 136 119 l 157 147 q 222 115 190 128 q 286 97 254 103 q 353 92 318 92 m 357 1314 q 393 1314 371 1314 q 438 1314 415 1314 q 474 1314 461 1314 q 492 1309 485 1314 q 521 1285 500 1304 q 557 1251 532 1275 q 615 1198 582 1228 q 681 1137 647 1168 q 743 1078 714 1106 q 686 1078 717 1079 q 631 1078 656 1078 q 608 1080 615 1078 q 590 1092 601 1082 q 518 1151 568 1110 q 396 1251 468 1192 l 469 1224 q 425 1224 447 1224 q 381 1224 403 1224 l 453 1253 q 332 1153 383 1194 q 242 1078 281 1111 l 136 1078 q 127 1079 131 1078 q 122 1083 124 1081 q 121 1088 121 1085 q 126 1099 121 1093 q 153 1125 132 1106 q 198 1166 171 1142 q 255 1219 225 1190 q 312 1272 285 1247 q 357 1314 339 1297 z "},"K":{"ha":833,"x_min":108,"x_max":783,"o":"m 408 554 q 538 359 472 457 q 667 164 603 261 q 700 127 685 136 q 743 118 715 118 q 759 118 753 118 q 772 118 765 118 l 783 118 q 783 88 783 104 q 783 57 783 72 q 783 31 783 42 q 783 15 783 19 q 779 4 783 8 q 768 0 775 0 q 757 0 764 0 q 742 0 750 0 q 725 0 735 0 q 656 8 685 0 q 605 36 628 15 q 554 96 582 57 q 498 184 524 144 q 451 259 472 224 q 414 328 431 294 q 383 399 397 363 l 328 399 l 408 554 m 757 972 q 763 971 761 972 q 767 967 765 969 q 768 963 768 965 q 765 953 768 960 q 752 932 763 947 q 717 883 742 917 q 658 802 692 849 q 583 702 624 756 q 499 588 543 649 q 406 462 454 526 q 310 331 358 397 q 213 201 261 265 l 213 418 l 258 418 q 290 482 272 450 q 328 547 307 514 q 372 613 349 579 q 419 681 396 646 q 486 776 451 726 q 556 876 521 826 q 624 972 592 926 l 757 972 m 108 972 q 165 972 138 972 q 222 972 193 972 q 233 968 229 972 q 238 957 238 964 q 238 718 238 838 q 238 478 238 599 q 238 239 238 358 q 238 0 238 119 q 181 0 208 0 q 124 0 153 0 q 113 4 117 0 q 108 15 108 8 q 108 287 108 151 q 108 558 108 422 q 108 831 108 694 q 108 901 108 867 q 108 972 108 936 z "},"Ķ":{"ha":833,"x_min":108,"x_max":783,"o":"m 408 554 q 538 359 472 457 q 667 164 603 261 q 700 127 685 136 q 743 118 715 118 q 759 118 753 118 q 772 118 765 118 l 783 118 q 783 88 783 104 q 783 57 783 72 q 783 31 783 42 q 783 15 783 19 q 779 4 783 8 q 768 0 775 0 q 757 0 764 0 q 742 0 750 0 q 725 0 735 0 q 656 8 685 0 q 605 36 628 15 q 554 96 582 57 q 498 184 524 144 q 451 259 472 224 q 414 328 431 294 q 383 399 397 363 l 328 399 l 408 554 m 757 972 q 763 971 761 972 q 767 967 765 969 q 768 963 768 965 q 765 953 768 960 q 752 932 763 947 q 717 883 742 917 q 658 802 692 849 q 583 702 624 756 q 499 588 543 649 q 406 462 454 526 q 310 331 358 397 q 213 201 261 265 l 213 418 l 258 418 q 290 482 272 450 q 328 547 307 514 q 372 613 349 579 q 419 681 396 646 q 486 776 451 726 q 556 876 521 826 q 624 972 592 926 l 757 972 m 108 972 q 165 972 138 972 q 222 972 193 972 q 233 968 229 972 q 238 957 238 964 q 238 718 238 838 q 238 478 238 599 q 238 239 238 358 q 238 0 238 119 q 181 0 208 0 q 124 0 153 0 q 113 4 117 0 q 108 15 108 8 q 108 287 108 151 q 108 558 108 422 q 108 831 108 694 q 108 901 108 867 q 108 972 108 936 m 403 -92 q 447 -92 426 -92 q 487 -92 467 -92 q 526 -92 507 -92 q 539 -97 535 -92 q 540 -111 543 -103 q 513 -183 525 -151 q 490 -246 501 -214 q 461 -321 478 -278 q 455 -331 460 -326 q 440 -335 450 -335 q 396 -335 421 -335 q 342 -335 371 -335 q 364 -248 354 -289 q 384 -169 374 -207 q 403 -92 394 -131 z "},"L":{"ha":833,"x_min":115,"x_max":738,"o":"m 131 0 q 124 1 126 0 q 119 3 121 1 q 116 8 117 6 q 115 15 115 11 q 115 244 115 128 q 115 470 115 360 q 115 676 115 581 q 115 844 115 772 q 115 908 115 876 q 115 972 115 940 q 175 972 146 972 q 233 972 204 972 q 242 970 239 972 q 247 965 244 968 q 249 957 249 963 q 249 747 249 853 q 249 536 249 642 q 249 326 249 431 q 249 117 249 221 l 642 117 q 681 108 665 117 q 708 85 697 100 q 726 49 719 69 q 738 0 733 28 l 131 0 m 615 283 q 652 283 635 283 q 687 283 669 283 q 722 283 704 283 q 731 281 728 283 q 735 276 733 279 q 738 268 738 274 q 738 207 738 242 q 738 134 738 172 q 738 61 738 96 q 738 0 738 26 q 663 15 690 3 q 626 47 636 26 q 615 94 615 67 q 615 154 615 119 q 615 224 615 189 q 615 283 615 260 z "},"Ĺ":{"ha":833,"x_min":115,"x_max":738,"o":"m 131 0 q 124 1 126 0 q 119 3 121 1 q 116 8 117 6 q 115 15 115 11 q 115 244 115 128 q 115 470 115 360 q 115 676 115 581 q 115 844 115 772 q 115 908 115 876 q 115 972 115 940 q 175 972 146 972 q 233 972 204 972 q 242 970 239 972 q 247 965 244 968 q 249 957 249 963 q 249 747 249 853 q 249 536 249 642 q 249 326 249 431 q 249 117 249 221 l 642 117 q 681 108 665 117 q 708 85 697 100 q 726 49 719 69 q 738 0 733 28 l 131 0 m 615 283 q 652 283 635 283 q 687 283 669 283 q 722 283 704 283 q 731 281 728 283 q 735 276 733 279 q 738 268 738 274 q 738 207 738 242 q 738 134 738 172 q 738 61 738 96 q 738 0 738 26 q 663 15 690 3 q 626 47 636 26 q 615 94 615 67 q 615 154 615 119 q 615 224 615 189 q 615 283 615 260 m 275 1313 q 328 1313 308 1313 q 364 1313 347 1313 q 410 1313 381 1313 q 422 1306 418 1313 q 418 1292 425 1299 q 374 1240 393 1263 q 338 1196 356 1217 q 299 1150 321 1175 q 244 1088 276 1125 q 235 1080 242 1083 q 221 1076 229 1076 q 182 1076 197 1076 q 153 1076 167 1076 q 124 1076 139 1076 q 175 1157 151 1119 q 223 1232 199 1194 q 275 1313 247 1269 z "},"Ļ":{"ha":833,"x_min":115,"x_max":738,"o":"m 131 0 q 124 1 126 0 q 119 3 121 1 q 116 8 117 6 q 115 15 115 11 q 115 244 115 128 q 115 470 115 360 q 115 676 115 581 q 115 844 115 772 q 115 908 115 876 q 115 972 115 940 q 175 972 146 972 q 233 972 204 972 q 242 970 239 972 q 247 965 244 968 q 249 957 249 963 q 249 747 249 853 q 249 536 249 642 q 249 326 249 431 q 249 117 249 221 l 642 117 q 681 108 665 117 q 708 85 697 100 q 726 49 719 69 q 738 0 733 28 l 131 0 m 615 283 q 652 283 635 283 q 687 283 669 283 q 722 283 704 283 q 731 281 728 283 q 735 276 733 279 q 738 268 738 274 q 738 207 738 242 q 738 134 738 172 q 738 61 738 96 q 738 0 738 26 q 663 15 690 3 q 626 47 636 26 q 615 94 615 67 q 615 154 615 119 q 615 224 615 189 q 615 283 615 260 m 382 -92 q 426 -92 406 -92 q 466 -92 446 -92 q 506 -92 486 -92 q 518 -97 514 -92 q 519 -111 522 -103 q 492 -183 504 -151 q 469 -246 481 -214 q 440 -321 457 -278 q 434 -331 439 -326 q 419 -335 429 -335 q 375 -335 400 -335 q 321 -335 350 -335 q 343 -248 333 -289 q 363 -169 353 -207 q 382 -92 374 -131 z "},"Ľ":{"ha":833,"x_min":115,"x_max":738,"o":"m 131 0 q 124 1 126 0 q 119 3 121 1 q 116 8 117 6 q 115 15 115 11 q 115 244 115 128 q 115 470 115 360 q 115 676 115 581 q 115 844 115 772 q 115 908 115 876 q 115 972 115 940 q 175 972 146 972 q 233 972 204 972 q 242 970 239 972 q 247 965 244 968 q 249 957 249 963 q 249 747 249 853 q 249 536 249 642 q 249 326 249 431 q 249 117 249 221 l 642 117 q 681 108 665 117 q 708 85 697 100 q 726 49 719 69 q 738 0 733 28 l 131 0 m 615 283 q 652 283 635 283 q 687 283 669 283 q 722 283 704 283 q 731 281 728 283 q 735 276 733 279 q 738 268 738 274 q 738 207 738 242 q 738 134 738 172 q 738 61 738 96 q 738 0 738 26 q 663 15 690 3 q 626 47 636 26 q 615 94 615 67 q 615 154 615 119 q 615 224 615 189 q 615 283 615 260 m 656 972 q 672 966 667 972 q 674 951 676 960 q 655 878 663 906 q 640 823 647 851 q 619 746 633 794 q 614 736 618 740 q 599 732 610 732 q 565 732 579 732 q 529 732 550 732 q 535 819 533 782 q 540 891 538 856 q 546 972 543 926 q 600 972 575 972 q 656 972 625 972 z "},"Ḷ":{"ha":833,"x_min":115,"x_max":738,"o":"m 343 -140 q 382 -140 363 -140 q 420 -140 401 -140 q 458 -140 439 -140 q 497 -140 478 -140 q 508 -144 504 -140 q 513 -156 513 -149 l 513 -292 q 474 -292 493 -292 q 435 -292 454 -292 q 397 -292 417 -292 q 358 -292 378 -292 q 347 -287 351 -292 q 343 -276 343 -283 l 343 -140 m 131 0 q 124 1 126 0 q 119 3 121 1 q 116 8 117 6 q 115 15 115 11 q 115 244 115 128 q 115 470 115 360 q 115 676 115 581 q 115 844 115 772 q 115 908 115 876 q 115 972 115 940 q 175 972 146 972 q 233 972 204 972 q 242 970 239 972 q 247 965 244 968 q 249 957 249 963 q 249 747 249 853 q 249 536 249 642 q 249 326 249 431 q 249 117 249 221 l 642 117 q 681 108 665 117 q 708 85 697 100 q 726 49 719 69 q 738 0 733 28 l 131 0 m 615 283 q 652 283 635 283 q 687 283 669 283 q 722 283 704 283 q 731 281 728 283 q 735 276 733 279 q 738 268 738 274 q 738 207 738 242 q 738 134 738 172 q 738 61 738 96 q 738 0 738 26 q 663 15 690 3 q 626 47 636 26 q 615 94 615 67 q 615 154 615 119 q 615 224 615 189 q 615 283 615 260 z "},"Ḻ":{"ha":833,"x_min":115,"x_max":738,"o":"m 182 -107 l 657 -107 q 668 -111 664 -107 q 672 -122 672 -115 q 672 -155 672 -139 q 672 -186 672 -171 q 672 -219 672 -201 l 197 -219 q 190 -217 193 -219 q 184 -212 186 -215 q 182 -204 182 -208 q 182 -171 182 -186 q 182 -140 182 -156 q 182 -107 182 -124 m 131 0 q 124 1 126 0 q 119 3 121 1 q 116 8 117 6 q 115 15 115 11 q 115 244 115 128 q 115 470 115 360 q 115 676 115 581 q 115 844 115 772 q 115 908 115 876 q 115 972 115 940 q 175 972 146 972 q 233 972 204 972 q 242 970 239 972 q 247 965 244 968 q 249 957 249 963 q 249 747 249 853 q 249 536 249 642 q 249 326 249 431 q 249 117 249 221 l 642 117 q 681 108 665 117 q 708 85 697 100 q 726 49 719 69 q 738 0 733 28 l 131 0 m 615 283 q 652 283 635 283 q 687 283 669 283 q 722 283 704 283 q 731 281 728 283 q 735 276 733 279 q 738 268 738 274 q 738 207 738 242 q 738 134 738 172 q 738 61 738 96 q 738 0 738 26 q 663 15 690 3 q 626 47 636 26 q 615 94 615 67 q 615 154 615 119 q 615 224 615 189 q 615 283 615 260 z "},"M":{"ha":833,"x_min":89,"x_max":744,"o":"m 217 0 q 160 0 188 0 q 104 0 133 0 q 97 2 100 0 q 91 7 93 4 q 89 15 89 10 q 89 220 89 118 q 89 425 89 322 q 89 631 89 528 q 89 835 89 733 q 89 903 89 869 q 89 972 89 938 q 132 972 108 972 q 178 972 156 972 q 221 972 201 972 q 231 969 226 972 q 241 959 236 967 q 250 936 246 951 q 287 834 269 883 q 321 735 304 785 q 354 631 338 685 q 388 514 371 576 q 425 378 406 451 l 383 444 l 453 444 l 410 378 q 445 517 428 453 q 480 637 463 581 q 515 747 497 693 q 553 857 533 801 q 596 972 574 913 q 639 972 615 972 q 686 972 663 972 q 729 972 710 972 q 738 970 735 972 q 742 965 740 968 q 744 957 744 963 q 744 871 744 925 q 744 748 744 817 q 744 601 744 679 q 744 444 744 524 q 744 286 744 364 q 744 140 744 208 q 744 94 744 117 q 744 47 744 71 q 744 0 744 24 q 685 0 714 0 q 632 0 657 0 q 624 2 628 0 q 619 7 621 4 q 617 15 617 10 q 617 80 617 47 q 617 144 617 113 q 617 208 617 176 q 617 288 617 247 q 619 374 618 329 q 623 466 621 418 q 629 567 625 514 q 638 678 633 619 q 650 799 643 736 l 669 769 l 596 769 l 638 797 q 595 678 615 736 q 555 564 575 619 q 515 453 535 508 q 477 344 496 399 q 439 235 458 290 q 420 235 429 235 q 401 235 411 235 q 392 237 396 235 q 385 246 388 239 q 356 327 372 281 q 320 431 339 374 q 281 549 301 488 q 238 675 260 611 q 196 800 217 739 l 244 769 l 165 769 l 183 803 q 195 681 190 739 q 204 569 200 622 q 210 468 208 517 q 214 375 213 419 q 216 289 215 331 q 217 208 217 247 q 217 105 217 157 q 217 0 217 53 z "},"Ṃ":{"ha":833,"x_min":89,"x_max":744,"o":"m 333 -140 q 372 -140 353 -140 q 410 -140 390 -140 q 448 -140 429 -140 q 486 -140 467 -140 q 497 -144 493 -140 q 501 -156 501 -149 l 501 -292 q 463 -292 482 -292 q 425 -292 444 -292 q 387 -292 406 -292 q 349 -292 368 -292 q 338 -287 342 -292 q 333 -276 333 -283 l 333 -140 m 217 0 q 160 0 188 0 q 104 0 133 0 q 97 2 100 0 q 91 7 93 4 q 89 15 89 10 q 89 220 89 118 q 89 425 89 322 q 89 631 89 528 q 89 835 89 733 q 89 903 89 869 q 89 972 89 938 q 132 972 108 972 q 178 972 156 972 q 221 972 201 972 q 231 969 226 972 q 241 959 236 967 q 250 936 246 951 q 287 834 269 883 q 321 735 304 785 q 354 631 338 685 q 388 514 371 576 q 425 378 406 451 l 383 444 l 453 444 l 410 378 q 445 517 428 453 q 480 637 463 581 q 515 747 497 693 q 553 857 533 801 q 596 972 574 913 q 639 972 615 972 q 686 972 663 972 q 729 972 710 972 q 738 970 735 972 q 742 965 740 968 q 744 957 744 963 q 744 871 744 925 q 744 748 744 817 q 744 601 744 679 q 744 444 744 524 q 744 286 744 364 q 744 140 744 208 q 744 94 744 117 q 744 47 744 71 q 744 0 744 24 q 685 0 714 0 q 632 0 657 0 q 624 2 628 0 q 619 7 621 4 q 617 15 617 10 q 617 80 617 47 q 617 144 617 113 q 617 208 617 176 q 617 288 617 247 q 619 374 618 329 q 623 466 621 418 q 629 567 625 514 q 638 678 633 619 q 650 799 643 736 l 669 769 l 596 769 l 638 797 q 595 678 615 736 q 555 564 575 619 q 515 453 535 508 q 477 344 496 399 q 439 235 458 290 q 420 235 429 235 q 401 235 411 235 q 392 237 396 235 q 385 246 388 239 q 356 327 372 281 q 320 431 339 374 q 281 549 301 488 q 238 675 260 611 q 196 800 217 739 l 244 769 l 165 769 l 183 803 q 195 681 190 739 q 204 569 200 622 q 210 468 208 517 q 214 375 213 419 q 216 289 215 331 q 217 208 217 247 q 217 105 217 157 q 217 0 217 53 z "},"N":{"ha":833,"x_min":101,"x_max":732,"o":"m 228 0 q 172 0 200 0 q 117 0 144 0 q 109 2 113 0 q 103 7 106 4 q 101 15 101 10 q 101 212 101 114 q 101 408 101 310 q 101 604 101 506 q 101 801 101 703 q 101 886 101 843 q 101 972 101 929 q 151 972 122 972 q 207 972 179 972 q 257 972 235 972 q 267 970 263 972 q 276 962 272 968 q 286 940 281 956 q 317 867 297 914 q 364 759 338 821 q 422 625 390 697 q 488 474 454 553 q 557 313 522 394 q 624 153 592 232 l 582 178 l 660 178 l 638 153 q 622 294 628 228 q 613 420 617 360 q 608 536 610 481 q 606 647 606 592 q 606 757 606 701 q 606 865 606 811 q 606 972 606 918 q 661 972 633 972 q 717 972 689 972 q 728 968 724 972 q 732 957 732 964 q 732 767 732 863 q 732 576 732 671 q 732 385 732 481 q 732 194 732 290 q 732 97 732 146 q 732 0 732 49 q 685 0 713 0 q 631 0 657 0 q 589 0 606 0 q 569 5 576 0 q 553 32 563 10 q 479 203 519 110 q 394 399 439 296 q 301 612 349 503 q 208 833 254 721 l 251 803 l 179 803 l 197 831 q 210 710 204 768 q 219 597 215 653 q 224 482 222 540 q 227 360 226 424 q 228 224 228 296 q 228 115 228 175 q 228 0 228 56 z "},"Ñ":{"ha":833,"x_min":101,"x_max":732,"o":"m 228 0 q 172 0 200 0 q 117 0 144 0 q 109 2 113 0 q 103 7 106 4 q 101 15 101 10 q 101 212 101 114 q 101 408 101 310 q 101 604 101 506 q 101 801 101 703 q 101 886 101 843 q 101 972 101 929 q 151 972 122 972 q 207 972 179 972 q 257 972 235 972 q 267 970 263 972 q 276 962 272 968 q 286 940 281 956 q 317 867 297 914 q 364 759 338 821 q 422 625 390 697 q 488 474 454 553 q 557 313 522 394 q 624 153 592 232 l 582 178 l 660 178 l 638 153 q 622 294 628 228 q 613 420 617 360 q 608 536 610 481 q 606 647 606 592 q 606 757 606 701 q 606 865 606 811 q 606 972 606 918 q 661 972 633 972 q 717 972 689 972 q 728 968 724 972 q 732 957 732 964 q 732 767 732 863 q 732 576 732 671 q 732 385 732 481 q 732 194 732 290 q 732 97 732 146 q 732 0 732 49 q 685 0 713 0 q 631 0 657 0 q 589 0 606 0 q 569 5 576 0 q 553 32 563 10 q 479 203 519 110 q 394 399 439 296 q 301 612 349 503 q 208 833 254 721 l 251 803 l 179 803 l 197 831 q 210 710 204 768 q 219 597 215 653 q 224 482 222 540 q 227 360 226 424 q 228 224 228 296 q 228 115 228 175 q 228 0 228 56 m 549 1203 q 608 1217 583 1203 q 660 1263 633 1232 l 679 1263 q 679 1216 679 1239 q 679 1171 679 1193 q 678 1158 679 1164 q 669 1146 676 1153 q 619 1109 647 1124 q 546 1094 590 1094 q 473 1108 507 1094 q 408 1137 439 1121 q 347 1166 378 1153 q 285 1179 317 1179 q 225 1165 250 1179 q 174 1118 200 1150 l 154 1118 q 154 1165 154 1142 q 154 1210 154 1189 q 156 1222 154 1217 q 164 1236 157 1228 q 215 1273 186 1258 q 288 1288 243 1288 q 360 1274 326 1288 q 426 1244 394 1261 q 487 1215 457 1228 q 549 1203 517 1203 z "},"Ń":{"ha":833,"x_min":101,"x_max":732,"o":"m 228 0 q 172 0 200 0 q 117 0 144 0 q 109 2 113 0 q 103 7 106 4 q 101 15 101 10 q 101 212 101 114 q 101 408 101 310 q 101 604 101 506 q 101 801 101 703 q 101 886 101 843 q 101 972 101 929 q 151 972 122 972 q 207 972 179 972 q 257 972 235 972 q 267 970 263 972 q 276 962 272 968 q 286 940 281 956 q 317 867 297 914 q 364 759 338 821 q 422 625 390 697 q 488 474 454 553 q 557 313 522 394 q 624 153 592 232 l 582 178 l 660 178 l 638 153 q 622 294 628 228 q 613 420 617 360 q 608 536 610 481 q 606 647 606 592 q 606 757 606 701 q 606 865 606 811 q 606 972 606 918 q 661 972 633 972 q 717 972 689 972 q 728 968 724 972 q 732 957 732 964 q 732 767 732 863 q 732 576 732 671 q 732 385 732 481 q 732 194 732 290 q 732 97 732 146 q 732 0 732 49 q 685 0 713 0 q 631 0 657 0 q 589 0 606 0 q 569 5 576 0 q 553 32 563 10 q 479 203 519 110 q 394 399 439 296 q 301 612 349 503 q 208 833 254 721 l 251 803 l 179 803 l 197 831 q 210 710 204 768 q 219 597 215 653 q 224 482 222 540 q 227 360 226 424 q 228 224 228 296 q 228 115 228 175 q 228 0 228 56 m 511 1311 q 564 1311 544 1311 q 600 1311 583 1311 q 646 1311 617 1311 q 658 1304 654 1311 q 654 1290 661 1297 q 610 1238 629 1261 q 574 1194 592 1215 q 535 1149 557 1174 q 481 1086 513 1124 q 472 1078 478 1082 q 457 1075 465 1075 q 418 1075 433 1075 q 389 1075 403 1075 q 360 1075 375 1075 q 411 1156 388 1118 q 459 1231 435 1193 q 511 1311 483 1268 z "},"Ņ":{"ha":833,"x_min":101,"x_max":732,"o":"m 228 0 q 172 0 200 0 q 117 0 144 0 q 109 2 113 0 q 103 7 106 4 q 101 15 101 10 q 101 212 101 114 q 101 408 101 310 q 101 604 101 506 q 101 801 101 703 q 101 886 101 843 q 101 972 101 929 q 151 972 122 972 q 207 972 179 972 q 257 972 235 972 q 267 970 263 972 q 276 962 272 968 q 286 940 281 956 q 317 867 297 914 q 364 759 338 821 q 422 625 390 697 q 488 474 454 553 q 557 313 522 394 q 624 153 592 232 l 582 178 l 660 178 l 638 153 q 622 294 628 228 q 613 420 617 360 q 608 536 610 481 q 606 647 606 592 q 606 757 606 701 q 606 865 606 811 q 606 972 606 918 q 661 972 633 972 q 717 972 689 972 q 728 968 724 972 q 732 957 732 964 q 732 767 732 863 q 732 576 732 671 q 732 385 732 481 q 732 194 732 290 q 732 97 732 146 q 732 0 732 49 q 685 0 713 0 q 631 0 657 0 q 589 0 606 0 q 569 5 576 0 q 553 32 563 10 q 479 203 519 110 q 394 399 439 296 q 301 612 349 503 q 208 833 254 721 l 251 803 l 179 803 l 197 831 q 210 710 204 768 q 219 597 215 653 q 224 482 222 540 q 227 360 226 424 q 228 224 228 296 q 228 115 228 175 q 228 0 228 56 m 371 -92 q 415 -92 394 -92 q 455 -92 435 -92 q 494 -92 475 -92 q 507 -97 503 -92 q 508 -111 511 -103 q 481 -183 493 -151 q 458 -246 469 -214 q 429 -321 446 -278 q 423 -331 428 -326 q 408 -335 418 -335 q 364 -335 389 -335 q 310 -335 339 -335 q 332 -248 322 -289 q 352 -169 342 -207 q 371 -92 363 -131 z "},"Ň":{"ha":833,"x_min":99,"x_max":732,"o":"m 485 1076 q 449 1076 471 1076 q 403 1076 426 1076 q 368 1076 381 1076 q 350 1081 358 1076 q 321 1104 342 1086 q 284 1139 310 1115 q 226 1192 258 1163 q 161 1253 194 1222 q 99 1313 128 1285 q 155 1312 124 1311 q 211 1313 186 1313 q 233 1310 226 1313 q 251 1299 240 1307 q 324 1240 274 1281 q 446 1139 374 1199 l 371 1165 q 417 1165 394 1165 q 461 1165 439 1165 l 389 1138 q 510 1238 460 1196 q 600 1313 561 1281 l 704 1313 q 715 1311 711 1313 q 719 1308 718 1310 q 721 1303 721 1306 q 716 1291 721 1297 q 689 1265 711 1285 q 644 1224 671 1249 q 586 1171 617 1199 q 529 1118 556 1143 q 485 1076 503 1093 m 228 0 q 172 0 200 0 q 117 0 144 0 q 109 2 113 0 q 103 7 106 4 q 101 15 101 10 q 101 212 101 114 q 101 408 101 310 q 101 604 101 506 q 101 801 101 703 q 101 886 101 843 q 101 972 101 929 q 151 972 122 972 q 207 972 179 972 q 257 972 235 972 q 267 970 263 972 q 276 962 272 968 q 286 940 281 956 q 317 867 297 914 q 364 759 338 821 q 422 625 390 697 q 488 474 454 553 q 557 313 522 394 q 624 153 592 232 l 582 178 l 660 178 l 638 153 q 622 294 628 228 q 613 420 617 360 q 608 536 610 481 q 606 647 606 592 q 606 757 606 701 q 606 865 606 811 q 606 972 606 918 q 661 972 633 972 q 717 972 689 972 q 728 968 724 972 q 732 957 732 964 q 732 767 732 863 q 732 576 732 671 q 732 385 732 481 q 732 194 732 290 q 732 97 732 146 q 732 0 732 49 q 685 0 713 0 q 631 0 657 0 q 589 0 606 0 q 569 5 576 0 q 553 32 563 10 q 479 203 519 110 q 394 399 439 296 q 301 612 349 503 q 208 833 254 721 l 251 803 l 179 803 l 197 831 q 210 710 204 768 q 219 597 215 653 q 224 482 222 540 q 227 360 226 424 q 228 224 228 296 q 228 115 228 175 q 228 0 228 56 z "},"Ṅ":{"ha":833,"x_min":101,"x_max":732,"o":"m 329 1261 q 369 1261 349 1261 q 409 1261 389 1261 q 449 1261 429 1261 q 489 1261 469 1261 q 500 1257 496 1261 q 504 1246 504 1253 l 504 1110 q 465 1110 485 1110 q 424 1110 444 1110 q 384 1110 404 1110 q 344 1110 364 1110 q 333 1114 338 1110 q 329 1125 329 1118 l 329 1261 m 228 0 q 172 0 200 0 q 117 0 144 0 q 109 2 113 0 q 103 7 106 4 q 101 15 101 10 q 101 212 101 114 q 101 408 101 310 q 101 604 101 506 q 101 801 101 703 q 101 886 101 843 q 101 972 101 929 q 151 972 122 972 q 207 972 179 972 q 257 972 235 972 q 267 970 263 972 q 276 962 272 968 q 286 940 281 956 q 317 867 297 914 q 364 759 338 821 q 422 625 390 697 q 488 474 454 553 q 557 313 522 394 q 624 153 592 232 l 582 178 l 660 178 l 638 153 q 622 294 628 228 q 613 420 617 360 q 608 536 610 481 q 606 647 606 592 q 606 757 606 701 q 606 865 606 811 q 606 972 606 918 q 661 972 633 972 q 717 972 689 972 q 728 968 724 972 q 732 957 732 964 q 732 767 732 863 q 732 576 732 671 q 732 385 732 481 q 732 194 732 290 q 732 97 732 146 q 732 0 732 49 q 685 0 713 0 q 631 0 657 0 q 589 0 606 0 q 569 5 576 0 q 553 32 563 10 q 479 203 519 110 q 394 399 439 296 q 301 612 349 503 q 208 833 254 721 l 251 803 l 179 803 l 197 831 q 210 710 204 768 q 219 597 215 653 q 224 482 222 540 q 227 360 226 424 q 228 224 228 296 q 228 115 228 175 q 228 0 228 56 z "},"Ṇ":{"ha":833,"x_min":101,"x_max":732,"o":"m 332 -140 q 371 -140 351 -140 q 409 -140 390 -140 q 447 -140 428 -140 q 486 -140 467 -140 q 497 -144 493 -140 q 501 -156 501 -149 l 501 -292 q 463 -292 482 -292 q 424 -292 443 -292 q 386 -292 406 -292 q 347 -292 367 -292 q 336 -287 340 -292 q 332 -276 332 -283 l 332 -140 m 228 0 q 172 0 200 0 q 117 0 144 0 q 109 2 113 0 q 103 7 106 4 q 101 15 101 10 q 101 212 101 114 q 101 408 101 310 q 101 604 101 506 q 101 801 101 703 q 101 886 101 843 q 101 972 101 929 q 151 972 122 972 q 207 972 179 972 q 257 972 235 972 q 267 970 263 972 q 276 962 272 968 q 286 940 281 956 q 317 867 297 914 q 364 759 338 821 q 422 625 390 697 q 488 474 454 553 q 557 313 522 394 q 624 153 592 232 l 582 178 l 660 178 l 638 153 q 622 294 628 228 q 613 420 617 360 q 608 536 610 481 q 606 647 606 592 q 606 757 606 701 q 606 865 606 811 q 606 972 606 918 q 661 972 633 972 q 717 972 689 972 q 728 968 724 972 q 732 957 732 964 q 732 767 732 863 q 732 576 732 671 q 732 385 732 481 q 732 194 732 290 q 732 97 732 146 q 732 0 732 49 q 685 0 713 0 q 631 0 657 0 q 589 0 606 0 q 569 5 576 0 q 553 32 563 10 q 479 203 519 110 q 394 399 439 296 q 301 612 349 503 q 208 833 254 721 l 251 803 l 179 803 l 197 831 q 210 710 204 768 q 219 597 215 653 q 224 482 222 540 q 227 360 226 424 q 228 224 228 296 q 228 115 228 175 q 228 0 228 56 z "},"Ṉ":{"ha":833,"x_min":101,"x_max":732,"o":"m 172 -107 l 646 -107 q 657 -111 653 -107 q 661 -122 661 -115 q 661 -155 661 -139 q 661 -186 661 -171 q 661 -219 661 -201 l 188 -219 q 179 -217 182 -219 q 174 -212 176 -215 q 172 -204 172 -208 q 172 -171 172 -186 q 172 -140 172 -156 q 172 -107 172 -124 m 228 0 q 172 0 200 0 q 117 0 144 0 q 109 2 113 0 q 103 7 106 4 q 101 15 101 10 q 101 212 101 114 q 101 408 101 310 q 101 604 101 506 q 101 801 101 703 q 101 886 101 843 q 101 972 101 929 q 151 972 122 972 q 207 972 179 972 q 257 972 235 972 q 267 970 263 972 q 276 962 272 968 q 286 940 281 956 q 317 867 297 914 q 364 759 338 821 q 422 625 390 697 q 488 474 454 553 q 557 313 522 394 q 624 153 592 232 l 582 178 l 660 178 l 638 153 q 622 294 628 228 q 613 420 617 360 q 608 536 610 481 q 606 647 606 592 q 606 757 606 701 q 606 865 606 811 q 606 972 606 918 q 661 972 633 972 q 717 972 689 972 q 728 968 724 972 q 732 957 732 964 q 732 767 732 863 q 732 576 732 671 q 732 385 732 481 q 732 194 732 290 q 732 97 732 146 q 732 0 732 49 q 685 0 713 0 q 631 0 657 0 q 589 0 606 0 q 569 5 576 0 q 553 32 563 10 q 479 203 519 110 q 394 399 439 296 q 301 612 349 503 q 208 833 254 721 l 251 803 l 179 803 l 197 831 q 210 710 204 768 q 219 597 215 653 q 224 482 222 540 q 227 360 226 424 q 228 224 228 296 q 228 115 228 175 q 228 0 228 56 z "},"O":{"ha":833,"x_min":86,"x_max":747,"o":"m 417 1000 q 589 963 515 1000 q 705 851 663 925 q 747 665 747 776 l 747 307 q 705 122 747 196 q 589 10 663 47 q 417 -28 515 -28 q 245 10 319 -28 q 128 122 171 47 q 86 307 86 196 l 86 665 q 128 851 86 776 q 245 963 171 925 q 417 1000 319 1000 m 214 311 q 227 214 214 258 q 269 140 240 169 q 329 103 294 117 q 417 89 364 89 q 531 116 486 89 q 598 193 576 143 q 619 311 619 243 l 619 661 q 614 729 619 697 q 596 788 608 761 q 564 832 583 814 q 504 870 539 857 q 417 883 469 883 q 302 856 347 883 q 235 780 257 829 q 214 661 214 731 l 214 311 z "},"Ò":{"ha":833,"x_min":86,"x_max":747,"o":"m 417 1000 q 589 963 515 1000 q 705 851 663 925 q 747 665 747 776 l 747 307 q 705 122 747 196 q 589 10 663 47 q 417 -28 515 -28 q 245 10 319 -28 q 128 122 171 47 q 86 307 86 196 l 86 665 q 128 851 86 776 q 245 963 171 925 q 417 1000 319 1000 m 214 311 q 227 214 214 258 q 269 140 240 169 q 329 103 294 117 q 417 89 364 89 q 531 116 486 89 q 598 193 576 143 q 619 311 619 243 l 619 661 q 614 729 619 697 q 596 788 608 761 q 564 832 583 814 q 504 870 539 857 q 417 883 469 883 q 302 856 347 883 q 235 780 257 829 q 214 661 214 731 l 214 311 m 328 1313 q 379 1232 356 1269 q 427 1157 403 1194 q 476 1076 451 1119 q 446 1076 460 1076 q 415 1076 432 1076 q 375 1076 399 1076 q 360 1080 367 1076 q 351 1088 354 1083 q 297 1150 318 1125 q 258 1196 275 1175 q 222 1240 240 1217 q 176 1292 203 1263 q 174 1306 171 1299 q 186 1313 178 1313 q 234 1313 215 1313 q 274 1313 253 1313 q 328 1313 294 1313 z "},"Ó":{"ha":833,"x_min":86,"x_max":747,"o":"m 417 1000 q 589 963 515 1000 q 705 851 663 925 q 747 665 747 776 l 747 307 q 705 122 747 196 q 589 10 663 47 q 417 -28 515 -28 q 245 10 319 -28 q 128 122 171 47 q 86 307 86 196 l 86 665 q 128 851 86 776 q 245 963 171 925 q 417 1000 319 1000 m 214 311 q 227 214 214 258 q 269 140 240 169 q 329 103 294 117 q 417 89 364 89 q 531 116 486 89 q 598 193 576 143 q 619 311 619 243 l 619 661 q 614 729 619 697 q 596 788 608 761 q 564 832 583 814 q 504 870 539 857 q 417 883 469 883 q 302 856 347 883 q 235 780 257 829 q 214 661 214 731 l 214 311 m 511 1313 q 564 1313 544 1313 q 600 1313 583 1313 q 646 1313 617 1313 q 658 1306 654 1313 q 654 1292 661 1299 q 610 1240 629 1263 q 574 1196 592 1217 q 535 1150 557 1175 q 481 1088 513 1125 q 472 1080 478 1083 q 457 1076 465 1076 q 418 1076 433 1076 q 389 1076 403 1076 q 360 1076 375 1076 q 411 1157 388 1119 q 459 1232 435 1194 q 511 1313 483 1269 z "},"Ô":{"ha":833,"x_min":86,"x_max":747,"o":"m 417 1000 q 589 963 515 1000 q 705 851 663 925 q 747 665 747 776 l 747 307 q 705 122 747 196 q 589 10 663 47 q 417 -28 515 -28 q 245 10 319 -28 q 128 122 171 47 q 86 307 86 196 l 86 665 q 128 851 86 776 q 245 963 171 925 q 417 1000 319 1000 m 214 311 q 227 214 214 258 q 269 140 240 169 q 329 103 294 117 q 417 89 364 89 q 531 116 486 89 q 598 193 576 143 q 619 311 619 243 l 619 661 q 614 729 619 697 q 596 788 608 761 q 564 832 583 814 q 504 870 539 857 q 417 883 469 883 q 302 856 347 883 q 235 780 257 829 q 214 661 214 731 l 214 311 m 349 1314 q 385 1314 363 1314 q 430 1314 407 1314 q 465 1314 453 1314 q 484 1309 476 1314 q 513 1285 492 1304 q 549 1251 524 1275 q 606 1198 574 1228 q 672 1137 639 1168 q 735 1078 706 1106 q 678 1078 708 1079 q 622 1078 647 1078 q 600 1080 607 1078 q 582 1092 593 1082 q 510 1151 560 1110 q 388 1251 460 1192 l 461 1224 q 417 1224 439 1224 q 372 1224 394 1224 l 444 1253 q 324 1153 375 1194 q 233 1078 272 1111 l 128 1078 q 119 1079 122 1078 q 114 1083 115 1081 q 113 1088 113 1085 q 118 1099 113 1093 q 144 1125 124 1106 q 190 1166 163 1142 q 247 1219 217 1190 q 303 1272 276 1247 q 349 1314 331 1297 z "},"Õ":{"ha":833,"x_min":86,"x_max":747,"o":"m 417 1000 q 589 963 515 1000 q 705 851 663 925 q 747 665 747 776 l 747 307 q 705 122 747 196 q 589 10 663 47 q 417 -28 515 -28 q 245 10 319 -28 q 128 122 171 47 q 86 307 86 196 l 86 665 q 128 851 86 776 q 245 963 171 925 q 417 1000 319 1000 m 214 311 q 227 214 214 258 q 269 140 240 169 q 329 103 294 117 q 417 89 364 89 q 531 116 486 89 q 598 193 576 143 q 619 311 619 243 l 619 661 q 614 729 619 697 q 596 788 608 761 q 564 832 583 814 q 504 870 539 857 q 417 883 469 883 q 302 856 347 883 q 235 780 257 829 q 214 661 214 731 l 214 311 m 549 1204 q 608 1219 583 1204 q 660 1264 633 1233 l 679 1264 q 679 1217 679 1240 q 679 1172 679 1194 q 678 1160 679 1165 q 669 1147 676 1154 q 619 1110 647 1125 q 546 1096 590 1096 q 473 1109 507 1096 q 408 1138 439 1122 q 347 1167 378 1154 q 285 1181 317 1181 q 225 1166 250 1181 q 174 1119 200 1151 l 154 1119 q 154 1167 154 1143 q 154 1211 154 1190 q 156 1224 154 1218 q 164 1238 157 1229 q 215 1274 186 1260 q 288 1289 243 1289 q 360 1276 326 1289 q 426 1246 394 1263 q 487 1217 457 1229 q 549 1204 517 1204 z "},"Ö":{"ha":833,"x_min":86,"x_max":747,"o":"m 417 1000 q 589 963 515 1000 q 705 851 663 925 q 747 665 747 776 l 747 307 q 705 122 747 196 q 589 10 663 47 q 417 -28 515 -28 q 245 10 319 -28 q 128 122 171 47 q 86 307 86 196 l 86 665 q 128 851 86 776 q 245 963 171 925 q 417 1000 319 1000 m 214 311 q 227 214 214 258 q 269 140 240 169 q 329 103 294 117 q 417 89 364 89 q 531 116 486 89 q 598 193 576 143 q 619 311 619 243 l 619 661 q 614 729 619 697 q 596 788 608 761 q 564 832 583 814 q 504 870 539 857 q 417 883 469 883 q 302 856 347 883 q 235 780 257 829 q 214 661 214 731 l 214 311 m 194 1261 q 265 1261 229 1261 q 335 1261 300 1261 q 343 1259 340 1261 q 348 1254 346 1257 q 350 1246 350 1251 l 350 1111 q 280 1111 315 1111 q 210 1111 244 1111 q 202 1113 206 1111 q 197 1119 199 1115 q 194 1126 194 1122 l 194 1261 m 483 1261 q 553 1261 518 1261 q 624 1261 589 1261 q 632 1259 629 1261 q 637 1254 635 1257 q 639 1246 639 1251 l 639 1111 q 569 1111 604 1111 q 499 1111 533 1111 q 491 1113 494 1111 q 485 1119 488 1115 q 483 1126 483 1122 l 483 1261 z "},"Ō":{"ha":833,"x_min":86,"x_max":747,"o":"m 417 1000 q 589 963 515 1000 q 705 851 663 925 q 747 665 747 776 l 747 307 q 705 122 747 196 q 589 10 663 47 q 417 -28 515 -28 q 245 10 319 -28 q 128 122 171 47 q 86 307 86 196 l 86 665 q 128 851 86 776 q 245 963 171 925 q 417 1000 319 1000 m 214 311 q 227 214 214 258 q 269 140 240 169 q 329 103 294 117 q 417 89 364 89 q 531 116 486 89 q 598 193 576 143 q 619 311 619 243 l 619 661 q 614 729 619 697 q 596 788 608 761 q 564 832 583 814 q 504 870 539 857 q 417 883 469 883 q 302 856 347 883 q 235 780 257 829 q 214 661 214 731 l 214 311 m 172 1232 l 646 1232 q 657 1228 653 1232 q 661 1217 661 1224 q 661 1169 661 1193 q 661 1121 661 1146 l 188 1121 q 180 1123 183 1121 q 174 1128 176 1125 q 172 1136 172 1132 q 172 1185 172 1161 q 172 1232 172 1208 z "},"Ŏ":{"ha":833,"x_min":86,"x_max":747,"o":"m 417 1000 q 589 963 515 1000 q 705 851 663 925 q 747 665 747 776 l 747 307 q 705 122 747 196 q 589 10 663 47 q 417 -28 515 -28 q 245 10 319 -28 q 128 122 171 47 q 86 307 86 196 l 86 665 q 128 851 86 776 q 245 963 171 925 q 417 1000 319 1000 m 214 311 q 227 214 214 258 q 269 140 240 169 q 329 103 294 117 q 417 89 364 89 q 531 116 486 89 q 598 193 576 143 q 619 311 619 243 l 619 661 q 614 729 619 697 q 596 788 608 761 q 564 832 583 814 q 504 870 539 857 q 417 883 469 883 q 302 856 347 883 q 235 780 257 829 q 214 661 214 731 l 214 311 m 572 1307 q 611 1307 592 1307 q 650 1307 631 1307 q 668 1300 664 1307 q 668 1278 672 1293 q 623 1190 656 1229 q 543 1126 590 1150 q 438 1103 496 1103 l 396 1103 q 290 1126 338 1103 q 211 1190 243 1150 q 165 1278 179 1229 q 166 1300 163 1293 q 183 1307 169 1307 q 222 1307 203 1307 q 261 1307 242 1307 q 322 1231 285 1253 q 417 1208 358 1208 q 512 1231 475 1208 q 572 1307 549 1253 z "},"Ő":{"ha":833,"x_min":86,"x_max":792,"o":"m 376 1313 q 429 1313 410 1313 q 466 1313 449 1313 q 511 1313 483 1313 q 523 1306 519 1313 q 519 1292 526 1299 q 476 1239 494 1261 q 440 1196 457 1217 q 400 1149 422 1175 q 346 1086 378 1124 q 337 1080 343 1083 q 322 1076 331 1076 q 283 1076 299 1076 q 254 1076 268 1076 q 225 1076 240 1076 q 276 1156 253 1118 q 324 1231 300 1193 q 376 1313 349 1269 m 640 1313 q 694 1313 675 1313 q 731 1313 713 1313 q 775 1313 749 1313 q 788 1306 783 1313 q 785 1292 792 1299 q 740 1239 760 1261 q 703 1196 721 1217 q 665 1149 686 1175 q 611 1086 643 1124 q 602 1080 608 1083 q 588 1076 596 1076 q 548 1076 564 1076 q 519 1076 532 1076 q 490 1076 506 1076 q 541 1156 517 1118 q 590 1231 565 1193 q 640 1313 614 1269 m 417 1000 q 588 963 514 1000 q 705 851 663 925 q 747 665 747 776 l 747 307 q 705 122 747 196 q 589 10 663 47 q 418 -28 515 -28 q 245 10 319 -28 q 128 122 171 47 q 86 307 86 196 l 86 665 q 128 851 86 776 q 245 963 171 925 q 417 1000 319 1000 m 214 311 q 227 214 214 258 q 269 140 240 169 q 329 103 294 117 q 417 89 364 89 q 531 116 486 89 q 598 193 576 143 q 619 311 619 243 l 619 661 q 614 729 619 697 q 596 788 608 761 q 564 832 583 814 q 504 870 539 857 q 417 883 469 883 q 302 856 347 883 q 235 780 257 829 q 214 661 214 731 l 214 311 z "},"Ơ":{"ha":833,"x_min":86,"x_max":774,"o":"m 417 1000 q 589 963 515 1000 q 705 851 663 925 q 747 665 747 776 l 747 307 q 705 122 747 196 q 589 10 663 47 q 417 -28 515 -28 q 245 10 319 -28 q 128 122 171 47 q 86 307 86 196 l 86 665 q 128 851 86 776 q 245 963 171 925 q 417 1000 319 1000 m 214 311 q 227 214 214 258 q 269 140 240 169 q 329 103 294 117 q 417 89 364 89 q 531 116 486 89 q 598 193 576 143 q 619 311 619 243 l 619 661 q 614 729 619 697 q 596 788 608 761 q 564 832 583 814 q 504 870 539 857 q 417 883 469 883 q 302 856 347 883 q 235 780 257 829 q 214 661 214 731 l 214 311 m 656 1147 q 705 1147 681 1147 q 750 1147 729 1147 q 767 1142 763 1147 q 772 1125 772 1136 q 772 1096 772 1117 q 772 1053 772 1075 q 768 995 772 1018 q 753 955 764 972 q 721 918 742 938 q 669 869 694 892 q 615 822 644 847 q 615 847 615 832 q 615 878 615 861 q 615 913 615 896 q 615 942 615 929 q 626 956 621 949 q 640 978 632 964 q 653 1003 650 992 q 656 1039 656 1015 q 656 1088 656 1058 q 656 1147 656 1118 z "},"Ǫ":{"ha":833,"x_min":86,"x_max":747,"o":"m 417 1000 q 589 963 515 1000 q 705 851 663 925 q 747 665 747 776 l 747 307 q 705 122 747 196 q 589 10 663 47 q 417 -28 515 -28 q 245 10 319 -28 q 128 122 171 47 q 86 307 86 196 l 86 665 q 128 851 86 776 q 245 963 171 925 q 417 1000 319 1000 m 214 311 q 227 214 214 258 q 269 140 240 169 q 329 103 294 117 q 417 89 364 89 q 531 116 486 89 q 598 193 576 143 q 619 311 619 243 l 619 661 q 614 729 619 697 q 596 788 608 761 q 564 832 583 814 q 504 870 539 857 q 417 883 469 883 q 302 856 347 883 q 235 780 257 829 q 214 661 214 731 l 214 311 m 600 79 q 647 98 624 92 q 694 106 669 104 q 676 80 688 93 q 650 51 665 67 q 585 -21 608 14 q 552 -87 561 -56 q 543 -149 543 -119 q 564 -208 543 -190 q 619 -226 585 -226 q 664 -219 644 -226 q 703 -200 683 -212 l 724 -200 q 724 -222 724 -210 q 724 -253 724 -235 q 724 -300 724 -271 q 692 -333 724 -318 q 611 -347 660 -347 q 475 -307 525 -347 q 425 -182 425 -267 q 437 -104 425 -142 q 472 -33 449 -67 q 526 29 494 0 q 600 79 558 58 z "},"Ȍ":{"ha":833,"x_min":57,"x_max":747,"o":"m 213 1313 q 264 1232 240 1269 q 312 1157 288 1194 q 361 1076 336 1119 q 331 1076 346 1076 q 300 1076 317 1076 q 260 1076 283 1076 q 246 1080 251 1076 q 238 1088 240 1083 q 183 1150 204 1125 q 144 1196 161 1175 q 107 1240 126 1217 q 63 1292 88 1263 q 60 1306 57 1299 q 72 1313 64 1313 q 119 1313 100 1313 q 159 1313 138 1313 q 213 1313 181 1313 m 478 1313 q 529 1232 506 1269 q 577 1157 553 1194 q 626 1076 601 1119 q 597 1076 611 1076 q 565 1076 582 1076 q 525 1076 549 1076 q 510 1080 517 1076 q 501 1088 504 1083 q 447 1150 469 1125 q 408 1196 425 1175 q 372 1240 390 1217 q 328 1292 353 1263 q 325 1306 322 1299 q 336 1313 328 1313 q 384 1313 365 1313 q 424 1313 403 1313 q 478 1313 446 1313 m 417 1000 q 588 963 514 1000 q 705 851 663 925 q 747 665 747 776 l 747 307 q 705 122 747 196 q 589 10 663 47 q 418 -28 515 -28 q 245 10 319 -28 q 128 122 171 47 q 86 307 86 196 l 86 665 q 128 851 86 776 q 245 963 171 925 q 417 1000 319 1000 m 214 311 q 227 214 214 258 q 269 140 240 169 q 329 103 294 117 q 417 89 364 89 q 531 116 486 89 q 598 193 576 143 q 619 311 619 243 l 619 661 q 614 729 619 697 q 596 788 608 761 q 564 832 583 814 q 504 870 539 857 q 417 883 469 883 q 302 856 347 883 q 235 780 257 829 q 214 661 214 731 l 214 311 z "},"Ȏ":{"ha":833,"x_min":86,"x_max":747,"o":"m 261 1094 q 222 1094 242 1094 q 183 1094 203 1094 q 166 1101 169 1094 q 165 1124 163 1107 q 211 1213 179 1174 q 290 1275 243 1251 q 396 1299 338 1299 l 438 1299 q 543 1275 496 1299 q 623 1213 590 1251 q 668 1124 656 1174 q 668 1101 672 1107 q 650 1094 664 1094 q 611 1094 631 1094 q 572 1094 592 1094 q 512 1171 549 1149 q 417 1193 475 1193 q 322 1171 358 1193 q 261 1094 285 1149 m 417 1000 q 589 963 515 1000 q 705 851 663 925 q 747 665 747 776 l 747 307 q 705 122 747 196 q 589 10 663 47 q 417 -28 515 -28 q 245 10 319 -28 q 128 122 171 47 q 86 307 86 196 l 86 665 q 128 851 86 776 q 245 963 171 925 q 417 1000 319 1000 m 214 311 q 227 214 214 258 q 269 140 240 169 q 329 103 294 117 q 417 89 364 89 q 531 116 486 89 q 598 193 576 143 q 619 311 619 243 l 619 661 q 614 729 619 697 q 596 788 608 761 q 564 832 583 814 q 504 870 539 857 q 417 883 469 883 q 302 856 347 883 q 235 780 257 829 q 214 661 214 731 l 214 311 z "},"Ȫ":{"ha":833,"x_min":86,"x_max":747,"o":"m 417 1000 q 589 963 515 1000 q 705 851 663 925 q 747 665 747 776 l 747 307 q 705 122 747 196 q 589 10 663 47 q 417 -28 515 -28 q 245 10 319 -28 q 128 122 171 47 q 86 307 86 196 l 86 665 q 128 851 86 776 q 245 963 171 925 q 417 1000 319 1000 m 214 311 q 227 214 214 258 q 269 140 240 169 q 329 103 294 117 q 417 89 364 89 q 531 116 486 89 q 598 193 576 143 q 619 311 619 243 l 619 661 q 614 729 619 697 q 596 788 608 761 q 564 832 583 814 q 504 870 539 857 q 417 883 469 883 q 302 856 347 883 q 235 780 257 829 q 214 661 214 731 l 214 311 m 194 1261 q 265 1261 229 1261 q 335 1261 300 1261 q 343 1259 340 1261 q 348 1254 346 1257 q 350 1246 350 1251 l 350 1111 q 280 1111 315 1111 q 210 1111 244 1111 q 202 1113 206 1111 q 197 1119 199 1115 q 194 1126 194 1122 l 194 1261 m 483 1261 q 553 1261 518 1261 q 624 1261 589 1261 q 632 1259 629 1261 q 637 1254 635 1257 q 639 1246 639 1251 l 639 1111 q 569 1111 604 1111 q 499 1111 533 1111 q 491 1113 494 1111 q 485 1119 488 1115 q 483 1126 483 1122 l 483 1261 m 172 1453 l 646 1453 q 657 1449 653 1453 q 661 1438 661 1444 q 661 1390 661 1414 q 661 1342 661 1367 l 188 1342 q 180 1344 183 1342 q 174 1349 176 1346 q 172 1357 172 1353 q 172 1406 172 1382 q 172 1453 172 1429 z "},"Ȭ":{"ha":833,"x_min":86,"x_max":747,"o":"m 417 1000 q 589 963 515 1000 q 705 851 663 925 q 747 665 747 776 l 747 307 q 705 122 747 196 q 589 10 663 47 q 417 -28 515 -28 q 245 10 319 -28 q 128 122 171 47 q 86 307 86 196 l 86 665 q 128 851 86 776 q 245 963 171 925 q 417 1000 319 1000 m 214 311 q 227 214 214 258 q 269 140 240 169 q 329 103 294 117 q 417 89 364 89 q 531 116 486 89 q 598 193 576 143 q 619 311 619 243 l 619 661 q 614 729 619 697 q 596 788 608 761 q 564 832 583 814 q 504 870 539 857 q 417 883 469 883 q 302 856 347 883 q 235 780 257 829 q 214 661 214 731 l 214 311 m 549 1204 q 608 1219 583 1204 q 660 1264 633 1233 l 679 1264 q 679 1217 679 1240 q 679 1172 679 1194 q 678 1160 679 1165 q 669 1147 676 1154 q 619 1110 647 1125 q 546 1096 590 1096 q 473 1109 507 1096 q 408 1138 439 1122 q 347 1167 378 1154 q 285 1181 317 1181 q 225 1166 250 1181 q 174 1119 200 1151 l 154 1119 q 154 1167 154 1143 q 154 1211 154 1190 q 156 1224 154 1218 q 164 1238 157 1229 q 215 1274 186 1260 q 288 1289 243 1289 q 360 1276 326 1289 q 426 1246 394 1263 q 487 1217 457 1229 q 549 1204 517 1204 m 172 1471 l 646 1471 q 657 1467 653 1471 q 661 1456 661 1463 q 661 1408 661 1432 q 661 1360 661 1385 l 188 1360 q 180 1362 183 1360 q 174 1367 176 1364 q 172 1375 172 1371 q 172 1424 172 1400 q 172 1471 172 1447 z "},"Ȱ":{"ha":833,"x_min":86,"x_max":747,"o":"m 329 1261 q 369 1261 349 1261 q 409 1261 389 1261 q 449 1261 429 1261 q 489 1261 469 1261 q 500 1257 496 1261 q 504 1246 504 1253 l 504 1110 q 465 1110 485 1110 q 424 1110 444 1110 q 384 1110 404 1110 q 344 1110 364 1110 q 333 1114 338 1110 q 329 1125 329 1118 l 329 1261 m 417 1000 q 589 963 515 1000 q 705 851 663 925 q 747 665 747 776 l 747 307 q 705 122 747 196 q 589 10 663 47 q 417 -28 515 -28 q 245 10 319 -28 q 128 122 171 47 q 86 307 86 196 l 86 665 q 128 851 86 776 q 245 963 171 925 q 417 1000 319 1000 m 214 311 q 227 214 214 258 q 269 140 240 169 q 329 103 294 117 q 417 89 364 89 q 531 116 486 89 q 598 193 576 143 q 619 311 619 243 l 619 661 q 614 729 619 697 q 596 788 608 761 q 564 832 583 814 q 504 870 539 857 q 417 883 469 883 q 302 856 347 883 q 235 780 257 829 q 214 661 214 731 l 214 311 m 172 1440 l 646 1440 q 657 1436 653 1440 q 661 1425 661 1432 q 661 1377 661 1400 q 661 1329 661 1354 l 188 1329 q 180 1331 183 1329 q 174 1337 176 1333 q 172 1344 172 1340 q 172 1392 172 1369 q 172 1440 172 1415 z "},"Ṍ":{"ha":833,"x_min":86,"x_max":747,"o":"m 417 1000 q 589 963 515 1000 q 705 851 663 925 q 747 665 747 776 l 747 307 q 705 122 747 196 q 589 10 663 47 q 417 -28 515 -28 q 245 10 319 -28 q 128 122 171 47 q 86 307 86 196 l 86 665 q 128 851 86 776 q 245 963 171 925 q 417 1000 319 1000 m 214 311 q 227 214 214 258 q 269 140 240 169 q 329 103 294 117 q 417 89 364 89 q 531 116 486 89 q 598 193 576 143 q 619 311 619 243 l 619 661 q 614 729 619 697 q 596 788 608 761 q 564 832 583 814 q 504 870 539 857 q 417 883 469 883 q 302 856 347 883 q 235 780 257 829 q 214 661 214 731 l 214 311 m 549 1204 q 608 1219 583 1204 q 660 1264 633 1233 l 679 1264 q 679 1217 679 1240 q 679 1172 679 1194 q 678 1160 679 1165 q 669 1147 676 1154 q 619 1110 647 1125 q 546 1096 590 1096 q 473 1109 507 1096 q 408 1138 439 1122 q 347 1167 378 1154 q 285 1181 317 1181 q 225 1166 250 1181 q 174 1119 200 1151 l 154 1119 q 154 1167 154 1143 q 154 1211 154 1190 q 156 1224 154 1218 q 164 1238 157 1229 q 215 1274 186 1260 q 288 1289 243 1289 q 360 1276 326 1289 q 426 1246 394 1263 q 487 1217 457 1229 q 549 1204 517 1204 m 511 1551 q 564 1551 544 1551 q 600 1551 583 1551 q 646 1551 617 1551 q 658 1544 654 1551 q 654 1531 661 1538 q 610 1478 629 1501 q 574 1435 592 1456 q 535 1389 557 1414 q 481 1326 513 1364 q 472 1319 478 1322 q 457 1315 465 1315 q 418 1315 433 1315 q 389 1315 403 1315 q 360 1315 375 1315 q 411 1396 388 1358 q 459 1471 435 1433 q 511 1551 483 1508 z "},"Ṏ":{"ha":833,"x_min":86,"x_max":747,"o":"m 417 1000 q 589 963 515 1000 q 705 851 663 925 q 747 665 747 776 l 747 307 q 705 122 747 196 q 589 10 663 47 q 417 -28 515 -28 q 245 10 319 -28 q 128 122 171 47 q 86 307 86 196 l 86 665 q 128 851 86 776 q 245 963 171 925 q 417 1000 319 1000 m 214 311 q 227 214 214 258 q 269 140 240 169 q 329 103 294 117 q 417 89 364 89 q 531 116 486 89 q 598 193 576 143 q 619 311 619 243 l 619 661 q 614 729 619 697 q 596 788 608 761 q 564 832 583 814 q 504 870 539 857 q 417 883 469 883 q 302 856 347 883 q 235 780 257 829 q 214 661 214 731 l 214 311 m 549 1204 q 608 1219 583 1204 q 660 1264 633 1233 l 679 1264 q 679 1217 679 1240 q 679 1172 679 1194 q 678 1160 679 1165 q 669 1147 676 1154 q 619 1110 647 1125 q 546 1096 590 1096 q 473 1109 507 1096 q 408 1138 439 1122 q 347 1167 378 1154 q 285 1181 317 1181 q 225 1166 250 1181 q 174 1119 200 1151 l 154 1119 q 154 1167 154 1143 q 154 1211 154 1190 q 156 1224 154 1218 q 164 1238 157 1229 q 215 1274 186 1260 q 288 1289 243 1289 q 360 1276 326 1289 q 426 1246 394 1263 q 487 1217 457 1229 q 549 1204 517 1204 m 194 1500 q 265 1500 229 1500 q 335 1500 300 1500 q 343 1498 340 1500 q 348 1493 346 1496 q 350 1485 350 1490 l 350 1350 q 280 1350 315 1350 q 210 1350 244 1350 q 202 1352 206 1350 q 197 1358 199 1354 q 194 1365 194 1361 l 194 1500 m 483 1500 q 553 1500 518 1500 q 624 1500 589 1500 q 632 1498 629 1500 q 637 1493 635 1496 q 639 1485 639 1490 l 639 1350 q 569 1350 604 1350 q 499 1350 533 1350 q 491 1352 494 1350 q 485 1358 488 1354 q 483 1365 483 1361 l 483 1500 z "},"Ṑ":{"ha":833,"x_min":86,"x_max":747,"o":"m 417 1000 q 589 963 515 1000 q 705 851 663 925 q 747 665 747 776 l 747 307 q 705 122 747 196 q 589 10 663 47 q 417 -28 515 -28 q 245 10 319 -28 q 128 122 171 47 q 86 307 86 196 l 86 665 q 128 851 86 776 q 245 963 171 925 q 417 1000 319 1000 m 214 311 q 227 214 214 258 q 269 140 240 169 q 329 103 294 117 q 417 89 364 89 q 531 116 486 89 q 598 193 576 143 q 619 311 619 243 l 619 661 q 614 729 619 697 q 596 788 608 761 q 564 832 583 814 q 504 870 539 857 q 417 883 469 883 q 302 856 347 883 q 235 780 257 829 q 214 661 214 731 l 214 311 m 172 1232 l 646 1232 q 657 1228 653 1232 q 661 1217 661 1224 q 661 1169 661 1193 q 661 1121 661 1146 l 188 1121 q 180 1123 183 1121 q 174 1128 176 1125 q 172 1136 172 1132 q 172 1185 172 1161 q 172 1232 172 1208 m 328 1522 q 379 1442 356 1479 q 427 1367 403 1404 q 476 1286 451 1329 q 446 1286 460 1286 q 415 1286 432 1286 q 375 1286 399 1286 q 360 1290 367 1286 q 351 1297 354 1293 q 297 1360 318 1335 q 258 1406 275 1385 q 222 1449 240 1426 q 176 1501 203 1472 q 174 1515 171 1508 q 186 1522 178 1522 q 234 1522 215 1522 q 274 1522 253 1522 q 328 1522 294 1522 z "},"Ṓ":{"ha":833,"x_min":86,"x_max":747,"o":"m 417 1000 q 589 963 515 1000 q 705 851 663 925 q 747 665 747 776 l 747 307 q 705 122 747 196 q 589 10 663 47 q 417 -28 515 -28 q 245 10 319 -28 q 128 122 171 47 q 86 307 86 196 l 86 665 q 128 851 86 776 q 245 963 171 925 q 417 1000 319 1000 m 214 311 q 227 214 214 258 q 269 140 240 169 q 329 103 294 117 q 417 89 364 89 q 531 116 486 89 q 598 193 576 143 q 619 311 619 243 l 619 661 q 614 729 619 697 q 596 788 608 761 q 564 832 583 814 q 504 870 539 857 q 417 883 469 883 q 302 856 347 883 q 235 780 257 829 q 214 661 214 731 l 214 311 m 172 1232 l 646 1232 q 657 1228 653 1232 q 661 1217 661 1224 q 661 1169 661 1193 q 661 1121 661 1146 l 188 1121 q 180 1123 183 1121 q 174 1128 176 1125 q 172 1136 172 1132 q 172 1185 172 1161 q 172 1232 172 1208 m 511 1522 q 564 1522 544 1522 q 600 1522 583 1522 q 646 1522 617 1522 q 658 1515 654 1522 q 654 1501 661 1508 q 610 1449 629 1472 q 574 1406 592 1426 q 535 1360 557 1385 q 481 1297 513 1335 q 472 1290 478 1293 q 457 1286 465 1286 q 418 1286 433 1286 q 389 1286 403 1286 q 360 1286 375 1286 q 411 1367 388 1329 q 459 1442 435 1404 q 511 1522 483 1479 z "},"Ọ":{"ha":833,"x_min":86,"x_max":747,"o":"m 417 1000 q 589 963 515 1000 q 705 851 663 925 q 747 665 747 776 l 747 307 q 705 122 747 196 q 589 10 663 47 q 417 -28 515 -28 q 245 10 319 -28 q 128 122 171 47 q 86 307 86 196 l 86 665 q 128 851 86 776 q 245 963 171 925 q 417 1000 319 1000 m 214 311 q 227 214 214 258 q 269 140 240 169 q 329 103 294 117 q 417 89 364 89 q 531 116 486 89 q 598 193 576 143 q 619 311 619 243 l 619 661 q 614 729 619 697 q 596 788 608 761 q 564 832 583 814 q 504 870 539 857 q 417 883 469 883 q 302 856 347 883 q 235 780 257 829 q 214 661 214 731 l 214 311 m 332 -140 q 371 -140 351 -140 q 409 -140 390 -140 q 447 -140 428 -140 q 486 -140 467 -140 q 497 -144 493 -140 q 501 -156 501 -149 l 501 -292 q 463 -292 482 -292 q 424 -292 443 -292 q 386 -292 406 -292 q 347 -292 367 -292 q 336 -287 340 -292 q 332 -276 332 -283 l 332 -140 z "},"Ỏ":{"ha":833,"x_min":86,"x_max":747,"o":"m 417 1000 q 589 963 515 1000 q 705 851 663 925 q 747 665 747 776 l 747 307 q 705 122 747 196 q 589 10 663 47 q 417 -28 515 -28 q 245 10 319 -28 q 128 122 171 47 q 86 307 86 196 l 86 665 q 128 851 86 776 q 245 963 171 925 q 417 1000 319 1000 m 214 311 q 227 214 214 258 q 269 140 240 169 q 329 103 294 117 q 417 89 364 89 q 531 116 486 89 q 598 193 576 143 q 619 311 619 243 l 619 661 q 614 729 619 697 q 596 788 608 761 q 564 832 583 814 q 504 870 539 857 q 417 883 469 883 q 302 856 347 883 q 235 780 257 829 q 214 661 214 731 l 214 311 m 360 1075 q 381 1105 369 1090 q 403 1136 393 1119 q 420 1162 411 1149 q 438 1189 429 1175 q 438 1196 438 1192 q 438 1206 438 1200 q 413 1206 428 1206 q 386 1206 399 1206 q 347 1206 374 1206 q 301 1206 319 1206 l 271 1206 q 271 1247 271 1231 q 271 1281 271 1263 q 275 1292 271 1288 q 286 1296 279 1296 q 338 1296 306 1296 q 408 1296 371 1296 q 483 1296 446 1296 q 547 1296 519 1296 q 556 1294 553 1296 q 562 1290 560 1293 q 564 1281 564 1286 l 564 1208 q 549 1185 564 1207 q 511 1132 533 1163 q 481 1093 496 1113 q 453 1057 465 1074 q 423 1057 439 1057 q 392 1057 407 1057 q 364 1057 376 1057 q 354 1063 354 1057 q 360 1075 354 1068 z "},"Ố":{"ha":833,"x_min":86,"x_max":883,"o":"m 417 1000 q 589 963 515 1000 q 705 851 663 925 q 747 665 747 776 l 747 307 q 705 122 747 196 q 589 10 663 47 q 417 -28 515 -28 q 245 10 319 -28 q 128 122 171 47 q 86 307 86 196 l 86 665 q 128 851 86 776 q 245 963 171 925 q 417 1000 319 1000 m 214 311 q 227 214 214 258 q 269 140 240 169 q 329 103 294 117 q 417 89 364 89 q 531 116 486 89 q 598 193 576 143 q 619 311 619 243 l 619 661 q 614 729 619 697 q 596 788 608 761 q 564 832 583 814 q 504 870 539 857 q 417 883 469 883 q 302 856 347 883 q 235 780 257 829 q 214 661 214 731 l 214 311 m 349 1314 q 385 1314 363 1314 q 430 1314 407 1314 q 465 1314 453 1314 q 484 1309 476 1314 q 513 1285 492 1304 q 549 1251 524 1275 q 606 1198 574 1228 q 672 1137 639 1168 q 735 1078 706 1106 q 678 1078 708 1079 q 622 1078 647 1078 q 600 1080 607 1078 q 582 1092 593 1082 q 510 1151 560 1110 q 388 1251 460 1192 l 461 1224 q 417 1224 439 1224 q 372 1224 394 1224 l 444 1253 q 324 1153 375 1194 q 233 1078 272 1111 l 128 1078 q 119 1079 122 1078 q 114 1083 115 1081 q 113 1088 113 1085 q 118 1099 113 1093 q 144 1125 124 1106 q 190 1166 163 1142 q 247 1219 217 1190 q 303 1272 276 1247 q 349 1314 331 1297 m 750 1469 q 792 1469 772 1469 q 831 1469 811 1469 q 869 1469 850 1469 q 881 1463 878 1469 q 878 1449 883 1457 q 831 1379 853 1411 q 788 1318 808 1347 q 746 1256 768 1289 q 736 1246 742 1249 q 721 1243 731 1243 q 683 1243 697 1243 q 657 1243 669 1243 q 629 1243 644 1243 q 670 1321 651 1286 q 708 1391 689 1356 q 750 1469 728 1426 z "},"Ồ":{"ha":833,"x_min":86,"x_max":747,"o":"m 417 1000 q 589 963 515 1000 q 705 851 663 925 q 747 665 747 776 l 747 307 q 705 122 747 196 q 589 10 663 47 q 417 -28 515 -28 q 245 10 319 -28 q 128 122 171 47 q 86 307 86 196 l 86 665 q 128 851 86 776 q 245 963 171 925 q 417 1000 319 1000 m 214 311 q 227 214 214 258 q 269 140 240 169 q 329 103 294 117 q 417 89 364 89 q 531 116 486 89 q 598 193 576 143 q 619 311 619 243 l 619 661 q 614 729 619 697 q 596 788 608 761 q 564 832 583 814 q 504 870 539 857 q 417 883 469 883 q 302 856 347 883 q 235 780 257 829 q 214 661 214 731 l 214 311 m 349 1314 q 385 1314 363 1314 q 430 1314 407 1314 q 465 1314 453 1314 q 484 1309 476 1314 q 513 1285 492 1304 q 549 1251 524 1275 q 606 1198 574 1228 q 672 1137 639 1168 q 735 1078 706 1106 q 678 1078 708 1079 q 622 1078 647 1078 q 600 1080 607 1078 q 582 1092 593 1082 q 510 1151 560 1110 q 388 1251 460 1192 l 461 1224 q 417 1224 439 1224 q 372 1224 394 1224 l 444 1253 q 324 1153 375 1194 q 233 1078 272 1111 l 128 1078 q 119 1079 122 1078 q 114 1083 115 1081 q 113 1088 113 1085 q 118 1099 113 1093 q 144 1125 124 1106 q 190 1166 163 1142 q 247 1219 217 1190 q 303 1272 276 1247 q 349 1314 331 1297 m 622 1469 q 665 1391 646 1426 q 703 1321 683 1356 q 743 1243 722 1286 q 715 1243 728 1243 q 689 1243 703 1243 q 651 1243 675 1243 q 637 1246 642 1243 q 626 1256 632 1249 q 585 1318 606 1289 q 542 1379 564 1347 q 494 1449 519 1411 q 492 1463 489 1457 q 503 1469 494 1469 q 542 1469 524 1469 q 581 1469 561 1469 q 622 1469 601 1469 z "},"Ổ":{"ha":833,"x_min":86,"x_max":833,"o":"m 417 1000 q 589 963 515 1000 q 705 851 663 925 q 747 665 747 776 l 747 307 q 705 122 747 196 q 589 10 663 47 q 417 -28 515 -28 q 245 10 319 -28 q 128 122 171 47 q 86 307 86 196 l 86 665 q 128 851 86 776 q 245 963 171 925 q 417 1000 319 1000 m 214 311 q 227 214 214 258 q 269 140 240 169 q 329 103 294 117 q 417 89 364 89 q 531 116 486 89 q 598 193 576 143 q 619 311 619 243 l 619 661 q 614 729 619 697 q 596 788 608 761 q 564 832 583 814 q 504 870 539 857 q 417 883 469 883 q 302 856 347 883 q 235 780 257 829 q 214 661 214 731 l 214 311 m 349 1314 q 385 1314 363 1314 q 430 1314 407 1314 q 465 1314 453 1314 q 484 1309 476 1314 q 513 1285 492 1304 q 549 1251 524 1275 q 606 1198 574 1228 q 672 1137 639 1168 q 735 1078 706 1106 q 678 1078 708 1079 q 622 1078 647 1078 q 600 1080 607 1078 q 582 1092 593 1082 q 510 1151 560 1110 q 388 1251 460 1192 l 461 1224 q 417 1224 439 1224 q 372 1224 394 1224 l 444 1253 q 324 1153 375 1194 q 233 1078 272 1111 l 128 1078 q 119 1079 122 1078 q 114 1083 115 1081 q 113 1088 113 1085 q 118 1099 113 1093 q 144 1125 124 1106 q 190 1166 163 1142 q 247 1219 217 1190 q 303 1272 276 1247 q 349 1314 331 1297 m 629 1242 q 651 1272 639 1257 q 672 1303 663 1286 q 690 1328 681 1315 q 707 1356 699 1342 q 707 1363 707 1358 q 707 1372 707 1367 q 683 1372 697 1372 q 656 1372 668 1372 q 616 1372 643 1372 q 571 1372 589 1372 l 540 1372 q 540 1413 540 1397 q 540 1447 540 1429 q 544 1458 540 1454 q 556 1463 549 1463 q 608 1463 575 1463 q 678 1463 640 1463 q 752 1463 715 1463 q 817 1463 789 1463 q 826 1461 822 1463 q 831 1456 829 1460 q 833 1447 833 1453 l 833 1375 q 818 1351 833 1374 q 781 1299 803 1329 q 750 1260 765 1279 q 722 1224 735 1240 q 692 1224 708 1224 q 661 1224 676 1224 q 633 1224 646 1224 q 624 1229 624 1224 q 629 1242 624 1235 z "},"Ỗ":{"ha":833,"x_min":86,"x_max":747,"o":"m 417 1000 q 589 963 515 1000 q 705 851 663 925 q 747 665 747 776 l 747 307 q 705 122 747 196 q 589 10 663 47 q 417 -28 515 -28 q 245 10 319 -28 q 128 122 171 47 q 86 307 86 196 l 86 665 q 128 851 86 776 q 245 963 171 925 q 417 1000 319 1000 m 214 311 q 227 214 214 258 q 269 140 240 169 q 329 103 294 117 q 417 89 364 89 q 531 116 486 89 q 598 193 576 143 q 619 311 619 243 l 619 661 q 614 729 619 697 q 596 788 608 761 q 564 832 583 814 q 504 870 539 857 q 417 883 469 883 q 302 856 347 883 q 235 780 257 829 q 214 661 214 731 l 214 311 m 349 1314 q 385 1314 363 1314 q 430 1314 407 1314 q 465 1314 453 1314 q 484 1309 476 1314 q 513 1285 492 1304 q 549 1251 524 1275 q 606 1198 574 1228 q 672 1137 639 1168 q 735 1078 706 1106 q 678 1078 708 1079 q 622 1078 647 1078 q 600 1080 607 1078 q 582 1092 593 1082 q 510 1151 560 1110 q 388 1251 460 1192 l 461 1224 q 417 1224 439 1224 q 372 1224 394 1224 l 444 1253 q 324 1153 375 1194 q 233 1078 272 1111 l 128 1078 q 119 1079 122 1078 q 114 1083 115 1081 q 113 1088 113 1085 q 118 1099 113 1093 q 144 1125 124 1106 q 190 1166 163 1142 q 247 1219 217 1190 q 303 1272 276 1247 q 349 1314 331 1297 m 525 1442 q 566 1451 550 1442 q 601 1489 582 1460 l 621 1489 q 621 1442 621 1467 q 621 1397 621 1418 q 619 1385 621 1390 q 611 1372 618 1379 q 574 1342 596 1351 q 524 1333 553 1333 q 461 1346 489 1333 q 409 1374 433 1358 q 361 1401 385 1389 q 310 1413 338 1413 q 267 1401 283 1413 q 232 1365 250 1389 l 211 1365 q 211 1413 211 1388 q 211 1457 211 1438 q 213 1469 211 1464 q 221 1482 214 1475 q 260 1510 240 1501 q 313 1519 281 1519 q 369 1508 343 1519 q 420 1481 396 1496 q 470 1454 444 1467 q 525 1442 496 1442 z "},"Ộ":{"ha":833,"x_min":86,"x_max":747,"o":"m 332 -140 q 371 -140 351 -140 q 409 -140 390 -140 q 447 -140 428 -140 q 486 -140 467 -140 q 497 -144 493 -140 q 501 -156 501 -149 l 501 -292 q 463 -292 482 -292 q 424 -292 443 -292 q 386 -292 406 -292 q 347 -292 367 -292 q 336 -287 340 -292 q 332 -276 332 -283 l 332 -140 m 417 1000 q 588 963 514 1000 q 705 851 663 925 q 747 665 747 776 l 747 307 q 705 122 747 196 q 589 10 663 47 q 418 -28 515 -28 q 245 10 319 -28 q 128 122 171 47 q 86 307 86 196 l 86 665 q 128 851 86 776 q 245 963 171 925 q 417 1000 319 1000 m 214 311 q 227 214 214 258 q 269 140 240 169 q 329 103 294 117 q 417 89 364 89 q 531 116 486 89 q 598 193 576 143 q 619 311 619 243 l 619 661 q 614 729 619 697 q 596 788 608 761 q 564 832 583 814 q 504 870 539 857 q 417 883 469 883 q 302 856 347 883 q 235 780 257 829 q 214 661 214 731 l 214 311 m 349 1313 q 385 1313 363 1313 q 430 1313 407 1313 q 465 1313 453 1313 q 484 1308 476 1313 q 513 1285 492 1304 q 549 1251 524 1275 q 606 1197 574 1226 q 672 1135 639 1167 q 735 1078 706 1104 q 678 1078 708 1078 q 622 1078 647 1078 q 600 1080 607 1078 q 582 1092 593 1082 q 510 1150 560 1110 q 388 1251 460 1190 l 461 1224 q 417 1224 439 1224 q 372 1224 394 1224 l 444 1253 q 324 1151 375 1193 q 233 1078 272 1110 l 128 1078 q 119 1078 122 1078 q 114 1082 115 1079 q 113 1088 113 1085 q 118 1099 113 1093 q 144 1124 124 1104 q 190 1165 163 1140 q 247 1218 217 1190 q 303 1272 276 1246 q 349 1313 331 1297 z "},"Ớ":{"ha":833,"x_min":86,"x_max":774,"o":"m 417 1000 q 589 963 515 1000 q 705 851 663 925 q 747 665 747 776 l 747 307 q 705 122 747 196 q 589 10 663 47 q 417 -28 515 -28 q 245 10 319 -28 q 128 122 171 47 q 86 307 86 196 l 86 665 q 128 851 86 776 q 245 963 171 925 q 417 1000 319 1000 m 214 311 q 227 214 214 258 q 269 140 240 169 q 329 103 294 117 q 417 89 364 89 q 531 116 486 89 q 598 193 576 143 q 619 311 619 243 l 619 661 q 614 729 619 697 q 596 788 608 761 q 564 832 583 814 q 504 870 539 857 q 417 883 469 883 q 302 856 347 883 q 235 780 257 829 q 214 661 214 731 l 214 311 m 656 1147 q 705 1147 681 1147 q 750 1147 729 1147 q 767 1142 763 1147 q 772 1125 772 1136 q 772 1096 772 1117 q 772 1053 772 1075 q 768 995 772 1018 q 753 955 764 972 q 721 918 742 938 q 669 869 694 892 q 615 822 644 847 q 615 847 615 832 q 615 878 615 861 q 615 913 615 896 q 615 942 615 929 q 626 956 621 949 q 640 978 632 964 q 653 1003 650 992 q 656 1039 656 1015 q 656 1088 656 1058 q 656 1147 656 1118 m 481 1301 q 522 1301 503 1301 q 561 1301 542 1301 q 600 1301 581 1301 q 611 1295 608 1301 q 608 1281 614 1289 q 561 1211 583 1243 q 519 1150 539 1179 q 476 1088 499 1121 q 467 1078 472 1081 q 451 1075 461 1075 q 414 1075 428 1075 q 388 1075 400 1075 q 360 1075 375 1075 q 401 1153 382 1118 q 439 1223 419 1188 q 481 1301 458 1258 z "},"Ờ":{"ha":833,"x_min":86,"x_max":774,"o":"m 417 1000 q 589 963 515 1000 q 705 851 663 925 q 747 665 747 776 l 747 307 q 705 122 747 196 q 589 10 663 47 q 417 -28 515 -28 q 245 10 319 -28 q 128 122 171 47 q 86 307 86 196 l 86 665 q 128 851 86 776 q 245 963 171 925 q 417 1000 319 1000 m 214 311 q 227 214 214 258 q 269 140 240 169 q 329 103 294 117 q 417 89 364 89 q 531 116 486 89 q 598 193 576 143 q 619 311 619 243 l 619 661 q 614 729 619 697 q 596 788 608 761 q 564 832 583 814 q 504 870 539 857 q 417 883 469 883 q 302 856 347 883 q 235 780 257 829 q 214 661 214 731 l 214 311 m 656 1147 q 705 1147 681 1147 q 750 1147 729 1147 q 767 1142 763 1147 q 772 1125 772 1136 q 772 1096 772 1117 q 772 1053 772 1075 q 768 995 772 1018 q 753 955 764 972 q 721 918 742 938 q 669 869 694 892 q 615 822 644 847 q 615 847 615 832 q 615 878 615 861 q 615 913 615 896 q 615 942 615 929 q 626 956 621 949 q 640 978 632 964 q 653 1003 650 992 q 656 1039 656 1015 q 656 1088 656 1058 q 656 1147 656 1118 m 353 1301 q 395 1223 376 1258 q 433 1153 414 1188 q 474 1075 453 1118 q 446 1075 458 1075 q 419 1075 433 1075 q 382 1075 406 1075 q 367 1078 372 1075 q 357 1088 363 1081 q 315 1150 336 1121 q 272 1211 294 1179 q 225 1281 250 1243 q 222 1295 219 1289 q 233 1301 225 1301 q 273 1301 254 1301 q 312 1301 292 1301 q 353 1301 332 1301 z "},"Ở":{"ha":833,"x_min":86,"x_max":774,"o":"m 417 1000 q 589 963 515 1000 q 705 851 663 925 q 747 665 747 776 l 747 307 q 705 122 747 196 q 589 10 663 47 q 417 -28 515 -28 q 245 10 319 -28 q 128 122 171 47 q 86 307 86 196 l 86 665 q 128 851 86 776 q 245 963 171 925 q 417 1000 319 1000 m 214 311 q 227 214 214 258 q 269 140 240 169 q 329 103 294 117 q 417 89 364 89 q 531 116 486 89 q 598 193 576 143 q 619 311 619 243 l 619 661 q 614 729 619 697 q 596 788 608 761 q 564 832 583 814 q 504 870 539 857 q 417 883 469 883 q 302 856 347 883 q 235 780 257 829 q 214 661 214 731 l 214 311 m 656 1147 q 705 1147 681 1147 q 750 1147 729 1147 q 767 1142 763 1147 q 772 1125 772 1136 q 772 1096 772 1117 q 772 1053 772 1075 q 768 995 772 1018 q 753 955 764 972 q 721 918 742 938 q 669 869 694 892 q 615 822 644 847 q 615 847 615 832 q 615 878 615 861 q 615 913 615 896 q 615 942 615 929 q 626 956 621 949 q 640 978 632 964 q 653 1003 650 992 q 656 1039 656 1015 q 656 1088 656 1058 q 656 1147 656 1118 m 360 1075 q 381 1105 369 1090 q 403 1136 393 1119 q 420 1162 411 1149 q 438 1189 429 1175 q 438 1196 438 1192 q 438 1206 438 1200 q 413 1206 428 1206 q 386 1206 399 1206 q 347 1206 374 1206 q 301 1206 319 1206 l 271 1206 q 271 1247 271 1231 q 271 1281 271 1263 q 275 1292 271 1288 q 286 1296 279 1296 q 338 1296 306 1296 q 408 1296 371 1296 q 483 1296 446 1296 q 547 1296 519 1296 q 556 1294 553 1296 q 562 1290 560 1293 q 564 1281 564 1286 l 564 1208 q 549 1185 564 1207 q 511 1132 533 1163 q 481 1093 496 1113 q 453 1057 465 1074 q 423 1057 439 1057 q 392 1057 407 1057 q 364 1057 376 1057 q 354 1063 354 1057 q 360 1075 354 1068 z "},"Ỡ":{"ha":833,"x_min":86,"x_max":774,"o":"m 417 1000 q 589 963 515 1000 q 705 851 663 925 q 747 665 747 776 l 747 307 q 705 122 747 196 q 589 10 663 47 q 417 -28 515 -28 q 245 10 319 -28 q 128 122 171 47 q 86 307 86 196 l 86 665 q 128 851 86 776 q 245 963 171 925 q 417 1000 319 1000 m 214 311 q 227 214 214 258 q 269 140 240 169 q 329 103 294 117 q 417 89 364 89 q 531 116 486 89 q 598 193 576 143 q 619 311 619 243 l 619 661 q 614 729 619 697 q 596 788 608 761 q 564 832 583 814 q 504 870 539 857 q 417 883 469 883 q 302 856 347 883 q 235 780 257 829 q 214 661 214 731 l 214 311 m 656 1147 q 705 1147 681 1147 q 750 1147 729 1147 q 767 1142 763 1147 q 772 1125 772 1136 q 772 1096 772 1117 q 772 1053 772 1075 q 768 995 772 1018 q 753 955 764 972 q 721 918 742 938 q 669 869 694 892 q 615 822 644 847 q 615 847 615 832 q 615 878 615 861 q 615 913 615 896 q 615 942 615 929 q 626 956 621 949 q 640 978 632 964 q 653 1003 650 992 q 656 1039 656 1015 q 656 1088 656 1058 q 656 1147 656 1118 m 471 1211 q 512 1220 496 1211 q 547 1258 528 1229 l 567 1258 q 567 1212 567 1236 q 567 1167 567 1188 q 565 1154 567 1160 q 557 1142 564 1149 q 520 1112 542 1121 q 469 1103 499 1103 q 407 1115 435 1103 q 355 1143 379 1128 q 307 1170 331 1158 q 256 1182 283 1182 q 213 1170 229 1182 q 178 1135 196 1158 l 157 1135 q 157 1182 157 1157 q 157 1226 157 1207 q 158 1239 157 1233 q 167 1251 160 1244 q 206 1280 186 1271 q 258 1289 226 1289 q 315 1277 289 1289 q 366 1251 342 1265 q 416 1224 390 1236 q 471 1211 442 1211 z "},"Ợ":{"ha":833,"x_min":86,"x_max":774,"o":"m 332 -140 q 371 -140 351 -140 q 409 -140 390 -140 q 447 -140 428 -140 q 486 -140 467 -140 q 497 -144 493 -140 q 501 -156 501 -149 l 501 -292 q 463 -292 482 -292 q 424 -292 443 -292 q 386 -292 406 -292 q 347 -292 367 -292 q 336 -287 340 -292 q 332 -276 332 -283 l 332 -140 m 417 1000 q 588 963 514 1000 q 705 851 663 925 q 747 665 747 776 l 747 307 q 705 122 747 196 q 589 10 663 47 q 418 -28 515 -28 q 245 10 319 -28 q 128 122 171 47 q 86 307 86 196 l 86 665 q 128 851 86 776 q 245 963 171 925 q 417 1000 319 1000 m 214 311 q 227 214 214 258 q 269 140 240 169 q 329 103 294 117 q 417 89 364 89 q 531 116 486 89 q 598 193 576 143 q 619 311 619 243 l 619 661 q 614 729 619 697 q 596 788 608 761 q 564 832 583 814 q 504 870 539 857 q 417 883 469 883 q 302 856 347 883 q 235 780 257 829 q 214 661 214 731 l 214 311 m 656 1149 q 706 1149 682 1149 q 751 1149 731 1149 q 769 1143 764 1149 q 774 1126 774 1138 q 774 1097 774 1118 q 774 1053 774 1075 q 769 995 774 1018 q 753 956 764 972 q 721 918 743 939 q 669 870 694 893 q 615 822 644 847 q 615 847 615 832 q 615 878 615 861 q 615 913 615 896 q 615 942 615 929 q 627 957 621 949 q 642 979 633 965 q 653 1003 650 992 q 656 1039 656 1015 q 656 1089 656 1058 q 656 1149 656 1119 z "},"P":{"ha":833,"x_min":42,"x_max":749,"o":"m 257 0 q 199 0 228 0 q 140 0 169 0 q 129 4 133 0 q 125 15 125 8 q 125 240 125 129 q 125 462 125 351 q 125 683 125 572 q 125 907 125 794 l 268 907 l 257 882 q 257 820 257 849 q 257 763 257 792 q 257 556 257 658 q 257 349 257 453 q 257 138 257 244 q 257 67 257 101 q 257 0 257 32 m 42 972 q 240 972 139 972 q 433 972 342 972 q 538 963 489 972 q 626 933 586 953 q 692 883 665 914 q 734 806 719 851 q 749 700 749 761 l 749 610 q 730 495 749 546 q 672 409 711 444 q 574 355 633 374 q 438 336 515 336 q 340 336 389 336 q 240 336 290 336 l 225 331 l 225 451 q 334 451 281 451 q 435 451 388 451 q 514 461 481 451 q 569 490 547 471 q 603 540 592 510 q 614 610 614 569 l 614 708 q 606 771 614 744 q 579 815 597 797 q 521 847 557 836 q 432 857 485 857 q 307 857 369 857 q 181 857 244 857 q 57 857 118 857 q 46 861 50 857 q 42 872 42 865 q 42 922 42 899 q 42 972 42 946 z "},"Q":{"ha":833,"x_min":86,"x_max":790,"o":"m 583 99 q 634 24 610 60 q 685 -51 658 -12 q 713 -81 700 -74 q 747 -87 726 -87 q 760 -87 754 -87 q 771 -87 765 -87 l 790 -87 q 790 -139 790 -115 q 790 -190 790 -162 q 786 -201 790 -197 q 775 -206 782 -206 q 753 -206 765 -206 q 731 -206 740 -206 q 667 -198 693 -206 q 622 -172 642 -190 q 585 -125 603 -154 q 530 -40 556 -81 q 476 44 504 1 l 583 99 m 417 1000 q 589 963 515 1000 q 705 851 663 925 q 747 665 747 776 l 747 307 q 705 122 747 196 q 589 10 663 47 q 417 -28 515 -28 q 245 10 319 -28 q 128 122 171 47 q 86 307 86 196 l 86 665 q 128 851 86 776 q 245 963 171 925 q 417 1000 319 1000 m 214 311 q 227 214 214 258 q 269 140 240 169 q 329 103 294 117 q 417 89 364 89 q 531 116 486 89 q 598 193 576 143 q 619 311 619 243 l 619 661 q 614 729 619 697 q 596 788 608 761 q 564 832 583 814 q 504 870 539 857 q 417 883 469 883 q 302 856 347 883 q 235 780 257 829 q 214 661 214 731 l 214 311 z "},"R":{"ha":833,"x_min":42,"x_max":778,"o":"m 513 453 q 590 309 553 379 q 667 165 628 239 q 698 127 683 138 q 735 117 713 117 q 748 117 743 117 q 758 117 753 117 l 778 117 q 778 66 778 89 q 778 15 778 43 q 774 4 778 8 q 763 0 769 0 q 740 0 753 0 q 715 0 726 0 q 648 10 676 0 q 598 40 619 19 q 557 97 576 61 q 479 249 518 174 q 401 400 440 325 l 513 453 m 42 972 q 238 972 139 972 q 433 972 336 972 q 564 953 508 972 q 656 900 619 935 q 709 815 692 865 q 726 703 726 765 l 726 635 q 708 526 726 575 q 653 442 689 476 q 565 390 617 408 q 449 372 514 372 q 345 372 397 372 q 240 372 293 372 l 225 363 l 225 486 q 330 486 278 486 q 435 486 382 486 q 524 503 489 486 q 578 553 560 519 q 596 638 596 588 l 596 704 q 586 769 596 740 q 557 815 576 797 q 508 845 539 835 q 435 856 478 856 q 309 856 372 856 q 183 856 246 856 q 57 856 121 856 q 46 860 50 856 q 42 871 42 864 q 42 922 42 897 q 42 972 42 946 m 254 0 q 197 0 225 0 q 140 0 169 0 q 129 4 133 0 q 125 15 125 8 q 125 240 125 129 q 125 462 125 351 q 125 683 125 572 q 125 907 125 794 l 271 907 l 254 882 q 254 755 254 818 q 254 629 254 692 q 254 467 254 547 q 254 306 254 388 q 254 138 254 225 q 254 67 254 101 q 254 0 254 32 z "},"Ŕ":{"ha":833,"x_min":42,"x_max":778,"o":"m 513 453 q 590 309 553 379 q 667 165 628 239 q 698 127 683 138 q 735 117 713 117 q 748 117 743 117 q 758 117 753 117 l 778 117 q 778 66 778 89 q 778 15 778 43 q 774 4 778 8 q 763 0 769 0 q 740 0 753 0 q 715 0 726 0 q 648 10 676 0 q 598 40 619 19 q 557 97 576 61 q 479 249 518 174 q 401 400 440 325 l 513 453 m 42 972 q 238 972 139 972 q 433 972 336 972 q 564 953 508 972 q 656 900 619 935 q 709 815 692 865 q 726 703 726 765 l 726 635 q 708 526 726 575 q 653 442 689 476 q 565 390 617 408 q 449 372 514 372 q 345 372 397 372 q 240 372 293 372 l 225 363 l 225 486 q 330 486 278 486 q 435 486 382 486 q 524 503 489 486 q 578 553 560 519 q 596 638 596 588 l 596 704 q 586 769 596 740 q 557 815 576 797 q 508 845 539 835 q 435 856 478 856 q 309 856 372 856 q 183 856 246 856 q 57 856 121 856 q 46 860 50 856 q 42 871 42 864 q 42 922 42 897 q 42 972 42 946 m 254 0 q 197 0 225 0 q 140 0 169 0 q 129 4 133 0 q 125 15 125 8 q 125 240 125 129 q 125 462 125 351 q 125 683 125 572 q 125 907 125 794 l 271 907 l 254 882 q 254 755 254 818 q 254 629 254 692 q 254 467 254 547 q 254 306 254 388 q 254 138 254 225 q 254 67 254 101 q 254 0 254 32 m 507 1313 q 560 1313 540 1313 q 596 1313 579 1313 q 642 1313 613 1313 q 653 1306 650 1313 q 650 1292 657 1299 q 606 1240 625 1263 q 570 1196 588 1217 q 531 1150 553 1175 q 476 1088 508 1125 q 467 1080 474 1083 q 453 1076 461 1076 q 414 1076 429 1076 q 385 1076 399 1076 q 356 1076 371 1076 q 407 1157 383 1119 q 455 1232 431 1194 q 507 1313 479 1269 z "},"Ŗ":{"ha":833,"x_min":42,"x_max":778,"o":"m 513 453 q 590 309 553 379 q 667 165 628 239 q 698 127 683 138 q 735 117 713 117 q 748 117 743 117 q 758 117 753 117 l 778 117 q 778 66 778 89 q 778 15 778 43 q 774 4 778 8 q 763 0 769 0 q 740 0 753 0 q 715 0 726 0 q 648 10 676 0 q 598 40 619 19 q 557 97 576 61 q 479 249 518 174 q 401 400 440 325 l 513 453 m 42 972 q 238 972 139 972 q 433 972 336 972 q 564 953 508 972 q 656 900 619 935 q 709 815 692 865 q 726 703 726 765 l 726 635 q 708 526 726 575 q 653 442 689 476 q 565 390 617 408 q 449 372 514 372 q 345 372 397 372 q 240 372 293 372 l 225 363 l 225 486 q 330 486 278 486 q 435 486 382 486 q 524 503 489 486 q 578 553 560 519 q 596 638 596 588 l 596 704 q 586 769 596 740 q 557 815 576 797 q 508 845 539 835 q 435 856 478 856 q 309 856 372 856 q 183 856 246 856 q 57 856 121 856 q 46 860 50 856 q 42 871 42 864 q 42 922 42 897 q 42 972 42 946 m 254 0 q 197 0 225 0 q 140 0 169 0 q 129 4 133 0 q 125 15 125 8 q 125 240 125 129 q 125 462 125 351 q 125 683 125 572 q 125 907 125 794 l 271 907 l 254 882 q 254 755 254 818 q 254 629 254 692 q 254 467 254 547 q 254 306 254 388 q 254 138 254 225 q 254 67 254 101 q 254 0 254 32 m 367 -92 q 410 -92 390 -92 q 451 -92 431 -92 q 490 -92 471 -92 q 503 -97 499 -92 q 504 -111 507 -103 q 477 -183 489 -151 q 453 -246 465 -214 q 425 -321 442 -278 q 419 -331 424 -326 q 404 -335 414 -335 q 360 -335 385 -335 q 306 -335 335 -335 q 328 -248 318 -289 q 348 -169 338 -207 q 367 -92 358 -131 z "}}}
